<?xml version="1.0" encoding="utf-8"?>
<!-- Generator: Adobe Illustrator 19.1.0, SVG Export Plug-In . SVG Version: 6.00 Build 0)  -->
<svg version="1.1" id="Layer_1" xmlns="http://www.w3.org/2000/svg" xmlns:xlink="http://www.w3.org/1999/xlink" x="0px" y="0px"
	 viewBox="-99 0 400 200" style="enable-background:new -99 0 400 200;" xml:space="preserve">
<style type="text/css">
	.st0{fill:none;}
	.st1{stroke:#000000;}
</style>
<path d="M-69.9,92.1c-2.5,0-4.7-0.9-6.4-2.6c-2.4-2.4-2.3-5.1-2.3-9.7c0-4.7,0-7.4,2.3-9.7c1.7-1.7,3.8-2.6,6.4-2.6
	c4.5,0,7.8,2.6,8.6,7.5h-3.7c-0.6-2.5-2.2-4.2-4.9-4.2c-1.4,0-2.7,0.5-3.6,1.5c-1.2,1.3-1.5,2.7-1.5,7.6c0,4.9,0.3,6.3,1.5,7.6
	c0.9,0.9,2.1,1.5,3.6,1.5c2.7,0,4.4-1.7,4.9-4.2h3.7C-62,89.5-65.5,92.1-69.9,92.1"/>
<path d="M-20.3,71h-5.4v7.6h5.4c2.5,0,4.1-1.4,4.1-3.8C-16.2,72.4-17.9,71-20.3,71 M-16.1,91.9l-5.1-10.2h-4.6v10.2h-3.7V67.7h9.4
	c4.6,0,7.5,3,7.5,7.1c0,3.5-2.1,5.7-4.8,6.4l5.6,10.7H-16.1z"/>
<rect x="25.8" y="67.7" width="3.7" height="24.2"/>
<polygon points="83.5,91.9 83.5,75.7 77.9,87.5 75.2,87.5 69.5,75.7 69.5,91.9 65.8,91.9 65.8,67.7 69.5,67.7 76.6,82.8 83.5,67.7 
	87.2,67.7 87.2,91.9 "/>
<polygon points="126.5,71 126.5,91.9 122.8,91.9 122.8,71 116.1,71 116.1,67.7 133.2,67.7 133.2,71 "/>
<path d="M175.1,71h-5.4v7.6h5.4c2.5,0,4.1-1.4,4.1-3.8C179.2,72.4,177.5,71,175.1,71 M179.3,91.9l-5.1-10.2h-4.6v10.2H166V67.7h9.4
	c4.6,0,7.5,3,7.5,7.1c0,3.5-2.1,5.7-4.8,6.4l5.6,10.7H179.3z"/>
<path d="M222.1,73.2l-3.8,10.8h7.5L222.1,73.2z M228.5,91.9l-1.7-4.9h-9.6l-1.7,4.9h-3.9l8.9-24.2h3l8.9,24.2H228.5z"/>
<path d="M272.1,92.1c-2.5,0-4.7-0.9-6.4-2.6c-2.4-2.4-2.3-5.1-2.3-9.7c0-4.7,0-7.4,2.3-9.7c1.7-1.7,3.8-2.6,6.4-2.6
	c4.5,0,7.8,2.6,8.6,7.5H277c-0.6-2.5-2.2-4.2-4.9-4.2c-1.4,0-2.7,0.5-3.6,1.5c-1.2,1.3-1.5,2.7-1.5,7.6c0,4.9,0.3,6.3,1.5,7.6
	c0.8,0.9,2.1,1.5,3.6,1.5c2.7,0,4.4-1.7,4.9-4.2h3.7C280,89.5,276.5,92.1,272.1,92.1"/>
<path id="SVGID_x5F_1_x5F_" class="st0" d="M295.7,67.7v64.8"/>
<text><textPath  xlink:href="#SVGID_x5F_1_x5F_" startOffset="33.5938%">
</textPath>
</text>
<line class="st1" x1="247.1" y1="67.7" x2="247.1" y2="132.5"/>
<line class="st1" x1="198.4" y1="67.7" x2="198.4" y2="132.5"/>
<line class="st1" x1="149.7" y1="67.7" x2="149.7" y2="132.5"/>
<line class="st1" x1="101" y1="67.7" x2="101" y2="132.5"/>
<line class="st1" x1="52.4" y1="67.7" x2="52.4" y2="132.5"/>
<line class="st1" x1="3.7" y1="67.7" x2="3.7" y2="132.5"/>
<line class="st1" x1="-45.1" y1="67.7" x2="-45.1" y2="132.5"/>
<line class="st1" x1="-93.7" y1="67.7" x2="-93.7" y2="132.5"/>
</svg>
