<?xml version="1.0" encoding="utf-8"?>
<!-- Generator: Adobe Illustrator 19.1.0, SVG Export Plug-In . SVG Version: 6.00 Build 0)  -->
<svg version="1.1" id="Layer_1" xmlns="http://www.w3.org/2000/svg" xmlns:xlink="http://www.w3.org/1999/xlink" x="0px" y="0px"
	 viewBox="-99 0 400 200" style="enable-background:new -99 0 400 200;" xml:space="preserve">
<style type="text/css">
	.st0{fill:#FFFFFF;}
	.st1{enable-background:new    ;}
</style>
<g>
	<g>
		<g>
			<path class="st0" d="M221.2,92.6c2.2,0,4.3-1,6.5-1.4c-8.4-0.6-11.5-3.6-11.3-11.7c0-8.3,0.2-16.4,0-24.6
				c-0.2-8.1-4.1-11.9-12-12c-8.7-0.2-17.4-0.2-26.1,0c-7.2,0.2-11,3.9-11.1,11.3c-0.2,4.8-0.2,9.7,0,14.5
				c0.3,6.8,4.1,10.7,10.9,10.9c6.8,0.3,13.5,0,20.3,0.2c7,0,11.3,3.2,12.2,11.1c-12.9,0-25.5,0.6-38.2-0.3
				c-9-0.6-16.3-9.9-16.7-19.3c-0.3-6.5-0.3-13.1,0-19.6c0.6-11.6,9.5-20.1,21.2-20.5c7.9-0.2,15.5,0.6,23.2-0.2
				c13.5-1.1,22.8,4.1,28.2,16.4 M46.4,70.9C45.8,82.5,37,91.2,25.3,91.5c-5.1,0.2-10.2,0-15.2,0c-4.9,0-9.7,0-14.5,0.2
				c-12-0.3-20.9-8.7-21.6-20.9c-0.3-6.1-0.3-12.2,0-18.1c0.7-12.6,9.5-20.9,22.2-21c9.5-0.2,18.8-0.2,28.3,0
				c12.8,0.1,21.6,8.9,21.9,21.8C46.6,59.3,46.7,65.1,46.4,70.9z M136.9,91.2C129,91,125.6,87,125.6,80c-0.3-8.3,0-16.4-0.2-24.6
				c-0.3-9.3-3.6-12.6-12.9-12.6c-8.3-0.2-16.4-0.2-24.6,0C80,43,76.4,46.4,76.2,54.4c-0.3,8.4,0,17-0.2,25.3
				c-0.2,6.8-3.2,10.9-10.6,11.3c0-14.9-0.9-29.9,0.3-44.5c0.7-8.7,10.4-14.9,19.6-15.1c9.7-0.2,19.3,0,29,0
				c12.8,0.2,21.9,7.9,22.5,20.6S136.9,77.5,136.9,91.2z"/>
			<path d="M227.7,91.2c-8.3-0.6-11.5-3.6-11.6-11.5c-0.2-8.3,0.2-16.4,0-24.6c-0.2-8.1-3.9-11.9-12-12c-8.7-0.2-17.4-0.2-26.1,0
				c-7.2,0.2-11,3.9-11.1,11.3c-0.2,4.8-0.2,9.7,0,14.5c0.3,6.8,3.9,10.7,10.9,10.9c6.8,0.2,13.5,0,20.3,0.2
				c7,0.2,11.3,3.2,12.2,11.1c-12.9,0-25.7,0.7-38.2-0.3c-9-0.7-16.1-9.9-16.7-19.3c-0.3-6.5-0.3-13.1,0-19.6
				c0.6-11.6,9.5-20.1,21.2-20.5c7.7-0.2,7.7-0.2,23.2-0.2c12.6-1,21.5,3.4,26.9,14c0.7,1.4,1.1,3,1.1,4.7
				C227.7,63.8,227.7,77.5,227.7,91.2z"/>
			<path d="M10.2,91.5c-4.8,0-9.7,0.2-14.5,0c-12-0.3-20.9-8.7-21.6-20.9c-0.3-5.9-0.3-12,0-18.1c0.7-12.5,9.5-20.9,22.2-21
				c9.5-0.2,18.8-0.2,28.3,0c12.8,0.1,21.7,8.9,21.8,21.8c0.2,5.8,0.3,11.6,0,17.4C45.9,82.3,37,91.1,25.3,91.3
				C20.3,91.5,15.2,91.5,10.2,91.5z M9.8,79.9c27.4,1,24.9-2.3,24.9-25.8c0-0.3,0-0.4,0-0.7c-0.6-6.1-3.9-9.9-10.2-10.2
				c-5.1-0.3-10.2,0.2-15.2-0.2c-26.4-1-23.9,3.5-23.9,25.6c0,0.4,0,1,0,1.4c1,5.9,4.2,9.5,10.6,9.9C0.7,79.9,5.2,79.8,9.8,79.9z"/>
			<path d="M136.9,91.2c-7.9-0.3-11.3-4.2-11.5-10.9c-0.2-8.3,0-16.4-0.2-24.6c-0.2-9.3-3.6-12.5-12.9-12.6c-8.3,0-16.4-0.2-24.6,0
				c-7.9,0.2-11.5,3.6-11.7,11.6c-0.3,8.4,0,16.8-0.2,25.3c-0.2,6.7-3.2,10.9-10.6,11.3c0-15.1-0.9-29.9,0.3-44.5
				c0.7-8.7,10.4-14.9,19.6-15.1c9.7-0.2,19.3-0.2,29,0c12.8,0.2,21.9,7.9,22.5,20.6C137.4,64.8,136.9,77.5,136.9,91.2z"/>
			<path class="st0" d="M9.8,79.9c-4.7,0-9.1,0.2-13.8,0c-6.4-0.2-9.5-3.9-10.6-9.9c-0.2-0.4,0-1,0-1.4c0-21.9-2.3-26.7,23.9-25.5
				c5.1,0.3,10.2-0.2,15.2,0.2c6.3,0.3,9.5,3.9,10.2,10.2c0,0.3,0,0.4,0,0.7C34.8,77.5,37.3,80.9,9.8,79.9z"/>
		</g>
	</g>
	<g class="st1">
		<path d="M-24.9,119.6c0-4.4,2.9-6.7,7.5-6.7s7.5,2.3,7.5,6.7v5.1c0,4.3-2.9,6.7-7.5,6.7c-4.6,0-7.5-2.3-7.5-6.7V119.6z
			 M-17.4,128.5c2.5,0,4.2-1.2,4.2-3.9v-4.7c0-2.6-1.8-4-4.2-4s-4.2,1.4-4.2,4v4.7C-21.5,127.3-19.7,128.5-17.4,128.5z"/>
		<path d="M-5.9,113.3l0.2-0.2h9.9l0.2,0.2v2.6L4.2,116h-6.8v4.4h6.5l0.2,0.2l-0.6,2.6l-0.2,0.2h-5.7v7.5l-0.2,0.2h-2.9l-0.2-0.2
			v-17.6H-5.9z"/>
		<path d="M7.8,113.3l0.2-0.2H18l0.2,0.2v2.6L18,116h-6.8v4.4h6.5l0.2,0.2l-0.6,2.6l-0.2,0.2h-5.8v7.5l-0.2,0.2H8.1L7.9,131
			L7.8,113.3L7.8,113.3z"/>
		<path d="M21.5,113.5l0.2-0.2l2.9-0.3l0.2,0.2V131l-0.2,0.2h-2.9l-0.2-0.2C21.5,131,21.5,113.5,21.5,113.5z"/>
		<path d="M28.9,119.6c0-4.4,2.9-6.7,7.5-6.7c5.5,0,6.9,4.1,6.9,4.1l-0.1,0.2l-2.6,1.1l-0.2-0.1c0,0-1-2.4-3.8-2.4
			c-2.4,0-4.2,1.4-4.2,4v4.7c0,2.7,1.8,3.9,4.2,3.9c3.4,0,4.2-2.5,4.2-2.5l0.2-0.1l2.6,1l0.1,0.2c0,0-1.1,4.3-7.1,4.3
			c-4.6,0-7.5-2.3-7.5-6.7L28.9,119.6L28.9,119.6z"/>
		<path d="M46.9,113.3l0.2-0.2h10.2l0.2,0.2v2.6l-0.2,0.2h-7.1v4.2h6.3l0.2,0.2L56,123l-0.2,0.2h-5.5v5.1h7.1l0.2,0.2l-0.4,2.6
			l-0.2,0.2h-9.9l-0.2-0.2V113.3z"/>
		<path d="M67,119.6c0-4.4,2.9-6.7,7.5-6.7c4.7,0,7.5,2.3,7.5,6.7v5.1c0,4.3-2.9,6.7-7.5,6.7c-4.6,0-7.5-2.3-7.5-6.7
			C67,124.7,67,119.6,67,119.6z M74.5,128.5c2.5,0,4.2-1.2,4.2-3.9v-4.7c0-2.6-1.8-4-4.2-4s-4.2,1.4-4.2,4v4.7
			C70.3,127.3,72.1,128.5,74.5,128.5z"/>
		<path d="M86,113.3l0.2-0.2h9.9l0.2,0.2v2.6l-0.2,0.2h-6.8v4.4h6.5l0.2,0.2l-0.6,2.6l-0.2,0.2h-5.7v7.5l-0.2,0.2h-2.9l-0.2-0.2
			v-17.6H86z"/>
		<path d="M105.9,113.4l0.2-0.2l2.6-0.3l0.2,0.1l7.5,10.7l1,1.7v-12l0.2-0.2l2.9-0.3l0.2,0.2v17.8l-0.2,0.2H118l-0.2-0.2l-7.5-10.8
			l-1-1.6v12.4l-0.2,0.2h-2.9l-0.2-0.2L105.9,113.4L105.9,113.4z"/>
		<path d="M129.6,113.5l0.2-0.2l3-0.3l0.2,0.2l6.4,17.8l-0.2,0.2h-3l-0.2-0.2l-1.4-4.1h-6.4l-1.4,4.1l-0.2,0.2h-3l-0.2-0.2
			L129.6,113.5z M133.6,124.1l-1.8-5.4l-0.5-1.8l-0.5,1.8l-1.8,5.4H133.6z"/>
		<path d="M144,116h-4.9l-0.2-0.2v-2.6l0.2-0.2h13.6l0.2,0.2l-0.6,2.6l-0.2,0.2h-4.6V131l-0.2,0.2h-3l-0.2-0.2L144,116L144,116z"/>
		<path d="M155.2,113.5l0.2-0.2l2.9-0.3l0.2,0.2V131l-0.2,0.2h-2.9l-0.2-0.2V113.5z"/>
		<path d="M162.6,119.6c0-4.4,2.9-6.7,7.5-6.7s7.5,2.3,7.5,6.7v5.1c0,4.3-2.9,6.7-7.5,6.7c-4.6,0-7.5-2.3-7.5-6.7V119.6z M170,128.5
			c2.5,0,4.2-1.2,4.2-3.9v-4.7c0-2.6-1.8-4-4.2-4s-4.2,1.4-4.2,4v4.7C165.8,127.3,167.6,128.5,170,128.5z"/>
		<path d="M181.6,113.4l0.2-0.2l2.6-0.3l0.2,0.1l7.5,10.7l1,1.7v-12l0.2-0.2l2.9-0.3l0.2,0.2v17.8l-0.2,0.2h-2.7l-0.2-0.2l-7.5-10.8
			l-1-1.6v12.4l-0.2,0.2h-2.9l-0.2-0.2L181.6,113.4L181.6,113.4z"/>
		<path d="M205.2,113.5l0.2-0.2l3-0.3l0.2,0.2l6.4,17.8l-0.2,0.2h-3l-0.2-0.2l-1.4-4.1h-6.4l-1.4,4.1l-0.2,0.2h-3L199,131
			L205.2,113.5z M209.2,124.1l-1.8-5.4l-0.5-1.8l-0.5,1.8l-1.8,5.4H209.2z"/>
		<path d="M217.4,113.5l0.2-0.2l2.9-0.3l0.2,0.2v15.1h7.6l0.2,0.2l-0.6,2.6l-0.2,0.2h-9.9l-0.2-0.2L217.4,113.5L217.4,113.5z"/>
	</g>
	<g class="st1">
		<path d="M-17.3,142.6l0.2-0.2l4.3-0.5l0.2,0.2l9.5,26.3l-0.2,0.2h-4.5l-0.2-0.2l-2-6h-9.5l-2,6l-0.2,0.2h-4.5l-0.2-0.2
			L-17.3,142.6z M-11.4,158.3l-2.6-7.9l-0.7-2.6l-0.7,2.6l-2.6,7.9H-11.4z"/>
		<path d="M-1.2,165.9l2.3-3h0.4c1.1,0.9,3.4,2,5.6,2c2.3,0,4.3-1,4.3-3.7c0-2.2-2.2-3.1-4.7-4.1c-3.3-1.3-7.1-2.7-7.1-7.5
			c0-4.9,4-7.9,8.7-7.9c4.7,0,7.7,2.3,7.7,2.3l0.1,0.4l-2.1,3.2l-0.4,0.1c0,0-2.1-1.7-5.1-1.7c-2.6,0-3.8,1.4-3.8,3.4
			s2.1,2.9,4.3,3.7c3.4,1.2,7.4,2.9,7.4,7.9c0,6.2-5.1,8-9.3,8c-4.5,0-8.3-2.8-8.3-2.8L-1.2,165.9z"/>
		<path d="M20,165.9l2.3-3h0.4c1.1,0.9,3.4,2,5.6,2c2.3,0,4.3-1,4.3-3.7c0-2.2-2.2-3.1-4.7-4.1c-3.3-1.3-7.1-2.7-7.1-7.5
			c0-4.9,4-7.9,8.7-7.9c4.7,0,7.7,2.3,7.7,2.3l0.1,0.4l-2.1,3.2l-0.4,0.1c0,0-2.1-1.7-5.1-1.7c-2.6,0-3.8,1.4-3.8,3.4
			s2.1,2.9,4.3,3.7c3.4,1.2,7.4,2.9,7.4,7.9c0,6.2-5.1,8-9.3,8c-4.5,0-8.3-2.8-8.3-2.8V165.9z"/>
		<path d="M43,142.3l0.2-0.2h15.1l0.2,0.2v3.8l-0.2,0.2H47.9v6.2h9.2l0.2,0.3l-1,3.8l-0.3,0.2h-8.1v7.5h10.6l0.2,0.3l-0.6,3.8
			l-0.3,0.2H43.2l-0.2-0.2V142.3z"/>
		<path d="M62.5,165.9l2.3-3h0.4c1.1,0.9,3.4,2,5.6,2c2.3,0,4.3-1,4.3-3.7c0-2.2-2.2-3.1-4.7-4.1c-3.3-1.3-7.1-2.7-7.1-7.5
			c0-4.9,4-7.9,8.7-7.9c4.7,0,7.7,2.3,7.7,2.3l0.1,0.4l-2.1,3.2l-0.4,0.1c0,0-2.1-1.7-5.1-1.7c-2.6,0-3.8,1.4-3.8,3.4
			s2.1,2.9,4.3,3.7c3.4,1.2,7.4,2.9,7.4,7.9c0,6.2-5.1,8-9.3,8c-4.5,0-8.3-2.8-8.3-2.8V165.9z"/>
		<path d="M83.6,165.9l2.3-3h0.4c1.1,0.9,3.4,2,5.6,2c2.3,0,4.3-1,4.3-3.7c0-2.2-2.2-3.1-4.7-4.1c-3.3-1.3-7.1-2.7-7.1-7.5
			c0-4.9,4-7.9,8.7-7.9c4.7,0,7.7,2.3,7.7,2.3l0.1,0.4l-2.1,3.2l-0.4,0.1c0,0-2.1-1.7-5.1-1.7c-2.6,0-3.8,1.4-3.8,3.4
			s2.1,2.9,4.3,3.7c3.4,1.2,7.4,2.9,7.4,7.9c0,6.2-5.1,8-9.3,8c-4.5,0-8.3-2.8-8.3-2.8L83.6,165.9z"/>
		<path d="M106.6,142.6l0.2-0.2l4.1-0.5l0.3,0.2l8.3,14.7l8.1-14.2l0.3-0.2l4.3-0.5l0.3,0.2v26.4l-0.2,0.2h-4.3l-0.2-0.2v-17.6
			l-1.4,2.9l-4.7,7.9l-0.3,0.2h-3.7l-0.3-0.2l-4.7-7.9l-1.3-2.6v17.5l-0.2,0.2H107l-0.2-0.2v-25.8H106.6z"/>
		<path d="M139.5,142.3l0.2-0.2h15.1l0.2,0.2v3.8l-0.2,0.2h-10.4v6.2h9.2l0.2,0.3l-1,3.8l-0.3,0.2h-8.1v7.5H155l0.2,0.3l-0.6,3.8
			l-0.3,0.2h-14.6l-0.2-0.2L139.5,142.3L139.5,142.3z"/>
		<path d="M161,142.5l0.2-0.2l3.9-0.5l0.3,0.2l11.1,15.9l1.5,2.5v-17.8l0.2-0.2l4.3-0.5l0.2,0.2v26.3l-0.2,0.2h-4l-0.3-0.2l-11.1-16
			l-1.4-2.3v18.4l-0.2,0.2h-4.3l-0.2-0.2V142.5z"/>
		<path d="M194.6,146.4h-7.2l-0.2-0.2v-3.8l0.2-0.2h20.1l0.2,0.3l-1,3.8l-0.3,0.2h-6.7v22l-0.2,0.2h-4.5l-0.2-0.2V146.4z"/>
		<path d="M209.1,165.9l2.3-3h0.4c1.1,0.9,3.4,2,5.6,2c2.3,0,4.3-1,4.3-3.7c0-2.2-2.2-3.1-4.7-4.1c-3.3-1.3-7.1-2.7-7.1-7.5
			c0-4.9,4-7.9,8.7-7.9c4.7,0,7.7,2.3,7.7,2.3l0.1,0.4l-2.1,3.2l-0.4,0.1c0,0-2.1-1.7-5.1-1.7c-2.6,0-3.8,1.4-3.8,3.4
			s2.1,2.9,4.3,3.7c3.4,1.2,7.4,2.9,7.4,7.9c0,6.2-5.1,8-9.3,8c-4.5,0-8.3-2.8-8.3-2.8L209.1,165.9z"/>
	</g>
</g>
</svg>
