<?xml version="1.0" encoding="utf-8"?>
<!-- Generator: Adobe Illustrator 19.1.0, SVG Export Plug-In . SVG Version: 6.00 Build 0)  -->
<svg version="1.1" id="Layer_1" xmlns="http://www.w3.org/2000/svg" xmlns:xlink="http://www.w3.org/1999/xlink" x="0px" y="0px"
	 viewBox="-99 0 400 200" style="enable-background:new -99 0 400 200;" xml:space="preserve">
<style type="text/css">
	.st0{fill:#FFFFFF;}
	.st1{enable-background:new    ;}
</style>
<g>
	<path d="M71,150.1l-108.2,23.8c-3.5,0.8-6.8-1.9-6.8-5.4V26H79.9v113.2C79.9,144.4,76.2,149,71,150.1z"/>
	<path id="VabjlB.tif" class="st0" d="M18.7,43.5c-0.2,2.9-0.2,5.1-0.7,7.2c-0.5,2.6-2.6,4.3-4.5,6.1C7,63,0.6,69.3-5.9,75.5
		c-3.1,3-6.4,6-9.6,9c-1.8,1.7-3.5,1.8-5.5,0.2c-1.6-1.2-3-2.7-4.5-4.1c-2.3-2.1-4.5-4.5-6.8-6.6c-1.8-1.7-2.5-3.7-2.5-6.1
		c0.1-3.1,0.2-6.2,0.2-9.4c0-0.8,1-1.8,1.8-2c0.4-0.1,2.1,0.3,2.8,1c2.7,2.6,5.4,5.1,8.2,7.7c0.9,0.8,2.1,1.5,3.1,2.4
		c0.6,0.5,1,0.4,1.5-0.2c3.4-3.3,6.8-6.6,10.2-9.9c6.4-6.2,12.8-12.5,19.3-18.7c1.1-1.1,2.3-1.8,3.9-1.5c0.5,0.1,1.2,0.5,1.3,0.9
		C18,40.3,18.4,42.2,18.7,43.5z"/>
	<g class="st1">
		<path class="st0" d="M-21.1,115.8h-5.4v8.2c0,1.2-0.3,2.1-0.8,2.7s-1.2,0.9-2.1,0.9c-0.9,0-1.6-0.3-2.1-0.9
			c-0.5-0.6-0.8-1.5-0.8-2.6v-22.3c0-1.3,0.3-2.2,0.9-2.8c0.6-0.5,1.5-0.8,2.8-0.8h7.5c2.2,0,3.9,0.2,5.1,0.5
			c1.2,0.3,2.2,0.8,3.1,1.6c0.8,0.8,1.5,1.7,2,2.8c0.5,1.1,0.7,2.4,0.7,3.8c0,2.9-0.9,5.2-2.8,6.7C-14.8,115-17.5,115.8-21.1,115.8z
			 M-22.5,102.5h-4v8.8h4c1.4,0,2.5-0.2,3.5-0.5c0.9-0.3,1.6-0.8,2.1-1.5c0.5-0.7,0.8-1.5,0.8-2.6c0-1.3-0.4-2.3-1.2-3.1
			C-18.2,102.9-19.9,102.5-22.5,102.5z M5.2,115.8h-5.4v8.2c0,1.2-0.3,2.1-0.8,2.7s-1.2,0.9-2.1,0.9c-0.9,0-1.6-0.3-2.1-0.9
			s-0.8-1.5-0.8-2.6v-22.3c0-1.3,0.3-2.2,0.9-2.8c0.6-0.5,1.5-0.8,2.8-0.8h7.5c2.2,0,3.9,0.2,5.1,0.5c1.2,0.3,2.2,0.8,3.1,1.6
			c0.8,0.8,1.5,1.7,2,2.8c0.5,1.1,0.7,2.4,0.7,3.8c0,2.9-0.9,5.2-2.8,6.7C11.5,115,8.8,115.8,5.2,115.8z M3.7,102.5h-4v8.8h4
			c1.4,0,2.5-0.2,3.5-0.5c0.9-0.3,1.6-0.8,2.1-1.5c0.5-0.7,0.8-1.5,0.8-2.6c0-1.3-0.4-2.3-1.2-3.1C8.1,102.9,6.4,102.5,3.7,102.5z
			 M42.3,118.3c0,1.8-0.5,3.3-1.4,4.8c-0.9,1.4-2.2,2.5-4,3.3c-1.8,0.8-3.8,1.2-6.2,1.2c-2.8,0-5.2-0.5-7.1-1.6
			c-1.3-0.8-2.4-1.8-3.2-3.1c-0.8-1.3-1.2-2.5-1.2-3.8c0-0.7,0.2-1.3,0.8-1.8c0.5-0.5,1.2-0.8,1.9-0.8c0.6,0,1.2,0.2,1.5,0.6
			c0.5,0.4,0.8,1,1.1,1.8c0.4,0.9,0.8,1.7,1.2,2.3s1,1.2,1.8,1.5c0.8,0.4,1.8,0.6,3.1,0.6c1.8,0,3.1-0.4,4.2-1.2
			c1.1-0.8,1.6-1.8,1.6-3.1c0-1-0.3-1.8-0.8-2.4c-0.6-0.6-1.4-1.1-2.3-1.4c-0.9-0.3-2.1-0.7-3.8-1c-2.1-0.5-3.8-1.1-5.2-1.7
			c-1.4-0.6-2.5-1.5-3.4-2.7c-0.8-1.2-1.2-2.5-1.2-4.2c0-1.6,0.5-3,1.3-4.2s2.1-2.2,3.8-2.8c1.6-0.7,3.6-1,5.8-1
			c1.8,0,3.3,0.2,4.6,0.7c1.3,0.5,2.4,1,3.2,1.8c0.8,0.8,1.5,1.5,1.8,2.3c0.4,0.8,0.6,1.6,0.6,2.4c0,0.7-0.2,1.3-0.8,1.9
			c-0.5,0.5-1.1,0.8-1.8,0.8c-0.7,0-1.2-0.2-1.5-0.5c-0.4-0.3-0.8-0.9-1.2-1.7c-0.5-1.1-1.2-1.9-1.9-2.5c-0.8-0.6-1.9-0.9-3.5-0.9
			c-1.5,0-2.8,0.3-3.7,1s-1.4,1.5-1.4,2.4c0,0.6,0.2,1.1,0.5,1.5c0.3,0.5,0.8,0.8,1.3,1.1c0.5,0.3,1.2,0.5,1.7,0.7
			c0.5,0.2,1.5,0.4,2.8,0.8c1.6,0.4,3.1,0.8,4.5,1.2c1.3,0.5,2.5,1,3.4,1.7c0.9,0.7,1.7,1.5,2.1,2.5C42,115.7,42.3,116.9,42.3,118.3
			z M54.4,114.7h-2.1v9.3c0,1.2-0.3,2.1-0.8,2.7c-0.5,0.6-1.2,0.8-2.1,0.8c-0.9,0-1.7-0.3-2.1-0.9c-0.5-0.6-0.8-1.5-0.8-2.7v-22.3
			c0-1.2,0.3-2.1,0.8-2.8c0.5-0.5,1.5-0.8,2.8-0.8h9.5c1.3,0,2.5,0.1,3.4,0.2c0.9,0.1,1.8,0.3,2.5,0.7c0.9,0.4,1.7,0.9,2.4,1.6
			c0.7,0.7,1.2,1.5,1.6,2.5s0.5,1.9,0.5,3c0,2.1-0.6,3.9-1.8,5.2c-1.2,1.3-3.1,2.2-5.5,2.8c1.1,0.5,2.1,1.4,3,2.5
			c0.9,1.1,1.8,2.2,2.5,3.5c0.8,1.2,1.3,2.3,1.8,3.3c0.4,1,0.6,1.7,0.6,2c0,0.4-0.2,0.8-0.4,1.2c-0.2,0.4-0.6,0.7-1,0.9
			c-0.4,0.2-0.9,0.3-1.5,0.3c-0.7,0-1.2-0.2-1.7-0.5c-0.5-0.3-0.8-0.7-1.2-1.2c-0.3-0.5-0.8-1.2-1.3-2.1l-2.4-3.9
			c-0.8-1.5-1.6-2.5-2.3-3.3s-1.3-1.2-2-1.5C56.3,114.8,55.5,114.7,54.4,114.7L54.4,114.7z M57.8,102.5h-5.4v8h5.3
			c1.4,0,2.6-0.2,3.5-0.4c1-0.2,1.7-0.7,2.2-1.2c0.5-0.6,0.8-1.4,0.8-2.5c0-0.8-0.2-1.5-0.6-2.1c-0.4-0.6-1-1.1-1.7-1.4
			C61.1,102.6,59.8,102.5,57.8,102.5L57.8,102.5z"/>
	</g>
	<path d="M93.3,101.8H91v3.5c0,0.5-0.2,0.8-0.4,1.2c-0.2,0.2-0.5,0.4-0.9,0.4s-0.7-0.2-0.9-0.4s-0.3-0.6-0.3-1.2v-9.4
		c0-0.5,0.2-0.9,0.4-1.2c0.2-0.2,0.6-0.4,1.2-0.4h3.1c0.9,0,1.7,0.1,2.1,0.2c0.5,0.2,0.9,0.4,1.3,0.7c0.4,0.3,0.6,0.7,0.8,1.2
		c0.2,0.5,0.3,1,0.3,1.6c0,1.2-0.4,2.2-1.2,2.8C95.9,101.5,94.7,101.8,93.3,101.8L93.3,101.8z M92.7,96.2H91v3.8h1.7
		c0.6,0,1.1-0.1,1.5-0.2c0.4-0.1,0.7-0.3,0.9-0.6c0.2-0.3,0.3-0.6,0.3-1.1c0-0.5-0.2-1-0.5-1.3C94.5,96.3,93.7,96.2,92.7,96.2
		L92.7,96.2z M105.5,102.7H101c0,0.5,0.1,1,0.3,1.4c0.2,0.4,0.5,0.7,0.8,0.9c0.3,0.2,0.7,0.3,1.2,0.3c0.3,0,0.5,0,0.8-0.1
		c0.2-0.1,0.5-0.2,0.7-0.3s0.4-0.3,0.6-0.5c0.2-0.2,0.4-0.4,0.7-0.6c0.2-0.1,0.3-0.2,0.5-0.2s0.5,0.1,0.5,0.2
		c0.1,0.2,0.2,0.3,0.2,0.5c0,0.2-0.1,0.5-0.2,0.7s-0.4,0.5-0.8,0.8c-0.3,0.2-0.8,0.5-1.2,0.6s-1.1,0.2-1.7,0.2
		c-1.5,0-2.6-0.4-3.5-1.2s-1.2-2-1.2-3.4c0-0.7,0.1-1.3,0.3-1.8c0.2-0.5,0.5-1.1,0.8-1.5c0.4-0.4,0.8-0.7,1.5-0.9
		c0.5-0.2,1.2-0.3,1.8-0.3c0.9,0,1.7,0.2,2.3,0.5s1.2,0.8,1.5,1.5c0.3,0.6,0.5,1.2,0.5,1.8c0,0.5-0.2,0.9-0.5,1.2
		C106.6,102.6,106.1,102.7,105.5,102.7L105.5,102.7z M101,101.4h4.1c-0.1-0.8-0.2-1.4-0.6-1.8c-0.4-0.4-0.8-0.6-1.5-0.6
		c-0.5,0-1,0.2-1.4,0.6S101.1,100.6,101,101.4z M111.6,103.5v1.9c0,0.5-0.1,0.8-0.3,1.1c-0.2,0.2-0.5,0.4-0.8,0.4
		c-0.3,0-0.6-0.2-0.8-0.4c-0.2-0.2-0.3-0.6-0.3-1v-6.4c0-1,0.4-1.5,1.1-1.5c0.4,0,0.6,0.2,0.8,0.4c0.2,0.2,0.2,0.6,0.3,1.1
		c0.3-0.5,0.5-0.8,0.8-1.1c0.3-0.2,0.7-0.4,1.2-0.4s0.9,0.2,1.4,0.4c0.5,0.2,0.7,0.5,0.7,0.9c0,0.3-0.1,0.5-0.3,0.7
		c-0.2,0.2-0.4,0.3-0.6,0.3c-0.1,0-0.3-0.1-0.6-0.2c-0.3-0.1-0.6-0.2-0.8-0.2c-0.3,0-0.6,0.1-0.8,0.2c-0.2,0.2-0.4,0.5-0.5,0.8
		c-0.1,0.3-0.2,0.8-0.2,1.2C111.6,102.2,111.6,102.8,111.6,103.5L111.6,103.5z M123.7,103.8c0,0.6-0.2,1.2-0.5,1.6
		c-0.3,0.5-0.8,0.8-1.4,1s-1.3,0.4-2.1,0.4s-1.5-0.2-2.1-0.4c-0.5-0.2-1-0.5-1.3-0.9c-0.3-0.4-0.4-0.8-0.4-1.2
		c0-0.2,0.1-0.5,0.2-0.6s0.4-0.2,0.7-0.2c0.2,0,0.5,0.1,0.5,0.2c0.2,0.2,0.2,0.3,0.4,0.5c0.2,0.4,0.5,0.7,0.8,0.9
		c0.3,0.2,0.8,0.3,1.3,0.3c0.5,0,0.8-0.1,1.2-0.3c0.3-0.2,0.5-0.5,0.5-0.7c0-0.4-0.2-0.7-0.5-0.8c-0.3-0.2-0.8-0.4-1.5-0.5
		c-0.8-0.2-1.5-0.4-1.9-0.6c-0.5-0.2-0.9-0.5-1.2-0.8c-0.2-0.4-0.5-0.8-0.5-1.3c0-0.5,0.2-0.9,0.4-1.3c0.3-0.4,0.7-0.8,1.2-1
		c0.5-0.2,1.2-0.4,1.9-0.4c0.6,0,1.2,0.1,1.6,0.2c0.5,0.2,0.8,0.3,1.2,0.5c0.3,0.2,0.5,0.5,0.7,0.7c0.2,0.2,0.2,0.5,0.2,0.8
		c0,0.2-0.1,0.5-0.2,0.6c-0.2,0.2-0.5,0.2-0.8,0.2c-0.2,0-0.5-0.1-0.6-0.2c-0.2-0.2-0.4-0.3-0.5-0.6c-0.2-0.2-0.4-0.4-0.6-0.5
		c-0.2-0.2-0.5-0.2-0.9-0.2s-0.8,0.1-1,0.2c-0.2,0.2-0.4,0.4-0.4,0.7c0,0.2,0.1,0.5,0.3,0.6c0.2,0.2,0.5,0.3,0.8,0.4
		c0.3,0.1,0.8,0.2,1.4,0.4c0.7,0.2,1.3,0.4,1.8,0.6c0.5,0.2,0.8,0.5,1,0.8C123.6,103,123.7,103.4,123.7,103.8z M134.2,102.2
		c0,0.7-0.1,1.3-0.3,1.9c-0.2,0.5-0.5,1.1-0.9,1.5c-0.4,0.4-0.8,0.7-1.5,0.9c-0.5,0.2-1.2,0.3-1.8,0.3c-0.7,0-1.3-0.1-1.8-0.3
		c-0.5-0.2-1-0.5-1.5-0.9s-0.7-0.9-0.9-1.5s-0.3-1.2-0.3-1.8c0-0.7,0.1-1.3,0.3-1.9c0.2-0.5,0.5-1.1,0.9-1.5
		c0.4-0.4,0.8-0.7,1.5-0.9c0.5-0.2,1.2-0.3,1.8-0.3c0.7,0,1.3,0.1,1.8,0.3s1.1,0.5,1.5,0.9c0.4,0.4,0.7,0.9,0.9,1.5
		C134,100.9,134.2,101.5,134.2,102.2z M131.9,102.2c0-0.9-0.2-1.7-0.6-2.1c-0.4-0.5-1-0.8-1.7-0.8c-0.5,0-0.8,0.2-1.2,0.4
		c-0.3,0.2-0.6,0.5-0.8,1c-0.2,0.5-0.3,1-0.3,1.6c0,0.6,0.1,1.2,0.3,1.5c0.2,0.5,0.5,0.8,0.8,1c0.3,0.2,0.8,0.4,1.2,0.4
		c0.7,0,1.2-0.2,1.7-0.8C131.8,103.8,131.9,103.1,131.9,102.2z M138,98.8v0.3c0.4-0.5,0.8-0.9,1.3-1.2c0.5-0.2,1-0.4,1.6-0.4
		c0.6,0,1.2,0.2,1.6,0.4c0.5,0.2,0.8,0.6,1.1,1.1c0.2,0.3,0.2,0.6,0.3,0.9c0.1,0.3,0.1,0.8,0.1,1.2v4.2c0,0.5-0.1,0.8-0.3,1
		s-0.5,0.4-0.8,0.4c-0.3,0-0.6-0.2-0.8-0.4c-0.2-0.2-0.3-0.6-0.3-1v-3.8c0-0.8-0.1-1.3-0.3-1.7s-0.6-0.6-1.2-0.6
		c-0.4,0-0.8,0.2-1.1,0.4s-0.6,0.5-0.8,1c-0.1,0.3-0.2,1-0.2,1.9v2.8c0,0.5-0.1,0.8-0.3,1.1c-0.2,0.2-0.5,0.4-0.8,0.4
		c-0.3,0-0.6-0.2-0.8-0.4c-0.2-0.2-0.3-0.6-0.3-1v-6.6c0-0.5,0.1-0.8,0.3-1c0.2-0.2,0.5-0.3,0.8-0.3c0.2,0,0.4,0.1,0.5,0.2
		c0.2,0.1,0.3,0.2,0.4,0.5C137.9,98.2,138,98.5,138,98.8z M152.1,105.5c-0.5,0.5-1.1,0.8-1.6,1c-0.5,0.2-1.1,0.3-1.8,0.3
		c-0.6,0-1.1-0.2-1.5-0.4s-0.8-0.5-1-0.9c-0.2-0.4-0.4-0.8-0.4-1.3c0-0.6,0.2-1.2,0.6-1.6s0.9-0.8,1.6-0.9c0.2,0,0.5-0.1,1.1-0.2
		c0.5-0.2,1.1-0.2,1.5-0.3s0.8-0.2,1.3-0.4c0-0.6-0.2-1.1-0.4-1.3c-0.2-0.2-0.7-0.4-1.3-0.4c-0.6,0-1,0.1-1.3,0.2
		c-0.3,0.2-0.5,0.4-0.8,0.7c-0.2,0.3-0.4,0.5-0.5,0.6s-0.3,0.2-0.5,0.2c-0.2,0-0.5-0.1-0.7-0.2c-0.2-0.2-0.3-0.4-0.3-0.6
		c0-0.4,0.2-0.8,0.5-1.2s0.7-0.7,1.3-0.9c0.6-0.2,1.4-0.4,2.2-0.4c1,0,1.8,0.2,2.4,0.4c0.5,0.2,1,0.6,1.2,1.2
		c0.2,0.5,0.4,1.2,0.4,2.1v2.6c0,0.5,0.1,0.8,0.2,1.3c0.2,0.5,0.2,0.8,0.2,0.9c0,0.2-0.1,0.5-0.3,0.6c-0.2,0.2-0.5,0.3-0.8,0.3
		c-0.2,0-0.5-0.1-0.7-0.3C152.5,106.2,152.3,105.9,152.1,105.5z M151.9,102.2c-0.3,0.2-0.8,0.2-1.5,0.4c-0.6,0.2-1.1,0.2-1.3,0.3
		c-0.2,0.1-0.5,0.2-0.7,0.4c-0.2,0.2-0.3,0.5-0.3,0.8c0,0.4,0.2,0.6,0.4,0.8c0.2,0.2,0.6,0.4,1,0.4c0.5,0,0.8-0.1,1.2-0.3
		s0.7-0.5,0.8-0.8c0.2-0.4,0.3-0.9,0.3-1.7L151.9,102.2L151.9,102.2z M156.4,105.4v-9.9c0-0.5,0.1-0.8,0.3-1.1
		c0.2-0.2,0.5-0.4,0.8-0.4s0.6,0.2,0.8,0.4s0.3,0.6,0.3,1.1v9.9c0,0.5-0.1,0.8-0.3,1.1c-0.2,0.2-0.5,0.4-0.8,0.4
		c-0.3,0-0.6-0.2-0.8-0.4C156.6,106.1,156.4,105.8,156.4,105.4z M170.2,101.8h-2.3v3.5c0,0.5-0.2,0.8-0.4,1.2
		c-0.2,0.2-0.5,0.4-0.9,0.4c-0.4,0-0.7-0.2-0.9-0.4c-0.2-0.2-0.3-0.6-0.3-1.2v-9.4c0-0.5,0.2-0.9,0.4-1.2c0.2-0.2,0.6-0.4,1.2-0.4
		h3.1c0.9,0,1.7,0.1,2.1,0.2c0.5,0.2,0.9,0.4,1.3,0.7c0.4,0.3,0.6,0.7,0.8,1.2c0.2,0.5,0.3,1,0.3,1.6c0,1.2-0.4,2.2-1.2,2.8
		C172.9,101.5,171.8,101.8,170.2,101.8z M169.7,96.2H168v3.8h1.7c0.6,0,1.1-0.1,1.5-0.2c0.4-0.1,0.7-0.3,0.9-0.6
		c0.2-0.3,0.3-0.6,0.3-1.1c0-0.5-0.2-1-0.5-1.3C171.6,96.3,170.8,96.2,169.7,96.2z M179.1,103.5v1.9c0,0.5-0.1,0.8-0.3,1.1
		c-0.2,0.2-0.5,0.4-0.8,0.4c-0.3,0-0.6-0.2-0.8-0.4c-0.2-0.2-0.3-0.6-0.3-1v-6.4c0-1,0.4-1.5,1.1-1.5c0.4,0,0.6,0.2,0.8,0.4
		c0.2,0.2,0.2,0.6,0.3,1.1c0.3-0.5,0.5-0.8,0.8-1.1c0.3-0.2,0.7-0.4,1.2-0.4c0.5,0,0.9,0.2,1.4,0.4c0.5,0.2,0.7,0.5,0.7,0.9
		c0,0.3-0.1,0.5-0.3,0.7c-0.2,0.2-0.4,0.3-0.6,0.3c-0.1,0-0.3-0.1-0.6-0.2s-0.6-0.2-0.8-0.2c-0.3,0-0.6,0.1-0.8,0.2
		c-0.2,0.2-0.4,0.5-0.5,0.8c-0.1,0.3-0.2,0.8-0.2,1.2C179.1,102.2,179.1,102.8,179.1,103.5z M192.2,102.2c0,0.7-0.1,1.3-0.3,1.9
		c-0.2,0.5-0.5,1.1-0.9,1.5s-0.8,0.7-1.5,0.9c-0.5,0.2-1.2,0.3-1.9,0.3c-0.7,0-1.3-0.1-1.8-0.3c-0.5-0.2-1-0.5-1.5-0.9
		s-0.7-0.9-0.9-1.5c-0.2-0.5-0.3-1.2-0.3-1.8c0-0.7,0.1-1.3,0.3-1.9c0.2-0.5,0.5-1.1,0.9-1.5s0.8-0.7,1.5-0.9
		c0.6-0.2,1.2-0.3,1.8-0.3c0.7,0,1.3,0.1,1.9,0.3c0.5,0.2,1.1,0.5,1.5,0.9s0.7,0.9,0.9,1.5C192,100.9,192.2,101.5,192.2,102.2z
		 M189.9,102.2c0-0.9-0.2-1.7-0.6-2.1c-0.4-0.5-1-0.8-1.7-0.8c-0.5,0-0.8,0.2-1.2,0.4c-0.3,0.2-0.6,0.5-0.8,1s-0.3,1-0.3,1.6
		c0,0.6,0.1,1.2,0.3,1.5c0.2,0.5,0.5,0.8,0.8,1c0.3,0.2,0.8,0.4,1.2,0.4c0.7,0,1.2-0.2,1.7-0.8C189.8,103.8,189.9,103.1,189.9,102.2
		L189.9,102.2z M196.1,98.8v0.3c0.5-0.5,0.8-0.9,1.3-1.2s1-0.4,1.5-0.4c0.7,0,1.4,0.2,1.9,0.5c0.6,0.4,1.1,0.9,1.4,1.6
		c0.3,0.7,0.5,1.5,0.5,2.5c0,0.7-0.1,1.4-0.3,1.9c-0.2,0.6-0.5,1.1-0.8,1.5s-0.8,0.7-1.2,0.9c-0.5,0.2-1,0.3-1.5,0.3
		c-0.6,0-1.2-0.2-1.6-0.4c-0.5-0.2-0.8-0.6-1.2-1.2v3.5c0,1-0.4,1.5-1.1,1.5c-0.5,0-0.7-0.2-0.8-0.4c-0.2-0.2-0.2-0.6-0.2-1.2v-9.9
		c0-0.5,0.1-0.8,0.3-1c0.2-0.2,0.5-0.3,0.8-0.3c0.3,0,0.6,0.1,0.8,0.3C195.9,98,196.1,98.4,196.1,98.8z M200.6,102.1
		c0-0.6-0.1-1.2-0.3-1.5c-0.2-0.5-0.5-0.8-0.8-1c-0.3-0.2-0.7-0.4-1.1-0.4c-0.6,0-1.2,0.2-1.6,0.8c-0.5,0.5-0.6,1.2-0.6,2.2
		c0,0.9,0.2,1.6,0.6,2.1c0.5,0.5,1,0.8,1.6,0.8c0.4,0,0.8-0.1,1.1-0.3c0.3-0.2,0.6-0.5,0.8-1C200.4,103.2,200.6,102.7,200.6,102.1z
		 M211,102.7h-4.5c0,0.5,0.1,1,0.3,1.4c0.2,0.4,0.5,0.7,0.8,0.9c0.3,0.2,0.7,0.3,1.2,0.3c0.3,0,0.5,0,0.8-0.1
		c0.2-0.1,0.5-0.2,0.7-0.3c0.2-0.2,0.4-0.3,0.6-0.5c0.2-0.2,0.4-0.4,0.7-0.6c0.2-0.1,0.3-0.2,0.5-0.2c0.2,0,0.5,0.1,0.5,0.2
		c0.1,0.2,0.2,0.3,0.2,0.5c0,0.2-0.1,0.5-0.2,0.7c-0.2,0.3-0.4,0.5-0.8,0.8c-0.3,0.2-0.8,0.5-1.2,0.6s-1.1,0.2-1.7,0.2
		c-1.5,0-2.6-0.4-3.5-1.2s-1.2-2-1.2-3.4c0-0.7,0.1-1.3,0.3-1.8c0.2-0.5,0.5-1.1,0.8-1.5c0.4-0.4,0.8-0.7,1.5-0.9
		c0.5-0.2,1.2-0.3,1.8-0.3c0.9,0,1.7,0.2,2.3,0.5c0.6,0.4,1.2,0.8,1.5,1.5s0.5,1.2,0.5,1.8c0,0.5-0.2,0.9-0.5,1.2
		C212.1,102.6,211.6,102.7,211,102.7L211,102.7z M206.5,101.4h4.1c-0.1-0.8-0.2-1.4-0.6-1.8s-0.8-0.6-1.5-0.6c-0.5,0-1,0.2-1.4,0.6
		S206.6,100.6,206.5,101.4L206.5,101.4z M217.1,103.5v1.9c0,0.5-0.1,0.8-0.3,1.1c-0.2,0.2-0.5,0.4-0.8,0.4c-0.3,0-0.6-0.2-0.8-0.4
		c-0.2-0.2-0.3-0.6-0.3-1v-6.4c0-1,0.4-1.5,1.1-1.5c0.4,0,0.6,0.2,0.8,0.4c0.2,0.2,0.2,0.6,0.3,1.1c0.3-0.5,0.5-0.8,0.8-1.1
		c0.3-0.2,0.7-0.4,1.2-0.4s0.9,0.2,1.4,0.4c0.5,0.2,0.7,0.5,0.7,0.9c0,0.3-0.1,0.5-0.3,0.7c-0.2,0.2-0.4,0.3-0.6,0.3
		c-0.1,0-0.3-0.1-0.6-0.2c-0.3-0.1-0.6-0.2-0.8-0.2c-0.3,0-0.6,0.1-0.8,0.2c-0.2,0.2-0.4,0.5-0.5,0.8c-0.2,0.3-0.2,0.8-0.2,1.2
		S217.1,102.8,217.1,103.5z M222.7,97.7h0.2v-1.4v-0.8c0-0.2,0.1-0.4,0.2-0.5c0.1-0.2,0.2-0.3,0.4-0.4c0.2-0.1,0.4-0.2,0.5-0.2
		c0.3,0,0.5,0.1,0.8,0.3c0.2,0.2,0.2,0.3,0.3,0.5c0.1,0.2,0.1,0.5,0.1,0.9v1.5h0.8c0.3,0,0.5,0.1,0.8,0.2c0.2,0.2,0.2,0.4,0.2,0.6
		c0,0.3-0.2,0.5-0.4,0.6c-0.2,0.2-0.6,0.2-1.1,0.2H225v5.1c0,0.2,0.1,0.4,0.2,0.5c0.1,0.2,0.3,0.2,0.5,0.2c0.2,0,0.3,0,0.5-0.1
		c0.2-0.1,0.4-0.1,0.5-0.1c0.2,0,0.4,0.1,0.5,0.2c0.2,0.2,0.2,0.3,0.2,0.5c0,0.4-0.2,0.6-0.6,0.8s-1,0.3-1.8,0.3
		c-0.7,0-1.2-0.2-1.6-0.4s-0.6-0.5-0.7-1s-0.2-1-0.2-1.7v-4.4h-0.3c-0.3,0-0.6-0.1-0.8-0.2c-0.2-0.2-0.2-0.4-0.2-0.6
		c0-0.2,0.1-0.5,0.3-0.6C222,97.8,222.3,97.7,222.7,97.7L222.7,97.7z M230.7,107.1l0.2-0.5l-2.8-7.1c-0.2-0.4-0.2-0.7-0.2-0.9
		c0-0.2,0.1-0.4,0.2-0.5c0.1-0.2,0.2-0.3,0.4-0.4c0.2-0.1,0.4-0.2,0.5-0.2c0.3,0,0.6,0.1,0.8,0.3c0.2,0.2,0.3,0.5,0.5,0.9l1.9,5.6
		l1.8-5.2c0.2-0.5,0.3-0.8,0.4-1c0.2-0.2,0.2-0.4,0.4-0.5c0.2-0.1,0.3-0.2,0.5-0.2c0.2,0,0.3,0.1,0.5,0.2c0.2,0.1,0.3,0.2,0.4,0.4
		c0.1,0.2,0.2,0.3,0.2,0.5c0,0.1-0.1,0.2-0.1,0.5c-0.1,0.2-0.1,0.4-0.2,0.6l-3,7.7c-0.2,0.7-0.5,1.2-0.8,1.6c-0.2,0.4-0.5,0.7-1,0.9
		c-0.4,0.2-0.9,0.3-1.6,0.3s-1.2-0.1-1.5-0.2c-0.3-0.2-0.5-0.4-0.5-0.8c0-0.2,0.1-0.5,0.2-0.6s0.4-0.2,0.7-0.2c0.2,0,0.2,0,0.4,0.1
		c0.2,0,0.3,0.1,0.4,0.1c0.2,0,0.5-0.1,0.6-0.2c0.2-0.1,0.3-0.2,0.4-0.4C230.4,107.7,230.6,107.5,230.7,107.1z M97.8,123.4
		c0,0.8-0.2,1.4-0.5,2s-0.9,1.1-1.7,1.4c-0.8,0.3-1.6,0.5-2.6,0.5c-1.2,0-2.2-0.2-3-0.7c-0.5-0.3-1-0.8-1.4-1.3
		c-0.4-0.5-0.5-1.1-0.5-1.6c0-0.3,0.1-0.5,0.3-0.8s0.5-0.3,0.8-0.3c0.2,0,0.5,0.1,0.7,0.2c0.2,0.2,0.3,0.4,0.5,0.8s0.3,0.7,0.5,1
		c0.2,0.2,0.5,0.5,0.8,0.6c0.3,0.2,0.8,0.2,1.3,0.2c0.8,0,1.3-0.2,1.8-0.5c0.5-0.3,0.7-0.8,0.7-1.3c0-0.4-0.2-0.8-0.4-1
		c-0.2-0.2-0.5-0.5-1-0.6c-0.4-0.2-0.9-0.3-1.6-0.5c-0.8-0.2-1.6-0.5-2.2-0.7c-0.6-0.3-1.1-0.6-1.4-1.2c-0.4-0.5-0.5-1.1-0.5-1.8
		c0-0.7,0.2-1.3,0.5-1.8c0.4-0.5,0.9-0.9,1.6-1.2c0.7-0.3,1.5-0.4,2.5-0.4c0.8,0,1.4,0.1,1.9,0.3c0.5,0.2,1,0.5,1.4,0.8
		c0.4,0.3,0.6,0.6,0.8,1c0.2,0.4,0.2,0.7,0.2,1c0,0.3-0.1,0.5-0.3,0.8s-0.5,0.4-0.8,0.4c-0.3,0-0.5-0.1-0.6-0.2
		c-0.2-0.2-0.3-0.4-0.5-0.7c-0.2-0.5-0.5-0.8-0.8-1.1c-0.3-0.2-0.8-0.4-1.5-0.4c-0.6,0-1.2,0.2-1.5,0.4s-0.6,0.6-0.6,1
		c0,0.2,0.1,0.5,0.2,0.6s0.3,0.3,0.5,0.5c0.2,0.2,0.5,0.2,0.7,0.3c0.2,0.1,0.6,0.2,1.2,0.3c0.7,0.2,1.3,0.3,1.8,0.5
		c0.5,0.2,1.1,0.5,1.5,0.7s0.7,0.6,0.9,1.1C97.7,122.3,97.8,122.8,97.8,123.4L97.8,123.4z M106.1,123.3h-4.5c0,0.5,0.1,1,0.3,1.4
		s0.5,0.7,0.8,0.9c0.3,0.2,0.7,0.3,1.2,0.3c0.3,0,0.5,0,0.8-0.1c0.2-0.1,0.5-0.2,0.7-0.3c0.2-0.2,0.4-0.3,0.6-0.5
		c0.2-0.2,0.4-0.4,0.7-0.6c0.2-0.1,0.3-0.2,0.5-0.2s0.5,0.1,0.5,0.2s0.2,0.3,0.2,0.5c0,0.2-0.1,0.5-0.2,0.7
		c-0.2,0.2-0.4,0.5-0.8,0.8c-0.3,0.2-0.8,0.5-1.2,0.6c-0.5,0.2-1.1,0.2-1.7,0.2c-1.5,0-2.6-0.4-3.5-1.2c-0.8-0.8-1.2-2-1.2-3.4
		c0-0.7,0.1-1.3,0.3-1.8c0.2-0.5,0.5-1.1,0.8-1.5s0.8-0.7,1.5-0.9c0.5-0.2,1.2-0.3,1.8-0.3c0.9,0,1.7,0.2,2.3,0.5
		c0.6,0.4,1.2,0.8,1.5,1.5c0.3,0.6,0.5,1.2,0.5,1.8c0,0.5-0.2,0.9-0.5,1.2C107.2,123.1,106.7,123.3,106.1,123.3L106.1,123.3z
		 M101.7,122h4.1c-0.1-0.8-0.2-1.4-0.6-1.8c-0.4-0.4-0.8-0.6-1.5-0.6c-0.5,0-1,0.2-1.4,0.6S101.7,121.2,101.7,122z M118.1,124.5
		c0,0.3-0.1,0.6-0.2,0.9c-0.2,0.3-0.5,0.6-0.8,0.9c-0.4,0.3-0.8,0.5-1.3,0.7c-0.5,0.2-1.2,0.2-1.8,0.2c-1.4,0-2.5-0.4-3.3-1.2
		c-0.8-0.8-1.2-1.9-1.2-3.3c0-0.9,0.2-1.8,0.5-2.5c0.4-0.7,0.9-1.3,1.5-1.7c0.7-0.4,1.5-0.6,2.5-0.6c0.6,0,1.2,0.1,1.6,0.2
		s0.9,0.4,1.2,0.7c0.3,0.3,0.6,0.5,0.8,0.8c0.2,0.3,0.3,0.6,0.3,0.8c0,0.3-0.1,0.5-0.3,0.7c-0.2,0.2-0.5,0.3-0.8,0.3
		c-0.2,0-0.4-0.1-0.5-0.2c-0.2-0.1-0.2-0.2-0.4-0.5c-0.3-0.5-0.5-0.8-0.8-0.9c-0.3-0.2-0.7-0.3-1.2-0.3c-0.7,0-1.2,0.2-1.6,0.8
		c-0.4,0.5-0.6,1.2-0.6,2.1c0,0.5,0.1,0.8,0.2,1.2c0.1,0.4,0.2,0.7,0.5,0.9s0.5,0.5,0.7,0.6c0.2,0.2,0.6,0.2,0.9,0.2
		c0.5,0,0.8-0.1,1.2-0.3c0.3-0.2,0.6-0.5,0.8-1c0.2-0.2,0.3-0.5,0.5-0.6c0.2-0.2,0.4-0.2,0.6-0.2c0.3,0,0.5,0.1,0.7,0.3
		C118,124,118.1,124.3,118.1,124.5L118.1,124.5z M126.1,126v-0.3c-0.3,0.4-0.5,0.6-0.8,0.8c-0.3,0.2-0.6,0.4-1,0.5
		c-0.4,0.1-0.8,0.2-1.2,0.2c-0.5,0-1.1-0.1-1.5-0.3c-0.5-0.2-0.8-0.5-1-0.9c-0.3-0.5-0.5-1.2-0.5-2.1v-4.5c0-0.5,0.1-0.8,0.3-1
		c0.2-0.2,0.5-0.3,0.8-0.3c0.4,0,0.6,0.1,0.8,0.3c0.2,0.2,0.3,0.5,0.3,1v3.7c0,0.5,0.1,1,0.2,1.3c0.1,0.4,0.2,0.6,0.5,0.8
		s0.5,0.3,0.9,0.3c0.4,0,0.8-0.1,1.1-0.3c0.3-0.2,0.6-0.5,0.8-0.9c0.2-0.3,0.2-1,0.2-2.1v-2.8c0-0.5,0.1-0.8,0.3-1
		c0.2-0.2,0.5-0.3,0.8-0.3c0.3,0,0.6,0.1,0.8,0.3c0.2,0.2,0.3,0.5,0.3,1v6.6c0,0.5-0.1,0.8-0.3,1c-0.2,0.2-0.5,0.3-0.8,0.3
		c-0.3,0-0.5-0.1-0.8-0.3C126.1,126.8,126.1,126.4,126.1,126L126.1,126z M132.7,124v1.9c0,0.5-0.1,0.8-0.3,1.1
		c-0.2,0.2-0.5,0.4-0.8,0.4c-0.3,0-0.6-0.2-0.8-0.4s-0.3-0.6-0.3-1v-6.4c0-1,0.4-1.5,1.1-1.5c0.4,0,0.6,0.2,0.8,0.4
		c0.2,0.2,0.2,0.6,0.3,1.1c0.3-0.5,0.5-0.8,0.8-1.1c0.3-0.2,0.7-0.4,1.2-0.4c0.5,0,0.9,0.2,1.4,0.4c0.5,0.2,0.7,0.5,0.7,0.9
		c0,0.3-0.1,0.5-0.3,0.7c-0.2,0.2-0.4,0.3-0.6,0.3c-0.1,0-0.3-0.1-0.6-0.2s-0.6-0.2-0.8-0.2c-0.3,0-0.6,0.1-0.8,0.2
		c-0.2,0.2-0.4,0.5-0.5,0.8c-0.1,0.3-0.2,0.8-0.2,1.2C132.7,122.7,132.7,123.3,132.7,124L132.7,124z M139.1,117
		c-0.3,0-0.6-0.1-0.8-0.3s-0.3-0.5-0.3-0.8c0-0.3,0.2-0.6,0.4-0.8c0.2-0.2,0.5-0.3,0.8-0.3c0.3,0,0.5,0.1,0.8,0.3
		c0.2,0.2,0.3,0.5,0.3,0.8s-0.1,0.6-0.3,0.8C139.6,116.9,139.4,117,139.1,117z M140.2,119.3v6.6c0,0.5-0.1,0.8-0.3,1
		s-0.5,0.4-0.8,0.4s-0.6-0.2-0.8-0.4c-0.2-0.2-0.3-0.6-0.3-1v-6.5c0-0.5,0.1-0.8,0.3-1c0.2-0.2,0.5-0.3,0.8-0.3s0.6,0.1,0.8,0.3
		C140.1,118.6,140.2,118.9,140.2,119.3z M142.7,118.2h0.2v-1.3V116c0,0,0.1-0.4,0.2-0.5c0.1-0.2,0.2-0.3,0.4-0.4
		c0.2-0.1,0.4-0.2,0.5-0.2c0.3,0,0.5,0.1,0.8,0.3c0.2,0.2,0.2,0.3,0.3,0.5c0.1,0.2,0.1,0.5,0.1,0.9v1.5h0.8c0.3,0,0.5,0.1,0.8,0.2
		c0.2,0.2,0.2,0.4,0.2,0.6c0,0.3-0.2,0.5-0.4,0.6c-0.2,0.2-0.6,0.2-1.1,0.2h-0.5v5.1c0,0.2,0.1,0.4,0.2,0.5c0.1,0.2,0.3,0.2,0.5,0.2
		c0.2,0,0.3,0,0.5-0.1c0.2-0.1,0.4-0.1,0.5-0.1c0.2,0,0.4,0.1,0.5,0.2s0.2,0.3,0.2,0.5c0,0.4-0.2,0.6-0.6,0.8
		c-0.4,0.2-1,0.3-1.8,0.3c-0.7,0-1.2-0.2-1.6-0.4s-0.6-0.5-0.7-1c-0.1-0.5-0.2-1-0.2-1.7v-4.4h-0.3c-0.3,0-0.6-0.1-0.8-0.2
		c-0.2-0.2-0.2-0.4-0.2-0.6c0-0.2,0.1-0.5,0.3-0.6C142.1,118.3,142.3,118.2,142.7,118.2L142.7,118.2z M149.8,117
		c-0.3,0-0.6-0.1-0.8-0.3c-0.2-0.2-0.3-0.5-0.3-0.8c0-0.3,0.2-0.6,0.4-0.8c0.2-0.2,0.5-0.3,0.8-0.3s0.5,0.1,0.8,0.3
		c0.2,0.2,0.3,0.5,0.3,0.8s-0.1,0.6-0.3,0.8C150.4,116.9,150.1,117,149.8,117z M150.9,119.3v6.6c0,0.5-0.1,0.8-0.3,1
		c-0.2,0.2-0.5,0.4-0.8,0.4s-0.6-0.2-0.8-0.4c-0.2-0.2-0.3-0.6-0.3-1v-6.5c0-0.5,0.1-0.8,0.3-1c0.2-0.2,0.5-0.3,0.8-0.3
		s0.6,0.1,0.8,0.3C150.8,118.6,150.9,118.9,150.9,119.3z M159.7,123.3h-4.5c0,0.5,0.1,1,0.3,1.4c0.2,0.4,0.5,0.7,0.8,0.9
		c0.3,0.2,0.7,0.3,1.2,0.3c0.3,0,0.5,0,0.8-0.1c0.2-0.1,0.5-0.2,0.7-0.3c0.2-0.2,0.4-0.3,0.6-0.5c0.2-0.2,0.4-0.4,0.7-0.6
		c0.2-0.1,0.3-0.2,0.5-0.2c0.2,0,0.5,0.1,0.5,0.2s0.2,0.3,0.2,0.5c0,0.2-0.1,0.5-0.2,0.7c-0.2,0.2-0.4,0.5-0.8,0.8
		c-0.3,0.2-0.8,0.5-1.2,0.6c-0.5,0.2-1.1,0.2-1.7,0.2c-1.5,0-2.6-0.4-3.5-1.2c-0.8-0.8-1.2-2-1.2-3.4c0-0.7,0.1-1.3,0.3-1.8
		c0.2-0.5,0.5-1.1,0.8-1.5s0.8-0.7,1.5-0.9c0.5-0.2,1.2-0.3,1.8-0.3c0.9,0,1.7,0.2,2.3,0.5c0.6,0.4,1.2,0.8,1.5,1.5
		c0.3,0.6,0.5,1.2,0.5,1.8c0,0.5-0.2,0.9-0.5,1.2C160.7,123.1,160.2,123.3,159.7,123.3L159.7,123.3z M155.1,122h4.1
		c-0.1-0.8-0.2-1.4-0.6-1.8c-0.4-0.4-0.8-0.6-1.5-0.6c-0.5,0-1,0.2-1.4,0.6S155.2,121.2,155.1,122L155.1,122z M170.8,124.3
		c0,0.6-0.2,1.2-0.5,1.6c-0.3,0.5-0.8,0.8-1.4,1c-0.6,0.2-1.3,0.4-2.1,0.4s-1.5-0.2-2.1-0.4s-1-0.5-1.3-0.9
		c-0.3-0.4-0.4-0.8-0.4-1.2c0-0.2,0.1-0.5,0.2-0.6c0.2-0.2,0.4-0.2,0.7-0.2c0.2,0,0.5,0.1,0.5,0.2c0.2,0.2,0.2,0.3,0.4,0.5
		c0.2,0.4,0.5,0.7,0.8,0.9c0.3,0.2,0.8,0.3,1.3,0.3c0.5,0,0.8-0.1,1.2-0.3c0.3-0.2,0.5-0.5,0.5-0.7c0-0.4-0.2-0.7-0.5-0.8
		c-0.3-0.2-0.8-0.4-1.5-0.5c-0.8-0.2-1.5-0.4-1.9-0.6c-0.5-0.2-0.9-0.5-1.2-0.8c-0.3-0.4-0.5-0.8-0.5-1.3c0-0.5,0.2-0.9,0.4-1.3
		c0.3-0.4,0.7-0.8,1.2-1c0.5-0.2,1.2-0.4,1.9-0.4c0.6,0,1.2,0.1,1.6,0.2c0.5,0.2,0.8,0.3,1.2,0.5c0.3,0.2,0.5,0.5,0.7,0.7
		c0.2,0.2,0.2,0.5,0.2,0.8c0,0.2-0.1,0.5-0.2,0.6c-0.2,0.2-0.5,0.2-0.8,0.2c-0.2,0-0.5-0.1-0.6-0.2c-0.2-0.2-0.4-0.3-0.5-0.6
		c-0.2-0.2-0.4-0.4-0.6-0.5c-0.2-0.2-0.5-0.2-0.9-0.2s-0.8,0.1-1,0.2c-0.3,0.2-0.4,0.4-0.4,0.7c0,0.2,0.1,0.5,0.3,0.6
		c0.2,0.2,0.5,0.3,0.8,0.4s0.8,0.2,1.4,0.4c0.7,0.2,1.3,0.4,1.8,0.6c0.5,0.2,0.8,0.5,1,0.8C170.6,123.6,170.8,123.9,170.8,124.3
		L170.8,124.3z M180.5,121.9h-0.8v3.9c0,0.5-0.1,0.9-0.3,1.2c-0.2,0.2-0.5,0.4-0.9,0.4c-0.4,0-0.7-0.2-0.9-0.4
		c-0.2-0.2-0.3-0.6-0.3-1.2v-9.4c0-0.5,0.2-0.9,0.4-1.2c0.2-0.2,0.6-0.4,1.2-0.4h4.1c0.5,0,1,0,1.5,0.1c0.5,0.1,0.8,0.2,1.1,0.3
		c0.4,0.2,0.7,0.4,1,0.7c0.3,0.3,0.5,0.6,0.7,1.1c0.2,0.4,0.2,0.8,0.2,1.2c0,0.9-0.2,1.6-0.8,2.2c-0.5,0.5-1.3,0.9-2.4,1.2
		c0.5,0.2,0.8,0.6,1.2,1c0.4,0.5,0.8,0.9,1.1,1.5c0.3,0.5,0.5,1,0.8,1.4c0.2,0.4,0.2,0.7,0.2,0.8c0,0.2-0.1,0.3-0.2,0.5
		c-0.1,0.2-0.2,0.3-0.5,0.4c-0.2,0.1-0.4,0.2-0.6,0.2c-0.3,0-0.5-0.1-0.7-0.2c-0.2-0.2-0.4-0.3-0.5-0.5c-0.2-0.2-0.3-0.5-0.5-0.9
		l-1-1.7c-0.4-0.6-0.7-1.1-0.9-1.4c-0.3-0.3-0.5-0.5-0.8-0.6C181.3,121.9,180.9,121.9,180.5,121.9L180.5,121.9z M181.9,116.7h-2.3
		v3.4h2.2c0.6,0,1.1-0.1,1.5-0.2c0.4-0.1,0.7-0.3,0.9-0.5c0.2-0.2,0.3-0.6,0.3-1c0-0.3-0.1-0.6-0.2-0.9c-0.2-0.2-0.4-0.5-0.7-0.6
		C183.3,116.7,182.8,116.7,181.9,116.7L181.9,116.7z M195.3,123.3h-4.5c0,0.5,0.1,1,0.3,1.4c0.2,0.4,0.5,0.7,0.8,0.9
		c0.3,0.2,0.7,0.3,1.2,0.3c0.3,0,0.5,0,0.8-0.1c0.2-0.1,0.5-0.2,0.7-0.3c0.2-0.2,0.4-0.3,0.6-0.5c0.2-0.2,0.4-0.4,0.7-0.6
		c0.2-0.1,0.3-0.2,0.5-0.2c0.2,0,0.5,0.1,0.5,0.2c0.1,0.2,0.2,0.3,0.2,0.5c0,0.2-0.1,0.5-0.2,0.7c-0.2,0.3-0.4,0.5-0.8,0.8
		c-0.3,0.2-0.8,0.5-1.2,0.6c-0.5,0.2-1.1,0.2-1.7,0.2c-1.5,0-2.6-0.4-3.5-1.2c-0.8-0.8-1.2-2-1.2-3.4c0-0.7,0.1-1.3,0.3-1.8
		c0.2-0.5,0.5-1.1,0.8-1.5s0.8-0.7,1.5-0.9c0.5-0.2,1.2-0.3,1.8-0.3c0.9,0,1.7,0.2,2.3,0.5c0.6,0.4,1.2,0.8,1.5,1.5
		c0.3,0.6,0.5,1.2,0.5,1.8c0,0.5-0.2,0.9-0.5,1.2C196.3,123.1,195.8,123.3,195.3,123.3L195.3,123.3z M190.7,122h4.1
		c-0.1-0.8-0.2-1.4-0.6-1.8s-0.8-0.6-1.5-0.6c-0.5,0-1,0.2-1.4,0.6S190.8,121.2,190.7,122L190.7,122z M207.2,119.7v6.6
		c0,0.8-0.1,1.4-0.2,1.9c-0.2,0.5-0.4,1-0.8,1.4s-0.8,0.6-1.4,0.8c-0.6,0.2-1.3,0.2-2.1,0.2c-0.8,0-1.5-0.1-2.1-0.3
		c-0.6-0.2-1.1-0.5-1.5-0.8c-0.3-0.4-0.5-0.7-0.5-1.1c0-0.3,0.1-0.5,0.3-0.7c0.2-0.2,0.4-0.2,0.7-0.2c0.3,0,0.6,0.2,0.8,0.5
		c0.2,0.2,0.2,0.3,0.4,0.5c0.2,0.2,0.3,0.3,0.5,0.4c0.2,0.1,0.4,0.2,0.5,0.2c0.2,0.1,0.5,0.1,0.8,0.1c0.6,0,1.1-0.1,1.4-0.2
		c0.3-0.2,0.5-0.4,0.7-0.7c0.2-0.3,0.2-0.6,0.2-0.9c0-0.3,0.1-0.8,0.1-1.6c-0.4,0.5-0.8,0.8-1.2,1.2c-0.5,0.3-1,0.4-1.6,0.4
		c-0.8,0-1.5-0.2-2-0.6c-0.5-0.4-1-0.9-1.3-1.6c-0.3-0.7-0.5-1.5-0.5-2.5c0-0.7,0.1-1.3,0.3-1.8c0.2-0.5,0.5-1,0.8-1.4
		c0.4-0.4,0.8-0.7,1.2-0.8c0.5-0.2,0.9-0.3,1.5-0.3c0.6,0,1.2,0.2,1.7,0.4c0.5,0.2,0.9,0.6,1.3,1.2v-0.3c0-0.4,0.1-0.7,0.3-0.9
		c0.2-0.2,0.5-0.3,0.8-0.3c0.5,0,0.8,0.2,0.8,0.5C207.1,118.7,207.2,119.2,207.2,119.7L207.2,119.7z M200.6,122.6
		c0,0.9,0.2,1.6,0.6,2.1c0.4,0.5,0.9,0.7,1.5,0.7c0.4,0,0.8-0.1,1.1-0.3c0.3-0.2,0.6-0.5,0.8-0.9s0.3-0.9,0.3-1.5
		c0-0.9-0.2-1.7-0.6-2.1c-0.4-0.5-0.9-0.8-1.6-0.8c-0.6,0-1.2,0.2-1.5,0.8C200.8,121,200.6,121.6,200.6,122.6z M210.7,117
		c-0.3,0-0.6-0.1-0.8-0.3c-0.2-0.2-0.3-0.5-0.3-0.8c0-0.3,0.2-0.6,0.4-0.8c0.2-0.2,0.5-0.3,0.8-0.3c0.3,0,0.5,0.1,0.8,0.3
		c0.2,0.2,0.3,0.5,0.3,0.8s-0.1,0.6-0.3,0.8C211.3,117,211,117,210.7,117z M211.8,119.3v6.6c0,0.5-0.1,0.8-0.3,1
		c-0.2,0.2-0.5,0.4-0.8,0.4s-0.6-0.2-0.8-0.4c-0.2-0.2-0.3-0.6-0.3-1v-6.5c0-0.5,0.1-0.8,0.3-1c0.2-0.2,0.5-0.3,0.8-0.3
		s0.6,0.1,0.8,0.3C211.7,118.7,211.8,118.9,211.8,119.3z M221.5,124.3c0,0.6-0.2,1.2-0.5,1.6c-0.3,0.5-0.8,0.8-1.4,1
		c-0.6,0.2-1.3,0.4-2.1,0.4c-0.8,0-1.5-0.2-2.1-0.4c-0.6-0.2-1-0.5-1.3-0.9c-0.3-0.4-0.4-0.8-0.4-1.2c0-0.2,0.1-0.5,0.2-0.6
		c0.2-0.2,0.4-0.2,0.7-0.2c0.2,0,0.5,0.1,0.5,0.2c0.2,0.2,0.2,0.3,0.4,0.5c0.2,0.4,0.5,0.7,0.8,0.9c0.3,0.2,0.8,0.3,1.3,0.3
		c0.5,0,0.8-0.1,1.2-0.3c0.3-0.2,0.5-0.5,0.5-0.7c0-0.4-0.2-0.7-0.5-0.8c-0.3-0.2-0.8-0.4-1.5-0.5c-0.8-0.2-1.5-0.4-1.9-0.6
		c-0.5-0.2-0.9-0.5-1.2-0.8c-0.3-0.4-0.5-0.8-0.5-1.3c0-0.5,0.2-0.9,0.4-1.3c0.3-0.4,0.7-0.8,1.2-1c0.5-0.2,1.2-0.4,1.9-0.4
		c0.6,0,1.2,0.1,1.6,0.2c0.5,0.2,0.8,0.3,1.2,0.5c0.3,0.2,0.5,0.5,0.7,0.7c0.2,0.2,0.2,0.5,0.2,0.8c0,0.2-0.1,0.5-0.2,0.6
		c-0.2,0.2-0.5,0.2-0.8,0.2c-0.2,0-0.5-0.1-0.6-0.2c-0.2-0.2-0.4-0.3-0.5-0.6c-0.2-0.2-0.4-0.4-0.6-0.5c-0.2-0.2-0.5-0.2-0.9-0.2
		s-0.8,0.1-1,0.2c-0.3,0.2-0.4,0.4-0.4,0.7c0,0.2,0.1,0.5,0.3,0.6c0.2,0.2,0.5,0.3,0.8,0.4c0.3,0.1,0.8,0.2,1.4,0.4
		c0.7,0.2,1.3,0.4,1.8,0.6c0.5,0.2,0.8,0.5,1,0.8C221.3,123.6,221.5,123.9,221.5,124.3L221.5,124.3z M223.5,118.2h0.2v-1.3V116
		c0,0,0.1-0.4,0.2-0.5c0.1-0.2,0.2-0.3,0.4-0.4c0.2-0.1,0.4-0.2,0.5-0.2c0.3,0,0.5,0.1,0.8,0.3c0.2,0.2,0.2,0.3,0.3,0.5
		c0.1,0.2,0.1,0.5,0.1,0.9v1.5h0.8c0.3,0,0.5,0.1,0.8,0.2c0.2,0.2,0.2,0.4,0.2,0.6c0,0.3-0.2,0.5-0.4,0.6c-0.2,0.2-0.6,0.2-1.1,0.2
		h-0.5v5.1c0,0.2,0.1,0.4,0.2,0.5c0.1,0.2,0.3,0.2,0.5,0.2c0.2,0,0.3,0,0.5-0.1c0.2-0.1,0.4-0.1,0.5-0.1c0.2,0,0.4,0.1,0.5,0.2
		c0.2,0.2,0.2,0.3,0.2,0.5c0,0.4-0.2,0.6-0.6,0.8c-0.4,0.2-1,0.3-1.8,0.3c-0.7,0-1.2-0.2-1.6-0.4s-0.6-0.5-0.7-1
		c-0.1-0.5-0.2-1-0.2-1.7v-4.4h-0.3c-0.3,0-0.6-0.1-0.8-0.2c-0.2-0.2-0.2-0.4-0.2-0.6c0-0.2,0.1-0.5,0.3-0.6
		C222.9,118.3,223.2,118.2,223.5,118.2L223.5,118.2z M235.8,123.3h-4.5c0,0.5,0.1,1,0.3,1.4c0.2,0.4,0.5,0.7,0.8,0.9
		c0.3,0.2,0.7,0.3,1.2,0.3c0.3,0,0.5,0,0.8-0.1c0.2-0.1,0.5-0.2,0.7-0.3c0.2-0.2,0.4-0.3,0.6-0.5c0.2-0.2,0.4-0.4,0.7-0.6
		c0.2-0.1,0.3-0.2,0.5-0.2c0.2,0,0.5,0.1,0.5,0.2c0.1,0.2,0.2,0.3,0.2,0.5c0,0.2-0.1,0.5-0.2,0.7c-0.2,0.3-0.4,0.5-0.8,0.8
		c-0.3,0.2-0.8,0.5-1.2,0.6c-0.5,0.2-1.1,0.2-1.7,0.2c-1.5,0-2.6-0.4-3.5-1.2c-0.8-0.8-1.2-2-1.2-3.4c0-0.7,0.1-1.3,0.3-1.8
		c0.2-0.5,0.5-1.1,0.8-1.5s0.8-0.7,1.5-0.9c0.5-0.2,1.2-0.3,1.8-0.3c0.9,0,1.7,0.2,2.3,0.5c0.6,0.4,1.2,0.8,1.5,1.5
		c0.3,0.6,0.5,1.2,0.5,1.8c0,0.5-0.2,0.9-0.5,1.2C236.8,123.1,236.4,123.3,235.8,123.3L235.8,123.3z M231.4,122h4.1
		c-0.1-0.8-0.2-1.4-0.6-1.8s-0.8-0.6-1.5-0.6c-0.5,0-1,0.2-1.4,0.6S231.5,121.2,231.4,122L231.4,122z M241.9,124v1.9
		c0,0.5-0.1,0.8-0.3,1.1c-0.2,0.2-0.5,0.4-0.8,0.4c-0.3,0-0.6-0.2-0.8-0.4c-0.2-0.2-0.3-0.6-0.3-1v-6.4c0-1,0.4-1.5,1.1-1.5
		c0.4,0,0.6,0.2,0.8,0.4c0.2,0.2,0.2,0.6,0.3,1.1c0.3-0.5,0.5-0.8,0.8-1.1c0.3-0.2,0.7-0.4,1.2-0.4c0.5,0,0.9,0.2,1.4,0.4
		c0.5,0.2,0.7,0.5,0.7,0.9c0,0.3-0.1,0.5-0.3,0.7c-0.2,0.2-0.4,0.3-0.6,0.3c-0.1,0-0.3-0.1-0.6-0.2c-0.3-0.1-0.6-0.2-0.8-0.2
		c-0.3,0-0.6,0.1-0.8,0.2c-0.2,0.2-0.4,0.5-0.5,0.8c-0.2,0.4-0.2,0.8-0.2,1.2C241.9,122.7,241.9,123.3,241.9,124z"/>
</g>
</svg>
