<?xml version="1.0" encoding="utf-8"?>
<!-- Generator: Adobe Illustrator 20.1.0, SVG Export Plug-In . SVG Version: 6.00 Build 0)  -->
<svg version="1.1" id="Layer_1" xmlns="http://www.w3.org/2000/svg" xmlns:xlink="http://www.w3.org/1999/xlink" x="0px" y="0px"
	 viewBox="0 0 800 800" style="enable-background:new 0 0 800 800;" xml:space="preserve">
<style type="text/css">
	.st0{fill:#FFFFFF;stroke:url(#SVGID_1_);stroke-width:22;stroke-miterlimit:10;}
	.st1{fill:url(#SVGID_2_);}
</style>
<g>
	<linearGradient id="SVGID_1_" gradientUnits="userSpaceOnUse" x1="12.9583" y1="400" x2="787.0417" y2="400">
		<stop  offset="0" style="stop-color:#5BBC6B"/>
		<stop  offset="1" style="stop-color:#398BCB"/>
	</linearGradient>
	<path class="st0" d="M226.6,780C114.6,780,24,689,24,577.3V20h549.8C685.4,20,776,111,776,222.7V780H226.6z"/>
	<linearGradient id="SVGID_2_" gradientUnits="userSpaceOnUse" x1="147.9288" y1="662.7969" x2="691.0318" y2="119.6939">
		<stop  offset="0" style="stop-color:#5BBC6B"/>
		<stop  offset="1" style="stop-color:#398BCB"/>
	</linearGradient>
	<path class="st1" d="M212.1,674c-7.9,0-14.7-0.1-20.3-0.5c-5.6-0.3-10.7-0.9-15.3-1.8c-4.6-0.9-8.8-2.2-12.8-3.9
		c-4-1.7-8.2-3.9-12.7-6.6c-15.3-8.8-27.1-20.8-35.5-35.8c-8.4-15.1-12.6-31.6-12.6-49.5c0-17.6,4.1-33.9,12.4-48.6
		c8.2-14.8,19.8-26.5,34.8-35.4c4.5-2.7,8.8-5,12.9-6.8c4.1-1.8,8.5-3.2,13.2-4.1c4.7-0.9,9.9-1.6,15.5-2.1
		c5.6-0.5,12.1-0.7,19.4-0.7h16.9v54.3H214c-14.3,0-25.3,2.1-32.9,6.3c-7,3.9-12.4,9.1-16.2,15.6c-3.8,6.6-5.7,13.7-5.7,21.5
		c0,7.8,2,15.1,5.9,21.9c4,6.9,9.3,12.1,16,15.6c4.3,2.4,8.8,4,13.7,4.9c4.9,0.9,11.1,1.3,18.7,1.3h14.6V674H212.1z M480.6,674
		V561.3c0-6.1-0.3-10.7-0.9-13.9c-0.6-3.2-1.7-6.3-3.2-9.4c-2.4-4.3-5.7-7.7-10-10.3c-4.2-2.6-8.8-3.9-13.6-3.9
		c-10.3,0-18.1,4.4-23.5,13.2c-1.2,1.8-2.2,3.4-2.9,4.6c-0.8,1.2-1.3,2.7-1.6,4.3c-0.3,1.7-0.4,3.7-0.4,6.2c0,2.4,0,5.8,0,10V674
		h-56.1V561.7c0-4-0.1-7.1-0.2-9.6c-0.2-2.4-0.3-4.5-0.5-6.2c-0.2-1.7-0.5-3.1-1.1-4.3c-0.6-1.2-1.4-2.6-2.3-4.1
		c-2.4-4-5.8-7.1-10-9.4c-4.3-2.3-8.7-3.4-13.2-3.4c-4.9,0-9.4,1.2-13.7,3.7c-4.3,2.4-7.6,5.6-10,9.6c-0.9,1.5-1.7,2.9-2.3,4.1
		c-0.6,1.2-1,2.7-1.1,4.3c-0.2,1.7-0.3,3.7-0.5,6.2c-0.2,2.4-0.2,5.6-0.2,9.6V674h-56.1V570.8c0-8.2,0.2-15.4,0.7-21.5
		c0.5-6.1,1.1-11.5,2.1-16.2c0.9-4.7,2.3-9,4.1-12.8c1.8-3.8,4.1-7.8,6.8-12.1c7.3-11.3,16.8-20,28.5-26.2
		c11.7-6.2,24.4-9.4,38.1-9.4c11.6,0,22,2.1,31.3,6.2c9.3,4.1,18.2,10.4,26.7,18.9c10.6-9.1,20.3-15.5,29-19.2
		c8.7-3.7,18.5-5.5,29.4-5.5c13.7,0,26.4,3.1,38.1,9.4c11.7,6.2,21.5,15,29.4,26.2c3,4.3,5.5,8.5,7.5,12.8c2,4.3,3.6,8.8,4.8,13.5
		c1.2,4.7,2.1,10,2.5,16c0.5,5.9,0.7,12.7,0.7,20.3V674H480.6z M684.6,533.9c-7.9-4.3-15.3-7.4-22.1-9.4c-6.8-2-13.9-3-21.2-3
		c-15.5,0-23.3,4.1-23.3,12.3c0,3.4,1.5,6.1,4.4,8.2c2.9,2.1,8.5,4.4,16.9,6.8c10.8,3.4,18.9,6.2,24.2,8.7
		c5.4,2.4,10.2,5.6,14.6,9.6c6.2,5.8,10.9,12.8,14.3,21c3.4,8.2,5.1,16.9,5.1,26c0,9.7-1.8,18.6-5.5,26.5
		c-3.7,7.9-8.8,14.8-15.3,20.5c-6.5,5.8-14.5,10.2-23.7,13.2c-9.3,3-19.6,4.6-30.8,4.6c-10.7,0-20.5-1.1-29.7-3.2
		c-9.1-2.1-18.4-5.3-27.8-9.6V611c11.9,6.7,21.5,11.3,28.8,13.7c7.3,2.4,15.1,3.7,23.3,3.7c7.9,0,14-1.2,18.3-3.7
		c4.3-2.4,6.4-5.8,6.4-10c0-4.3-1.5-7.5-4.6-9.6c-3-2.1-10.2-4.6-21.5-7.3c-9.7-2.4-17.3-4.9-22.6-7.5c-5.3-2.6-10.1-6-14.4-10.3
		c-11-11-16.4-24.9-16.4-42c0-9.4,1.9-18.2,5.6-26.2c3.7-8.1,8.9-15.1,15.5-21c6.6-5.9,14.5-10.5,23.6-13.7
		c9.1-3.2,19.2-4.8,30.2-4.8c7.6,0,14.8,0.8,21.5,2.3c6.7,1.5,15.5,4.4,26.5,8.7V533.9z M161.1,335.9c2.7,12.8,7.8,22.5,15.3,29.4
		c7.6,6.8,17,10.2,28.3,10.2c13,0,23.1-4.7,30-14.2c7-9.5,10.5-23.1,10.5-40.9v-16.9c-5.3,3.3-10.1,5.9-14.2,8
		c-4.2,2.1-8.1,3.7-11.8,4.9c-3.7,1.2-7.3,2-10.9,2.4c-3.6,0.4-7.4,0.7-11.6,0.7c-13.1,0-25.3-2.6-36.7-7.8
		c-11.4-5.2-21.4-12.2-30-20.9c-8.6-8.7-15.4-19.1-20.5-30.9c-5-11.9-7.6-24.5-7.6-37.8c0-13.6,2.6-26.4,7.8-38.3
		c5.2-11.9,12.3-22.2,21.2-31.1c8.9-8.9,19.4-15.9,31.4-21.1c12-5.2,25-7.8,39-7.8c16.1,0,31.1,3.6,45,10.7s25.6,17.2,34.8,30.3
		c6.8,9.2,11.7,18.8,14.5,28.7c2.8,9.9,4.2,21.9,4.2,35.8v84.1c0,9.8-0.3,18.4-0.9,25.8c-0.6,7.4-1.6,14-3.1,19.8
		c-1.5,5.8-3.5,11.1-6.1,16c-2.5,4.9-5.8,9.7-9.6,14.5c-9.3,11.6-20.5,20.6-33.8,27.1c-13.3,6.5-27.4,9.8-42.6,9.8
		c-18.7,0-35.9-4.7-51.6-14.2c-15.7-9.5-27.4-22.1-35.1-37.8c-2.4-5-4.3-10.3-5.8-15.8c-1.5-5.5-3-13-4.4-22.5H161.1z M183.5,180.1
		c-5.5,2.4-10.2,5.5-14.2,9.5c-4,4-7.1,8.7-9.3,14.3c-2.2,5.6-3.3,11.5-3.3,17.6c0,6.2,1.1,12,3.3,17.6c2.2,5.6,5.3,10.4,9.3,14.3
		c4,4,8.7,7.1,14,9.5c5.3,2.4,11.1,3.5,17.4,3.5c12.5,0,22.9-4.3,31.4-12.8c8.5-8.5,12.7-18.9,12.7-31.3c0-13.2-4.2-24.2-12.5-32.8
		c-8.3-8.7-18.7-13-31.1-13C194.9,176.6,189,177.8,183.5,180.1z M459.2,129c12.2,5.3,22.8,12.7,32,22c9.2,9.3,16.4,20.2,21.6,32.7
		c5.2,12.5,7.8,25.8,7.8,40c0,13.6-2.7,26.5-8,38.5c-5.3,12-12.6,22.5-21.8,31.6c-9.2,9.1-20,16.2-32.3,21.6
		c-12.3,5.3-25.3,8-38.9,8c-13.9,0-27.1-2.7-39.4-8c-12.3-5.3-23.1-12.5-32.3-21.6c-9.2-9-16.5-19.7-21.8-32
		c-5.3-12.3-8-25.4-8-39.4c0-13.9,2.7-27.1,8-39.4c5.3-12.3,12.6-23.1,21.8-32.3c9.2-9.2,19.9-16.5,32.3-21.8
		c12.3-5.3,25.6-8,39.8-8C434,121,447,123.6,459.2,129z M401.3,177.7c-5.7,2.4-10.6,6-14.9,10.3c-4.3,4.3-7.6,9.5-10,15.4
		c-2.4,6-3.6,12.2-3.6,18.8c0,6.9,1.2,13.2,3.6,19c2.4,5.8,5.7,10.9,10,15.2c4.3,4.3,9.3,7.7,14.9,10.3c5.6,2.5,11.7,3.8,18.2,3.8
		c6.2,0,12.2-1.3,17.8-3.8c5.6-2.5,10.6-6,14.9-10.3c4.3-4.3,7.6-9.4,10-15.2c2.4-5.8,3.6-12,3.6-18.6c0-6.5-1.2-12.8-3.6-18.8
		c-2.4-6-5.7-11.2-10-15.6c-4.3-4.5,0,0,0,0l-41.9-44.1C410.3,144.1,427.1,166.8,401.3,177.7z M650.9,276.7c-2.7,8-4.7,13.7-6,17.1
		c-1.3,3.4-3.2,6.7-5.6,10c-3.6,5-8.1,9.1-13.6,12c-5.5,3-11.6,4.4-18.5,4.4c-11.3,0-20-3.2-26.2-9.6c-6.2-6.4-12-17.7-17.4-34
		l-48.1-149.9h59.6L606,243.3l33.4-116.6h58.7L650.9,276.7z"/>
</g>
</svg>
