<?xml version="1.0" encoding="utf-8"?>
<!-- Generator: Adobe Illustrator 20.1.0, SVG Export Plug-In . SVG Version: 6.00 Build 0)  -->
<svg version="1.1" id="Layer_1" xmlns="http://www.w3.org/2000/svg" xmlns:xlink="http://www.w3.org/1999/xlink" x="0px" y="0px"
	 viewBox="0 0 200 200" style="enable-background:new 0 0 200 200;" xml:space="preserve">
<style type="text/css">
	.st0{fill:#FFFFFF;stroke:url(#SVGID_1_);stroke-width:7;stroke-miterlimit:10;}
	.st1{fill:url(#SVGID_2_);}
</style>
<g>
	<linearGradient id="SVGID_1_" gradientUnits="userSpaceOnUse" x1="157.8645" y1="-0.2242" x2="42.1431" y2="200.2112">
		<stop  offset="0" style="stop-color:#52CD91"/>
		<stop  offset="1" style="stop-color:#33A6FA"/>
	</linearGradient>
	<path class="st0" d="M55.8,196c-28.6,0-51.7-23-51.7-51.2V4h140.2c28.5,0,51.6,23,51.6,51.2V196H55.8z"/>
</g>
<linearGradient id="SVGID_2_" gradientUnits="userSpaceOnUse" x1="29.45" y1="101" x2="172.55" y2="101">
	<stop  offset="0" style="stop-color:#52CD91"/>
	<stop  offset="1" style="stop-color:#33A6FA"/>
</linearGradient>
<path class="st1" d="M74.8,84.6c0,7-2,12.3-5.9,15.7c-3.9,3.5-9.6,5.2-17,5.2c-2.3,0-4.7-0.2-7.1-0.7c-2.4-0.5-4.5-1.3-6.5-2.4
	c-2-1.1-3.6-2.6-4.9-4.5c-1.3-1.9-2.1-4.1-2.3-6.9h10.3c0.3,1.4,0.8,2.6,1.5,3.5c0.7,0.9,1.6,1.6,2.6,2.1s2.1,0.8,3.3,1
	c1.2,0.1,2.5,0.2,3.8,0.2c4.1,0,7.2-1,9.1-3.1c1.9-2,2.9-5,2.9-8.8v-7.1h-0.2c-1.4,2.6-3.4,4.6-5.9,6c-2.5,1.4-5.2,2.2-8.1,2.2
	c-3.7,0-6.9-0.6-9.5-1.9S36,82,34.3,79.8c-1.7-2.3-3-4.9-3.7-7.8c-0.8-2.9-1.2-6.1-1.2-9.5c0-3.1,0.5-6.1,1.4-8.9
	c1-2.8,2.3-5.3,4.1-7.4c1.8-2.1,4-3.8,6.6-5.1s5.6-1.9,8.9-1.9c2.9,0,5.7,0.6,8.1,1.8c2.5,1.2,4.4,3.2,5.7,5.8h0.2v-6.4h10.3
	C74.8,40.4,74.8,84.6,74.8,84.6z M52,78.9c2.3,0,4.2-0.5,5.8-1.4c1.6-0.9,2.9-2.2,3.9-3.7s1.7-3.3,2.2-5.2c0.5-2,0.7-3.9,0.7-5.9
	c0-2-0.2-3.9-0.7-5.8c-0.5-1.9-1.2-3.5-2.2-5c-1-1.4-2.3-2.6-3.9-3.4c-1.6-0.8-3.5-1.3-5.7-1.3c-2.3,0-4.2,0.5-5.8,1.4
	c-1.6,1-2.8,2.2-3.8,3.7s-1.7,3.3-2.1,5.2c-0.4,2-0.6,3.9-0.6,5.8c0,1.9,0.2,3.8,0.7,5.6s1.2,3.5,2.2,4.9c1,1.4,2.3,2.6,3.8,3.5
	C48,78.4,49.8,78.9,52,78.9z M103.2,88.3c-3.7,0-7.1-0.6-10-1.8c-2.9-1.2-5.4-2.9-7.4-5.1s-3.5-4.7-4.6-7.8c-1.1-3-1.6-6.3-1.6-9.9
	c0-3.5,0.5-6.8,1.6-9.8c1.1-3,2.6-5.6,4.6-7.8s4.5-3.9,7.4-5.1c2.9-1.2,6.2-1.8,10-1.8s7.1,0.6,10,1.8c2.9,1.2,5.4,2.9,7.4,5.1
	c2,2.2,3.5,4.8,4.6,7.8c1.1,3,1.6,6.3,1.6,9.8c0,3.6-0.5,6.9-1.6,9.9c-1.1,3-2.6,5.6-4.6,7.8s-4.5,3.9-7.4,5.1
	C110.2,87.6,106.9,88.3,103.2,88.3z M103.2,80.1c2.3,0,4.3-0.5,6-1.4c1.7-1,3.1-2.2,4.2-3.8c1.1-1.6,1.9-3.3,2.4-5.3s0.8-4,0.8-6
	c0-2-0.3-4-0.8-6s-1.3-3.7-2.4-5.3c-1.1-1.5-2.5-2.8-4.2-3.7c-6-2.7-6-8.2-6-8.2s0,5.5-6,8.2c-1.7,1-3.1,2.2-4.1,3.7
	c-1.1,1.5-1.9,3.3-2.4,5.3s-0.8,4-0.8,6c0,2,0.3,4,0.8,6s1.3,3.7,2.4,5.3c1.1,1.6,2.5,2.8,4.1,3.8C98.9,79.7,100.9,80.1,103.2,80.1z
	 M127.4,40.4h11.2l11.8,35.8h0.2l11.4-35.8h10.6L155.9,87h-11.5L127.4,40.4z M29.7,136.9c0-3.6,0.5-7,1.6-10.1
	c1.1-3.1,2.6-5.9,4.6-8.2c2-2.3,4.5-4.1,7.4-5.5c2.9-1.3,6.2-2,9.9-2c2.9,0,5.4,0.4,7.5,1.1c2.1,0.8,3.9,1.7,5.3,2.8
	c1.4,1.1,2.6,2.4,3.6,3.7c0.9,1.3,1.6,2.6,2.1,3.8s0.8,2.2,1,3c0.2,0.9,0.3,1.3,0.3,1.4h-3c-0.3-2.1-1-3.9-2-5.6
	c-1-1.6-2.3-3-3.8-4.2c-1.5-1.1-3.2-2-5.1-2.6c-1.9-0.6-3.8-0.9-5.9-0.9c-3.2,0-6.1,0.6-8.6,1.9c-2.5,1.2-4.7,2.9-6.4,5
	c-1.7,2.1-3.1,4.5-4,7.3s-1.4,5.8-1.4,9s0.5,6.2,1.4,9s2.3,5.3,4,7.3c1.7,2.1,3.9,3.8,6.4,5s5.4,1.9,8.6,1.9c2.4,0,4.6-0.5,6.7-1.5
	c2.1-1,3.9-2.3,5.5-3.9c1.6-1.6,2.8-3.5,3.8-5.7c0.9-2.1,1.5-4.4,1.6-6.7h3c-0.3,2.9-1,5.7-2.2,8.1c-1.2,2.5-2.7,4.6-4.5,6.4
	c-1.8,1.8-3.9,3.2-6.3,4.2c-2.4,1-4.9,1.5-7.7,1.5c-3.7,0-7-0.7-9.9-2s-5.4-3.2-7.4-5.5s-3.5-5.1-4.6-8.2
	C30.2,143.9,29.7,140.5,29.7,136.9z M80.1,112.3h4.3l19.2,45.9h0.1l19-45.9h4.3v49.2h-3V116h-0.1l-18.7,45.5h-3l-19-45.5h-0.1v45.5
	h-3V112.3z M167.9,126.4c-0.1-2.1-0.5-4-1.3-5.5c-0.8-1.6-1.9-2.9-3.3-3.9c-1.4-1.1-3-1.8-4.9-2.4c-1.9-0.5-4-0.8-6.2-0.8
	c-1.4,0-2.9,0.2-4.4,0.5s-3.1,0.9-4.4,1.7c-1.4,0.8-2.5,1.9-3.3,3.2c-0.9,1.4-1.3,3-1.3,5.1c0,2,0.5,3.6,1.4,4.8
	c1,1.2,2.2,2.2,3.8,3s3.4,1.4,5.4,1.8c2,0.5,4.1,0.9,6.1,1.3c2.1,0.4,4.2,0.9,6.2,1.5s3.8,1.4,5.4,2.3c1.6,1,2.9,2.3,3.8,3.9
	c1,1.6,1.4,3.6,1.4,6c0,2.6-0.6,4.7-1.7,6.5c-1.1,1.7-2.5,3.2-4.2,4.3s-3.5,1.9-5.6,2.4c-2,0.5-4,0.7-5.9,0.7
	c-2.9,0-5.6-0.3-8.1-0.9c-2.5-0.6-4.7-1.6-6.6-3c-1.9-1.4-3.4-3.2-4.4-5.4s-1.6-4.9-1.6-8.1h3c-0.1,2.7,0.3,5,1.2,6.9
	s2.2,3.4,3.8,4.6c1.6,1.2,3.6,2.1,5.8,2.6s4.5,0.8,7,0.8c1.5,0,3-0.2,4.7-0.6c1.7-0.4,3.2-1,4.6-1.9c1.4-0.9,2.6-2,3.5-3.4
	s1.4-3.2,1.4-5.4c0-2.1-0.5-3.8-1.4-5.1c-1-1.3-2.2-2.4-3.8-3.2s-3.4-1.4-5.4-1.9s-4.1-0.9-6.2-1.3c-2.1-0.4-4.1-0.9-6.1-1.4
	c-2-0.6-3.8-1.3-5.4-2.2c-1.6-0.9-2.8-2.2-3.8-3.7s-1.4-3.4-1.4-5.8c0-2.3,0.5-4.4,1.5-6c1-1.7,2.3-3,3.9-4.1
	c1.6-1.1,3.4-1.8,5.3-2.3c2-0.5,3.9-0.7,5.9-0.7c2.6,0,5,0.3,7.2,0.9c2.2,0.6,4.2,1.5,5.9,2.7s3,2.8,4,4.7s1.6,4.3,1.7,7h-3.2V126.4
	z"/>
</svg>
