<?xml version="1.0" encoding="utf-8"?>
<!-- Generator: Adobe Illustrator 19.2.1, SVG Export Plug-In . SVG Version: 6.00 Build 0)  -->
<svg version="1.1" id="Layer_1" xmlns="http://www.w3.org/2000/svg" xmlns:xlink="http://www.w3.org/1999/xlink" x="0px" y="0px"
	 viewBox="0 0 500 500" style="enable-background:new 0 0 500 500;" xml:space="preserve">
<g>
	<g>
		<path d="M9.1,255.2l125.3-97.3c2-1.5,3.5-2.3,4.6-2.3c1.6,0,2.9,0.8,4.1,2.4c1.1,1.6,1.7,3.5,1.7,5.7c0,3.2-1.6,6-4.7,8.5
			L32.7,255.2l107.2,83.1c3.1,2.4,4.7,5.3,4.7,8.5c0,2.2-0.6,4.1-1.7,5.7c-1.2,1.6-2.5,2.4-4.1,2.4c-1,0-2.5-0.8-4.6-2.3L9.1,255.2z
			"/>
		<path d="M138.8,355c-1.1,0-2.6-0.8-4.6-2.3L8.9,255.2l125.4-97.4c2.1-1.6,3.6-2.3,4.6-2.3c1.6,0,3,0.8,4.2,2.5
			c1.2,1.6,1.7,3.6,1.7,5.7c0,3.2-1.6,6.1-4.7,8.6l-107.2,83l107.1,83c3.1,2.5,4.7,5.3,4.7,8.6c0,2.2-0.6,4.1-1.7,5.7
			C141.8,354.1,140.4,355,138.8,355z M9.3,255.2l125,97.2c2,1.5,3.5,2.3,4.5,2.3c1.5,0,2.9-0.8,4-2.4c1.1-1.6,1.7-3.5,1.7-5.6
			c0-3.1-1.6-6-4.6-8.4L32.5,255.2L140,172c3.1-2.4,4.6-5.2,4.6-8.4c0-2.1-0.6-4-1.7-5.6c-1.1-1.6-2.5-2.4-4-2.4
			c-1,0-2.5,0.8-4.5,2.3L9.3,255.2z"/>
	</g>
	<g>
		<path d="M302.1,114.2l-93.3,278.6c-1.6,4.7-3.6,7.1-6.1,7.1c-1.6,0-2.9-0.8-4.1-2.4c-1.2-1.6-1.7-3.4-1.7-5.3
			c0-1.5,0.5-3.7,1.4-6.3l93.1-278.6c1-2.9,2-4.9,2.9-5.8c0.9-0.9,2-1.3,3.3-1.3c1.6,0,2.9,0.8,4.1,2.4c1.2,1.6,1.7,3.4,1.7,5.3
			C303.5,109.2,303,111.4,302.1,114.2z"/>
		<path d="M202.7,400c-1.6,0-3-0.8-4.2-2.5c-1.2-1.6-1.7-3.4-1.7-5.4c0-1.5,0.5-3.7,1.4-6.4l93.1-278.6c1-3,2-4.9,2.9-5.8
			c0.9-0.9,2.1-1.4,3.4-1.4c1.6,0,3,0.8,4.2,2.5c1.2,1.6,1.8,3.4,1.8,5.4c0,1.4-0.5,3.5-1.4,6.4l0,0l-93.3,278.6
			C207.4,397.6,205.3,400,202.7,400z M297.7,100.3c-1.2,0-2.3,0.4-3.2,1.3c-0.9,0.9-1.9,2.8-2.9,5.7l-93.1,278.6
			c-0.9,2.7-1.4,4.8-1.4,6.3c0,1.9,0.6,3.6,1.7,5.2c1.1,1.6,2.5,2.4,4,2.4c2.4,0,4.4-2.4,6-7L302,114.1l0,0c0.9-2.8,1.4-4.9,1.4-6.3
			c0-1.9-0.6-3.6-1.7-5.2C300.5,101.1,299.2,100.3,297.7,100.3z"/>
	</g>
	<g>
		<path d="M490.9,255.2l-125.3,97.3c-2,1.5-3.5,2.3-4.6,2.3c-1.6,0-2.9-0.8-4.1-2.4c-1.2-1.6-1.7-3.5-1.7-5.7c0-3.2,1.6-6,4.7-8.5
			l107.4-83.1l-107.2-83.1c-3.1-2.4-4.7-5.3-4.7-8.5c0-2.2,0.6-4.1,1.7-5.7c1.1-1.6,2.5-2.4,4.1-2.4c1,0,2.5,0.8,4.6,2.3
			L490.9,255.2z"/>
		<path d="M361,355c-1.6,0-3-0.8-4.2-2.5c-1.2-1.6-1.8-3.5-1.8-5.7c0-3.2,1.6-6.1,4.7-8.6l107.2-83l-107.1-83
			c-3.1-2.4-4.7-5.3-4.7-8.6c0-2.2,0.6-4.1,1.7-5.7c1.2-1.6,2.6-2.5,4.2-2.5c1,0,2.6,0.8,4.6,2.3l125.3,97.4l-125.4,97.4
			C363.6,354.2,362.1,355,361,355z M361.2,155.7c-1.5,0-2.8,0.8-4,2.4c-1.1,1.6-1.7,3.5-1.7,5.6c0,3.2,1.6,6,4.6,8.4l107.3,83.2
			l-0.1,0.1L360,338.4c-3.1,2.4-4.6,5.2-4.6,8.4c0,2.1,0.6,4,1.7,5.6c1.1,1.6,2.5,2.4,4,2.4c1,0,2.5-0.8,4.5-2.3l125.2-97.2
			l-125-97.2C363.6,156.4,362.1,155.7,361.2,155.7z"/>
	</g>
</g>
</svg>
