<?xml version="1.0" encoding="utf-8"?>
<!-- Generator: Adobe Illustrator 21.0.0, SVG Export Plug-In . SVG Version: 6.00 Build 0)  -->
<svg version="1.1" id="Layer_1" xmlns="http://www.w3.org/2000/svg" xmlns:xlink="http://www.w3.org/1999/xlink" x="0px" y="0px"
	 viewBox="0 0 100 100" style="enable-background:new 0 0 100 100;" xml:space="preserve">
<g id="_x37_7_Essential_Icons">
	<path id="Document" d="M79.2,32.4L57.4,10.6C57,10.2,56.5,10,56,10H24c-2.2,0-4,1.8-4,4v72c0,2.2,1.8,4,4,4h52c2.2,0,4-1.8,4-4
		V33.7C79.9,33.1,79.6,32.8,79.2,32.4z M58,16.8L73.2,32H58V16.8z M76,86H24V14h30v20c0,1.1,0.9,2,2,2h20V86z"/>
</g>
<g id="Guides">
</g>
<g>
	<path d="M53,67.3c-2.4,0-4.8-0.9-6.7-2.8c-0.5-0.5-0.5-1.3,0-1.8s1.3-0.5,1.8,0c2.7,2.7,7,2.7,9.7,0l9.3-9.3c2.7-2.7,2.7-7,0-9.7
		c-2.7-2.7-7-2.7-9.7,0l-7.9,7.9c-0.5,0.5-1.3,0.5-1.8,0c-0.5-0.5-0.5-1.3,0-1.8l7.9-7.9c3.7-3.7,9.7-3.7,13.3,0
		c3.7,3.7,3.7,9.7,0,13.3l-9.3,9.3C57.9,66.4,55.4,67.3,53,67.3L53,67.3z"/>
	<path d="M37.7,82.7c-2.4,0-4.8-0.9-6.7-2.8c-3.7-3.7-3.7-9.7,0-13.3l9.3-9.3c3.7-3.7,9.7-3.7,13.3,0c0.5,0.5,0.5,1.3,0,1.8
		c-0.5,0.5-1.3,0.5-1.8,0c-2.7-2.7-7-2.7-9.7,0l-9.3,9.3c-2.7,2.7-2.7,7,0,9.7c2.7,2.7,7,2.7,9.7,0l7.9-7.9c0.5-0.5,1.3-0.5,1.8,0
		c0.5,0.5,0.5,1.3,0,1.8l-7.9,7.9C42.5,81.8,40.1,82.7,37.7,82.7L37.7,82.7z"/>
</g>
</svg>
