<?xml version="1.0" encoding="utf-8"?>
<!-- Generator: Adobe Illustrator 19.2.1, SVG Export Plug-In . SVG Version: 6.00 Build 0)  -->
<svg version="1.1" id="Layer_1" xmlns="http://www.w3.org/2000/svg" xmlns:xlink="http://www.w3.org/1999/xlink" x="0px" y="0px"
	 viewBox="0 0 100 100" style="enable-background:new 0 0 100 100;" xml:space="preserve">
<path id="Document" d="M79.2,32.4L57.4,10.6C57,10.2,56.5,10,56,10H24c-2.2,0-4,1.8-4,4v72c0,2.2,1.8,4,4,4h52c2.2,0,4-1.8,4-4V33.7
	C79.9,33.1,79.6,32.8,79.2,32.4z M58,16.8L73.2,32H58C58,32,58,16.8,58,16.8z M76,86H24V14h30v20c0,1.1,0.9,2,2,2h20V86z"/>
<path d="M70.5,65.8c-0.8-0.8-2.7-1.3-5.6-1.3c-1.9,0-4.3,0.1-6.7,0.5c-1.1-0.6-2.2-1.3-3.1-2.1c-2.4-2.2-4.4-5.3-5.6-8.7
	c0.1-0.3,0.1-0.6,0.2-0.9c0,0,1.3-7.6,1-10.2c0-0.4-0.1-0.5-0.2-0.7L50.4,42c-0.4-0.8-1.1-1.7-2.2-1.7l-0.7,0
	c-1.3,0-2.3,0.6-2.5,1.6c-0.8,3,0,7.5,1.5,13.3l-0.4,0.9c-1.1,2.7-2.5,5.3-3.7,7.7l-0.2,0.3c-1.3,2.5-2.4,4.6-3.5,6.4l-1.1,0.6
	c-0.1,0-1.9,1-2.4,1.3c-3.7,2.2-6.1,4.7-6.5,6.7c-0.1,0.6,0,1.4,0.6,1.8l1,0.5c0.5,0.2,0.9,0.3,1.4,0.3c2.6,0,5.7-3.3,9.8-10.6
	c4.8-1.6,10.3-2.9,15.1-3.6c3.7,2.1,8.2,3.5,11,3.5c0.5,0,0.9,0,1.3-0.1c0.5-0.1,1-0.5,1.3-0.9c0.6-0.8,0.7-2,0.5-3.2
	C71,66.5,70.8,66.1,70.5,65.8L70.5,65.8z M31.4,79.7c0.5-1.3,2.4-3.9,5.2-6.2c0.2-0.1,0.6-0.5,1-0.9C34.6,77.3,32.7,79.1,31.4,79.7z
	 M47.9,41.6c0.8,0,1.3,2.1,1.4,4.1c0,2-0.4,3.4-1,4.4c-0.5-1.5-0.7-3.9-0.7-5.5C47.6,44.7,47.6,41.6,47.9,41.6L47.9,41.6L47.9,41.6z
	 M43,68.8c0.6-1,1.2-2.2,1.8-3.3c1.5-2.9,2.5-5.1,3.2-7c1.4,2.6,3.2,4.8,5.3,6.5c0.3,0.2,0.5,0.4,0.8,0.7
	C49.9,66.5,46.2,67.5,43,68.8L43,68.8L43,68.8z M69.7,68.5c-0.3,0.2-1,0.3-1.5,0.3c-1.5,0-3.4-0.7-6.1-1.8c1-0.1,2-0.1,2.8-0.1
	c1.5,0,2,0,3.5,0.4C69.9,67.6,69.9,68.4,69.7,68.5L69.7,68.5z"/>
</svg>
