<?xml version="1.0" encoding="utf-8"?>
<!-- Generator: Adobe Illustrator 21.0.0, SVG Export Plug-In . SVG Version: 6.00 Build 0)  -->
<svg version="1.1" id="Layer_1" xmlns="http://www.w3.org/2000/svg" xmlns:xlink="http://www.w3.org/1999/xlink" x="0px" y="0px"
	 viewBox="0 0 80 80" style="enable-background:new 0 0 80 80;" xml:space="preserve">
<g id="Full_Screen">
	<g>
		<g>
			<g>
				<path d="M34.8,43.5c-0.5,0-0.9,0.2-1.2,0.5L5.5,72.1v-20c0-1-0.8-1.7-1.7-1.7c-1,0-1.7,0.8-1.7,1.7v24.2c0,1,0.8,1.7,1.7,1.7H28
					c1,0,1.7-0.8,1.7-1.7c0-1-0.8-1.7-1.7-1.7H8l28-28.2c0.3-0.3,0.5-0.7,0.5-1.2C36.5,44.2,35.8,43.5,34.8,43.5z M76.3,2H52.1
					c-1,0-1.7,0.8-1.7,1.7c0,1,0.8,1.7,1.7,1.7h20L44,33.6c-0.3,0.3-0.5,0.7-0.5,1.2c0,1,0.8,1.7,1.7,1.7c0.5,0,0.9-0.2,1.2-0.5
					L74.5,7.9v20c0,1,0.8,1.7,1.7,1.7s1.7-0.8,1.7-1.7V3.7C78,2.8,77.2,2,76.3,2z"/>
			</g>
		</g>
	</g>
</g>
</svg>
