<?xml version="1.0" encoding="utf-8"?>
<!-- Generator: Adobe Illustrator 21.0.0, SVG Export Plug-In . SVG Version: 6.00 Build 0)  -->
<svg version="1.1" id="Layer_1" xmlns="http://www.w3.org/2000/svg" xmlns:xlink="http://www.w3.org/1999/xlink" x="0px" y="0px"
	 viewBox="0 0 80 80" style="enable-background:new 0 0 80 80;" xml:space="preserve">
<g id="Grid_12">
	<g>
		<g>
			<g>
				<path d="M19.6,29.8H6c-1.9,0-3.4,1.5-3.4,3.4V74c0,1.9,1.5,3.4,3.4,3.4h13.6c1.9,0,3.4-1.5,3.4-3.4V33.2
					C23,31.3,21.5,29.8,19.6,29.8z M19.6,74H6V33.2h13.6V74z M74,2.5H6C4.1,2.5,2.5,4.1,2.5,6v13.6C2.5,21.5,4.1,23,6,23h68
					c1.9,0,3.4-1.5,3.4-3.4V6C77.5,4.1,75.9,2.5,74,2.5z M74,19.6H6V6h68V19.6z M74,29.8H33.2c-1.9,0-3.4,1.5-3.4,3.4V74
					c0,1.9,1.5,3.4,3.4,3.4H74c1.9,0,3.4-1.5,3.4-3.4V33.2C77.5,31.3,75.9,29.8,74,29.8z M74,74H33.2V33.2H74V74z"/>
			</g>
		</g>
	</g>
</g>
</svg>
