<?xml version="1.0" encoding="utf-8"?>
<!-- Generator: Adobe Illustrator 21.0.0, SVG Export Plug-In . SVG Version: 6.00 Build 0)  -->
<svg version="1.1" id="Layer_1" xmlns="http://www.w3.org/2000/svg" xmlns:xlink="http://www.w3.org/1999/xlink" x="0px" y="0px"
	 viewBox="0 0 17 17" style="enable-background:new 0 0 17 17;" xml:space="preserve">
<g id="Refresh_2">
	<g>
		<g>
			<path d="M8.5,1.2c2.4,0,4.5,1.1,5.8,2.9h-2.9c-0.2,0-0.4,0.2-0.4,0.4c0,0.2,0.2,0.4,0.4,0.4H15c0.2,0,0.4-0.2,0.4-0.4V0.9
				c0-0.2-0.2-0.4-0.4-0.4s-0.4,0.2-0.4,0.4v2.6C13.2,1.6,11,0.5,8.5,0.5c-4.4,0-8,3.6-8,8c0,0.2,0.2,0.4,0.4,0.4s0.4-0.2,0.4-0.4
				C1.2,4.5,4.5,1.2,8.5,1.2z M16.1,8.1c-0.2,0-0.4,0.2-0.4,0.4c0,4-3.3,7.3-7.3,7.3c-2.4,0-4.5-1.1-5.8-2.9h2.9
				c0.2,0,0.4-0.2,0.4-0.4c0-0.2-0.2-0.4-0.4-0.4H2c-0.2,0-0.4,0.2-0.4,0.4v3.6c0,0.2,0.2,0.4,0.4,0.4s0.4-0.2,0.4-0.4v-2.6
				c1.5,1.8,3.7,2.9,6.2,2.9c4.4,0,8-3.6,8-8C16.5,8.3,16.3,8.1,16.1,8.1z"/>
			<path d="M8.5,1.2c2.4,0,4.5,1.1,5.8,2.9h-2.9c-0.2,0-0.4,0.2-0.4,0.4c0,0.2,0.2,0.4,0.4,0.4H15c0.2,0,0.4-0.2,0.4-0.4V0.9
				c0-0.2-0.2-0.4-0.4-0.4s-0.4,0.2-0.4,0.4v2.6C13.2,1.6,11,0.5,8.5,0.5c-4.4,0-8,3.6-8,8c0,0.2,0.2,0.4,0.4,0.4s0.4-0.2,0.4-0.4
				C1.2,4.5,4.5,1.2,8.5,1.2z M16.1,8.1c-0.2,0-0.4,0.2-0.4,0.4c0,4-3.3,7.3-7.3,7.3c-2.4,0-4.5-1.1-5.8-2.9h2.9
				c0.2,0,0.4-0.2,0.4-0.4c0-0.2-0.2-0.4-0.4-0.4H2c-0.2,0-0.4,0.2-0.4,0.4v3.6c0,0.2,0.2,0.4,0.4,0.4s0.4-0.2,0.4-0.4v-2.6
				c1.5,1.8,3.7,2.9,6.2,2.9c4.4,0,8-3.6,8-8C16.5,8.3,16.3,8.1,16.1,8.1z"/>
		</g>
	</g>
</g>
</svg>
