<?xml version="1.0" encoding="utf-8"?>
<!-- Generator: Adobe Illustrator 19.2.1, SVG Export Plug-In . SVG Version: 6.00 Build 0)  -->
<svg version="1.1" id="Layer_1" xmlns="http://www.w3.org/2000/svg" xmlns:xlink="http://www.w3.org/1999/xlink" x="0px" y="0px"
	 viewBox="0 0 20 20" style="enable-background:new 0 0 20 20;" xml:space="preserve">
<style type="text/css">
	.st0{fill:none;stroke:#000000;stroke-miterlimit:10;}
</style>
<path class="st0" d="M1.9,1.7C1.2,1.7,0.7,2.3,0.7,3v7.4c0,0.7,0.5,1.2,1.2,1.2h1.8V14l2.5-2.5h5.5c0.7,0,1.2-0.5,1.2-1.2V3
	c0-0.7-0.5-1.2-1.2-1.2H1.9z"/>
<g>
	<g>
		<path class="st0" d="M18.1,6H13v4.2c0,0.7-0.6,1.3-1.3,1.3H7v3c0,0.7,0.5,1.2,1.2,1.2h5.5l2.5,2.5v-2.5h1.8c0.7,0,1.2-0.5,1.2-1.2
			V7.2C19.3,6.6,18.8,6,18.1,6z"/>
	</g>
</g>
</svg>
