<?xml version="1.0" encoding="utf-8"?>
<!-- Generator: Adobe Illustrator 19.2.1, SVG Export Plug-In . SVG Version: 6.00 Build 0)  -->
<svg version="1.1" id="Layer_1" xmlns="http://www.w3.org/2000/svg" xmlns:xlink="http://www.w3.org/1999/xlink" x="0px" y="0px"
	 viewBox="0 0 100 100" style="enable-background:new 0 0 100 100;" xml:space="preserve">
<g id="_x37_7_Essential_Icons">
	<path id="Document" d="M79.2,32.4L57.4,10.6C57,10.2,56.5,10,56,10H24c-2.2,0-4,1.8-4,4v72c0,2.2,1.8,4,4,4h52c2.2,0,4-1.8,4-4
		V33.7C79.9,33.1,79.6,32.8,79.2,32.4z M58,16.8L73.2,32H58V16.8z M76,86H24V14h30v20c0,1.1,0.9,2,2,2h20V86z"/>
</g>
<g id="Guides">
</g>
<g>
	<g>
		<path d="M60.8,41.9H30.4v3.8h30.4V41.9z M30.4,50.7v3.8h39.3v-3.8H30.4z M30.4,63.4h39.3v-3.8H30.4V63.4z M30.4,72.3h39.3v-3.8
			H30.4V72.3z M30.4,81.2h39.3v-3.8H30.4V81.2z"/>
	</g>
</g>
</svg>
