<?xml version="1.0" encoding="utf-8"?>
<!-- Generator: Adobe Illustrator 19.2.1, SVG Export Plug-In . SVG Version: 6.00 Build 0)  -->
<svg version="1.1" id="Layer_1" xmlns="http://www.w3.org/2000/svg" xmlns:xlink="http://www.w3.org/1999/xlink" x="0px" y="0px"
	 viewBox="0 0 100 100" style="enable-background:new 0 0 100 100;" xml:space="preserve">
<g id="_x37_7_Essential_Icons">
	<path id="Document" d="M79.2,32.4L57.4,10.6C57,10.2,56.5,10,56,10H24c-2.2,0-4,1.8-4,4v72c0,2.2,1.8,4,4,4h52c2.2,0,4-1.8,4-4
		V33.7C79.9,33.1,79.6,32.8,79.2,32.4z M58,16.8L73.2,32H58V16.8z M76,86H24V14h30v20c0,1.1,0.9,2,2,2h20V86z"/>
</g>
<g id="Guides">
</g>
<g>
	<g>
		<path d="M70,40.5H30c-0.7,0-1.3,0.6-1.3,1.3s0.6,1.3,1.3,1.3h18.7v1.3H35.3c-1.5,0-2.7,1.2-2.7,2.7v18.7c0,1.5,1.2,2.7,2.7,2.7
			h13.3v4c-0.2,0-0.5,0-0.7,0.2L38.7,78c-0.6,0.4-0.9,1.2-0.5,1.8c0.4,0.6,1.2,0.9,1.8,0.5l8.6-5v6.5c0,0.7,0.6,1.3,1.3,1.3
			s1.3-0.6,1.3-1.3v-6.5l8.6,5c0.6,0.4,1.5,0.1,1.8-0.5c0.4-0.6,0.2-1.5-0.5-1.8L52,72.7c-0.2-0.1-0.5-0.2-0.7-0.2v-4h13.3
			c1.5,0,2.7-1.2,2.7-2.7V47.2c0-1.5-1.2-2.7-2.7-2.7H51.3v-1.3H70c0.7,0,1.3-0.6,1.3-1.3S70.7,40.5,70,40.5z"/>
	</g>
</g>
</svg>
