<?xml version="1.0" encoding="utf-8"?>
<!-- Generator: Adobe Illustrator 20.0.0, SVG Export Plug-In . SVG Version: 6.00 Build 0)  -->
<svg version="1.1" id="Layer_1" xmlns="http://www.w3.org/2000/svg" xmlns:xlink="http://www.w3.org/1999/xlink" x="0px" y="0px"
	 viewBox="0 0 100 100" style="enable-background:new 0 0 100 100;" xml:space="preserve">
<g>
	<path d="M50,2.1c-12.8,0-24.8,5-33.9,14c-9,9-14,21.1-14,33.9s5,24.8,14,33.9s21.1,14,33.9,14c12.8,0,24.8-5,33.9-14
		c18.7-18.7,18.7-49,0-67.7C74.8,7.1,62.8,2.1,50,2.1z M70.2,12.9L59.6,23.5c-2.9-1.1-6.1-1.6-9.3-1.6c-3.2,0-6.2,0.6-9.1,1.6
		L30.3,12.6C36.3,9.5,43,7.8,50,7.8C57.2,7.8,64.1,9.6,70.2,12.9z M34.9,64.6c-8.5-8.5-8.5-22.2,0-30.7c4.1-4.1,9.6-6.4,15.4-6.4
		s11.3,2.3,15.4,6.4c8.5,8.5,8.5,22.2,0,30.7c-4.1,4.1-9.6,6.4-15.4,6.4C44.5,71,39,68.7,34.9,64.6z M13.9,28.2l11,11
		c-2.4,6.2-2.5,13.1-0.3,19.3L12.9,70.2c-3.3-6.1-5.1-13-5.1-20.2C7.8,42.2,9.9,34.7,13.9,28.2z M28.7,86.4l11.7-11.7
		c3.1,1.2,6.5,1.9,9.9,1.9c3.5,0,6.9-0.7,10.1-1.9l11.5,11.5c-6.5,3.9-14,6.1-21.8,6.1C42.4,92.2,35.1,90.2,28.7,86.4z M87.4,69.7
		L76.1,58.4c2.2-6.2,2.1-12.9-0.3-19.1l10.7-10.7C93.8,41.2,94.1,56.8,87.4,69.7z"/>
</g>
</svg>
