<?xml version="1.0" encoding="utf-8"?>
<!-- Generator: Adobe Illustrator 19.1.0, SVG Export Plug-In . SVG Version: 6.00 Build 0)  -->
<svg version="1.1" id="Layer_1" xmlns="http://www.w3.org/2000/svg" xmlns:xlink="http://www.w3.org/1999/xlink" x="0px" y="0px"
	 viewBox="-389 291 20 20" style="enable-background:new -389 291 20 20;" xml:space="preserve">
<path d="M-377.8,305.1h-0.6v-5.3c0,0,0,0,0,0c0,0,0,0,0,0c0-0.3-0.3-0.6-0.6-0.6h-1.2c-0.3,0-0.6,0.3-0.6,0.6s0.3,0.6,0.6,0.6h0.6
	v4.7h-0.6c-0.3,0-0.6,0.3-0.6,0.6s0.3,0.6,0.6,0.6h2.4c0.3,0,0.6-0.3,0.6-0.6S-377.5,305.1-377.8,305.1z M-379,298.1
	c0.7,0,1.2-0.5,1.2-1.2s-0.5-1.2-1.2-1.2s-1.2,0.5-1.2,1.2S-379.7,298.1-379,298.1z M-379,291.6c-5.2,0-9.4,4.2-9.4,9.4
	c0,5.2,4.2,9.4,9.4,9.4c5.2,0,9.4-4.2,9.4-9.4C-369.6,295.8-373.8,291.6-379,291.6z M-379,309.3c-4.6,0-8.3-3.7-8.3-8.3
	c0-4.6,3.7-8.3,8.3-8.3c4.6,0,8.3,3.7,8.3,8.3C-370.7,305.6-374.4,309.3-379,309.3z"/>
</svg>
