<?xml version="1.0" encoding="utf-8"?>
<!-- Generator: Adobe Illustrator 21.0.0, SVG Export Plug-In . SVG Version: 6.00 Build 0)  -->
<svg version="1.1" id="Layer_1" xmlns="http://www.w3.org/2000/svg" xmlns:xlink="http://www.w3.org/1999/xlink" x="0px" y="0px"
	 viewBox="0 0 80 80" style="enable-background:new 0 0 80 80;" xml:space="preserve">
<g id="Server_Connections_x40_">
	<g>
		<g>
			<g>
				<path d="M63.8,77.4c-3.8,0-6.8-3-6.8-6.8v-6.8c0-3.8,3-6.8,6.8-6.8h6.8c1.8,0,3.6,0.8,4.9,2.1c1.3,1.3,1.9,3,1.9,4.7v6.8
					c0,3.8-3,6.8-6.8,6.8H63.8z M63.8,60.4c-1.9,0-3.4,1.5-3.4,3.4v6.8c0,1.9,1.5,3.4,3.4,3.4h6.8c1.9,0,3.4-1.5,3.4-3.4v-6.8
					c0-1.9-1.5-3.4-3.4-3.4H63.8z M36.6,77.4c-3.8,0-6.8-3-6.8-6.8v-6.8c0-3.8,3-6.8,6.8-6.8h6.8c3.7,0,6.8,3.1,6.8,6.8v6.8
					c0,3.8-3,6.8-6.8,6.8H36.6z M36.6,60.4c-1.9,0-3.4,1.5-3.4,3.4v6.8c0,1.9,1.5,3.4,3.4,3.4h6.8c1.9,0,3.4-1.5,3.4-3.4v-6.8
					c0-1.9-1.5-3.4-3.4-3.4H36.6z M9.4,77.4c-3.8,0-6.8-3-6.8-6.8v-6.8c0-3.8,3-6.8,6.8-6.8h6.8c3.7,0,6.8,3.1,6.8,6.8v6.8
					c0,3.8-3,6.8-6.8,6.8H9.4z M9.4,60.4c-1.9,0-3.4,1.5-3.4,3.4v6.8C6,72.5,7.5,74,9.4,74h6.8c1.9,0,3.4-1.5,3.4-3.4v-6.8
					c0-1.9-1.5-3.4-3.4-3.4H9.4z M67.2,53.6c-0.9,0-1.7-0.8-1.7-1.7V41c0-0.6-0.4-1-1-1H42.7c-0.6,0-1,0.4-1,1v10.9
					c0,0.9-0.8,1.7-1.7,1.7c-0.9,0-1.7-0.8-1.7-1.7V41c0-0.6-0.4-1-1-1H15.5c-0.6,0-1,0.4-1,1v10.9c0,0.9-0.8,1.7-1.7,1.7
					c-1,0-1.7-0.7-1.7-1.7V38.3c0-0.9,0.8-1.7,1.7-1.7h24.5c0.6,0,1-0.4,1-1v-7.5c0-0.9,0.8-1.7,1.7-1.7c0.9,0,1.7,0.8,1.7,1.7v7.5
					c0,0.6,0.4,1,1,1h24.5c0.9,0,1.7,0.8,1.7,1.7v13.6C68.9,52.8,68.1,53.6,67.2,53.6z M36.6,23c-3.7,0-6.8-3.1-6.8-6.8V9.4
					c0-3.8,3-6.8,6.8-6.8h6.8c3.8,0,6.8,3,6.8,6.8v6.8c0,3.8-3,6.8-6.8,6.8H36.6z M36.6,6c-1.9,0-3.4,1.5-3.4,3.4v6.8
					c0,1.9,1.5,3.4,3.4,3.4h6.8c1.9,0,3.4-1.5,3.4-3.4V9.4c0-1.9-1.5-3.4-3.4-3.4H36.6z"/>
			</g>
		</g>
	</g>
</g>
</svg>
