<?xml version="1.0" encoding="utf-8"?>
<!-- Generator: Adobe Illustrator 19.2.1, SVG Export Plug-In . SVG Version: 6.00 Build 0)  -->
<svg version="1.1" id="Layer_1" xmlns="http://www.w3.org/2000/svg" xmlns:xlink="http://www.w3.org/1999/xlink" x="0px" y="0px"
	 viewBox="0 0 100 100" style="enable-background:new 0 0 100 100;" xml:space="preserve">
<g>
	<path d="M13.5,49.4l28-38.6c0.4-0.6,1.4-0.7,2-0.3L77.6,39l3.7-0.6l-36.1-30c-1.9-1.4-4.6-1.1-6,0.7L9.5,50.1L13.5,49.4z"/>
	<path d="M13.7,92.5c-0.7,0-1.2-0.5-1.3-1.2L5.8,51.9c-0.1-0.5,0.1-0.8,0.2-1c0.2-0.3,0.5-0.5,0.9-0.5l0,0c0.9-0.1,5.9-0.9,39.8-6.5
		c18.7-3.1,38-6.2,39.6-6.5c0.5,0,1.2,0.5,1.3,1.2L94.2,78c0.1,0.5-0.1,0.8-0.2,1c-0.2,0.3-0.5,0.5-0.9,0.5l0,0
		c-0.9,0.1-5.9,0.9-39.8,6.5C34.6,89.1,15.3,92.3,13.7,92.5z M8.6,52.9l6.1,36.9l76.4-12.7L85,40.2L8.6,52.9z"/>
	<g>
		<path d="M17.2,71L17.2,71c-0.7-4.6,2.1-8.9,7.2-9.6c4.9-0.9,9,2.3,9.7,6.7l0,0c0.6,4.7-2.4,9-7.2,9.6C22.1,78.3,18.1,75.4,17.2,71
			z M30.5,68.7L30.5,68.7C30.1,66,27.7,64,25,64.4c-2.9,0.4-4.4,3-4,5.7l0,0c0.4,2.7,2.9,4.7,5.6,4.1C29.4,74,31,71.4,30.5,68.7
			L30.5,68.7z"/>
		<path d="M36.3,61.4c-0.1-1,0.4-1.9,1.4-2l0,0l4.7-0.7c3.7-0.6,6.4,1.3,7,4.4l0,0c0.6,3.7-2,6-5.4,6.6l-2.7,0.4l0.6,3.1
			c0.1,1-0.4,1.9-1.4,2c-1,0.1-1.9-0.4-2-1.4L36.3,61.4z M43.4,66.6c1.7-0.3,2.6-1.4,2.4-2.9l0,0c-0.3-1.6-1.4-2.3-3.3-2L40,62.3
			l0.9,4.9C40.7,67.1,43.4,66.6,43.4,66.6z"/>
		<path d="M53.3,71.3l-2-12.3c-0.1-1,0.4-1.9,1.4-2l0,0l8.7-1.4c0.9-0.1,1.7,0.4,1.9,1.3c0.1,0.9-0.4,1.7-1.3,1.9l-7,1.1l0.6,3.1
			l6-1c0.9-0.1,1.7,0.4,1.9,1.3c0.1,0.9-0.4,1.7-1.3,1.9l-6,1l0.6,3.3l7.2-1.1c0.9-0.1,1.7,0.4,1.9,1.3c0.1,0.9-0.4,1.7-1.3,1.9
			l-8.9,1.4C54.4,72.9,53.6,72.3,53.3,71.3L53.3,71.3L53.3,71.3z M66.5,56.3c-0.1-1,0.4-1.9,1.4-2l0,0h0.4c0.9-0.1,1.4,0.1,2,0.7
			l8.2,7.7l-1.3-8.2c-0.1-1,0.6-1.9,1.6-2c0.9-0.1,1.7,0.4,1.9,1.4l2,12.6c0.1,1-0.4,1.9-1.4,2l0,0h-0.1c-0.9,0.1-1.4-0.1-2-0.7
			l-8.4-8l1.4,8.4c0.1,1-0.4,1.9-1.4,2c-1,0.1-1.9-0.4-2-1.4l0,0L66.5,56.3L66.5,56.3z"/>
	</g>
</g>
</svg>
