<?xml version="1.0" encoding="utf-8"?>
<!-- Generator: Adobe Illustrator 19.2.1, SVG Export Plug-In . SVG Version: 6.00 Build 0)  -->
<svg version="1.1" id="Layer_1" xmlns="http://www.w3.org/2000/svg" xmlns:xlink="http://www.w3.org/1999/xlink" x="0px" y="0px"
	 viewBox="0 0 100 100" style="enable-background:new 0 0 100 100;" xml:space="preserve">
<path d="M28.1,64.6L28.1,64.6c-0.5-3.2,1.5-6.2,5-6.7c3.4-0.6,6.3,1.6,6.8,4.7l0,0c0.4,3.3-1.7,6.3-5,6.7
	C31.5,69.7,28.7,67.7,28.1,64.6z M37.4,63L37.4,63c-0.3-1.9-2-3.3-3.9-3c-2,0.3-3.1,2.1-2.8,4l0,0c0.3,1.9,2,3.3,3.9,2.9
	C36.6,66.7,37.7,64.9,37.4,63L37.4,63z"/>
<path d="M25.4,48.3l19.6-27c0.3-0.4,1-0.5,1.4-0.2L70.2,41l2.6-0.4L47.6,19.6c-1.3-1-3.2-0.8-4.2,0.5L22.6,48.8
	C22.6,48.8,25.4,48.3,25.4,48.3z"/>
<path d="M74.6,44.3L78.5,68l-51.3,8.5l-3.9-23.7L74.6,44.3 M76.3,40c-0.3,0-55.3,9.1-55.6,9.1c-1.1,0.2-1.8,1.2-1.6,2.3l4.6,27.6
	c0.2,1,1,1.7,2,1.7c0.3,0,55.3-9.1,55.6-9.1c1.1-0.2,1.8-1.2,1.6-2.3l-4.6-27.6C78.1,40.7,77.2,40,76.3,40L76.3,40z"/>
<path d="M41.4,57.9c-0.1-0.7,0.3-1.3,1-1.4c0,0,0,0,0,0l3.3-0.5c2.6-0.4,4.5,0.9,4.9,3.1l0,0c0.4,2.6-1.4,4.2-3.8,4.6L44.9,64
	l0.4,2.2c0.1,0.7-0.3,1.3-1,1.4s-1.3-0.3-1.4-1L41.4,57.9z M46.4,61.5c1.2-0.2,1.8-1,1.7-2l0,0c-0.2-1.1-1-1.6-2.3-1.4L44,58.5
	l0.6,3.4C44.5,61.9,46.4,61.5,46.4,61.5z"/>
<path d="M53.3,64.8l-1.4-8.6c-0.1-0.7,0.3-1.3,1-1.4c0,0,0,0,0,0l6.1-1c0.6-0.1,1.2,0.3,1.3,0.9c0.1,0.6-0.3,1.2-0.9,1.3l-4.9,0.8
	l0.4,2.2l4.2-0.7c0.6-0.1,1.2,0.3,1.3,0.9s-0.3,1.2-0.9,1.3l-4.2,0.7l0.4,2.3l5-0.8c0.6-0.1,1.2,0.3,1.3,0.9
	c0.1,0.6-0.3,1.2-0.9,1.3l-6.2,1C54.1,65.9,53.5,65.5,53.3,64.8C53.3,64.8,53.3,64.8,53.3,64.8L53.3,64.8z M62.5,54.3
	c-0.1-0.7,0.3-1.3,1-1.4c0,0,0,0,0,0l0.3,0c0.6-0.1,1,0.1,1.4,0.5l5.7,5.4l-0.9-5.7c-0.1-0.7,0.4-1.3,1.1-1.4c0.6-0.1,1.2,0.3,1.3,1
	l1.4,8.8c0.1,0.7-0.3,1.3-1,1.4c0,0,0,0,0,0l-0.1,0c-0.6,0.1-1-0.1-1.4-0.5l-5.9-5.6l1,5.9c0.1,0.7-0.3,1.3-1,1.4s-1.3-0.3-1.4-1
	l0,0L62.5,54.3L62.5,54.3z"/>
</svg>
