<?xml version="1.0" encoding="utf-8"?>
<!-- Generator: Adobe Illustrator 19.2.1, SVG Export Plug-In . SVG Version: 6.00 Build 0)  -->
<svg version="1.1" id="Layer_1" xmlns="http://www.w3.org/2000/svg" xmlns:xlink="http://www.w3.org/1999/xlink" x="0px" y="0px"
	 viewBox="0 0 32 32" style="enable-background:new 0 0 32 32;" xml:space="preserve">
<style type="text/css">
	.st0{fill:#FFFFFF;stroke:#FFFFFF;stroke-miterlimit:10;}
	.st1{fill:none;stroke:#000000;stroke-width:0.8;stroke-miterlimit:10;}
</style>
<g>
	<rect x="12.5" y="20" class="st0" width="7.5" height="10"/>
	<path d="M5,31.4c-0.8,0-1.4-0.6-1.4-1.4V16.4H3c-1.3,0-2.4-1.1-2.4-2.4v-1c0-0.5,0.2-1,0.5-1.4l3-4c0.1-0.1,0.2-0.2,0.3-0.3L4.6,7
		V2c0-0.8,0.6-1.4,1.4-1.4h20c0.8,0,1.4,0.6,1.4,1.4v5l0.2,0.2c0.1,0.1,0.2,0.2,0.3,0.3l3,4c0.3,0.4,0.5,0.9,0.5,1.4v1
		c0,1.3-1.1,2.4-2.4,2.4h-0.6V30c0,0.8-0.6,1.4-1.4,1.4H5z M27.6,30.6V16.4H4.4v14.2h16.2C20.6,30.6,27.6,30.6,27.6,30.6z M29,15.6
		c0.9,0,1.6-0.7,1.6-1.6v-1c0-0.3-0.1-0.7-0.3-1l-3-4C27,7.6,26.5,7.4,26,7.4H6C5.5,7.4,5,7.6,4.7,8l-3,4c-0.2,0.3-0.3,0.6-0.3,1v1
		c0,0.9,0.7,1.6,1.6,1.6h24H29z M5.4,6.6h21.2V1.4H5.4V6.6z"/>
	<g>
		<polygon points="10.6,7.2 7.2,7.2 2.4,15.8 6,15.8 		"/>
		<polygon points="13.8,7.2 10.6,7.2 8.4,15.8 11.7,15.8 		"/>
		<polygon points="17.1,7.2 14.4,7.2 14.2,15.8 17.2,15.8 		"/>
		<polygon points="17.6,7.2 20.7,7.2 23,15.8 19.7,15.8 		"/>
		<polygon points="20.8,7.2 24.5,7.2 29.6,15.8 25.8,15.8 		"/>
	</g>
	<path class="st1" d="M20.6,31h-9.1V20c0-0.5,0.4-0.9,0.9-0.9h7.3c0.5,0,0.9,0.4,0.9,0.9V31z"/>
</g>
</svg>
