<?xml version="1.0" encoding="utf-8"?>
<!-- Generator: Adobe Illustrator 19.2.1, SVG Export Plug-In . SVG Version: 6.00 Build 0)  -->
<svg version="1.1" id="Layer_1" xmlns="http://www.w3.org/2000/svg" xmlns:xlink="http://www.w3.org/1999/xlink" x="0px" y="0px"
	 viewBox="0 0 100 100" style="enable-background:new 0 0 100 100;" xml:space="preserve">
<title>tools</title>
<desc>Created with Sketch Beta.</desc>
<path d="M15.7,97.7c-1.3,0-2.5-0.3-3.5-0.8c-4-1.8-6.1-5.9-5.1-9.9c0.6-2.9,3.2-5.5,5.3-7.6c0.5-0.5,1-1,1.4-1.5
	c1.3-1.4,2.6-2.7,3.9-4.1c1.7-1.7,3.4-3.5,5.1-5.3l15.5-17.2c1.8-1.9,3.5-4,5.2-5.9c1.1-1.3,2.3-2.7,3.4-4.1
	c0.8-0.9,1.7-1.8,2.7-2.8c2.1-2.1,4.5-4.5,5.4-6.7c0.4-1,0.7-2.4,0.9-3.7c0.2-0.9,0.3-1.7,0.5-2.4c0.6-2.1,0.9-4.2,1.2-6.5
	c0.2-1.2,0.1-2.4,0.1-3.4c-0.1-1.9-0.1-3.8,1-6.2l0.4-0.8L60,9c0.8,0.1,1.4,0.4,2,0.6c0.4,0.2,0.8,0.3,1.2,0.4
	c0.3-0.2,0.6-0.5,0.8-0.7c2.3-1.9,4.6-3.8,7.5-5C74.1,3,78.9,1,80.6,2.6c0,0,0,0,0,0l0.6,0.6L80.8,4c-0.3,0.7-0.5,1.2-0.7,1.6
	l-4.7,10.3c0.1,0.1,0.3,0.2,0.4,0.2c1.6,0.9,5.9,3.3,6.9,2.3c1.7-1.6,2.8-4.6,3.8-7.3c0.5-1.5,1.1-2.8,1.6-4L89,5.5l1.2,1.2
	c4.5,4.5,5.9,15.9,2.7,21.9c-1.7,3-5.6,4.1-8.8,5.1c-0.5,0.2-1,0.3-1.5,0.4c-0.7,0.2-1.3,0.4-2,0.7c-3.2,1-6.5,2.1-9.3,3.9
	c-0.5,0.4-1.1,0.7-1.6,1.1c-2.7,1.8-5.3,3.4-7.2,5.8c-1.7,2.1-3.5,4.3-5.2,6.4c-0.9,1.1-1.8,2.1-2.6,3.2L39.3,73.9
	c-2.5,3.1-5.1,6.3-7.5,9.4c-2.6,3.3-5.3,6.7-8,9.9C20.9,96.6,18.1,97.7,15.7,97.7z M60.5,11.7c-0.5,1.4-0.4,2.6-0.4,4
	c0,1.1,0.1,2.4-0.1,3.8c-0.3,2.2-0.6,4.5-1.2,6.8c-0.2,0.7-0.3,1.5-0.5,2.3c-0.3,1.4-0.6,2.9-1,4.1c-1.1,2.7-3.7,5.3-5.9,7.5
	c-1,1-1.9,1.9-2.6,2.7c-1.2,1.3-2.3,2.7-3.4,4c-1.7,2-3.4,4.1-5.2,6L24.6,70.2c-1.7,1.8-3.4,3.7-5.1,5.4c-1.3,1.3-2.6,2.7-3.9,4
	c-0.4,0.5-0.9,1-1.5,1.5c-1.8,1.9-4.1,4.2-4.6,6.4c-0.7,2.9,0.8,5.8,3.7,7.1c3,1.3,5.8,0.3,8.6-3.1c2.7-3.3,5.4-6.6,8-9.9
	c2.5-3.1,5-6.3,7.5-9.4l15.4-18.7c0.9-1.1,1.7-2.1,2.6-3.2c1.7-2.1,3.5-4.2,5.1-6.4c2.1-2.8,5-4.6,7.8-6.4c0.5-0.3,1.1-0.7,1.6-1.1
	c3-2,6.5-3.1,9.9-4.2c0.7-0.2,1.4-0.4,2-0.7c0.5-0.2,1-0.3,1.6-0.5c2.7-0.8,6.1-1.8,7.3-3.9c2.3-4.3,1.6-12.9-1.1-17.4
	c-0.2,0.6-0.5,1.2-0.7,1.9c-1.1,2.9-2.3,6.3-4.4,8.3c-2.3,2.2-6.7-0.2-9.8-1.9c-0.5-0.3-1-0.6-1.4-0.8L72.2,17l5.4-11.7
	c0-0.2,0.1-0.4,0.1-0.6c-1.4,0.3-3.5,1.2-5.2,2c-2.6,1.1-4.8,2.9-6.9,4.6c-0.4,0.3-0.8,0.7-1.2,1l-0.3,0.3h-0.4
	c-1.1,0-1.9-0.4-2.6-0.7C60.8,11.8,60.7,11.8,60.5,11.7z"/>
<circle cx="15.9" cy="89" r="2.5"/>
</svg>
