<?xml version="1.0" encoding="utf-8"?>
<!-- Generator: Adobe Illustrator 19.2.1, SVG Export Plug-In . SVG Version: 6.00 Build 0)  -->
<svg version="1.1" id="Layer_1" xmlns="http://www.w3.org/2000/svg" xmlns:xlink="http://www.w3.org/1999/xlink" x="0px" y="0px"
	 viewBox="0 0 100 100" style="enable-background:new 0 0 100 100;" xml:space="preserve">
<title>tools</title>
<desc>Created with Sketch Beta.</desc>
<path d="M14.9,90.1c-1.2-0.1-2.2-0.5-3.1-1c-3.4-2-4.9-5.8-3.7-9.3c0.8-2.5,3.3-4.6,5.4-6.3c0.5-0.4,1-0.8,1.4-1.2
	c1.3-1.1,2.6-2.2,3.8-3.3c1.7-1.4,3.3-2.8,5-4.3l15.4-14.1c1.8-1.5,3.5-3.3,5.2-4.8c1.1-1.1,2.3-2.2,3.4-3.4
	c0.8-0.7,1.7-1.5,2.7-2.3c2.1-1.7,4.4-3.6,5.4-5.5c0.4-0.9,0.8-2.1,1.1-3.2c0.3-0.8,0.4-1.5,0.7-2.1c0.7-1.8,1.2-3.7,1.6-5.7
	c0.3-1.1,0.3-2.1,0.4-3c0.1-1.7,0.2-3.4,1.4-5.5l0.4-0.7l0.8,0.3c0.7,0.2,1.2,0.5,1.7,0.7l1,0.5c0.3-0.2,0.6-0.4,0.8-0.6
	c2.2-1.5,4.4-3,7.1-3.8c2.4-0.9,6.9-2.3,8.3-0.7l0.5,0.6l-0.4,0.7c-0.3,0.6-0.6,1-0.8,1.4l-5,8.5c0.1,0.1,0.3,0.2,0.3,0.2
	c1.4,0.9,5,3.5,6,2.7c1.7-1.3,2.9-3.9,4-6.2c0.6-1.3,1.2-2.4,1.8-3.4l0.9-1.4l1,1.2c3.6,4.4,3.9,14.7,0.5,19.8
	c-1.8,2.5-5.4,3.2-8.3,3.8c-0.5,0.1-0.9,0.2-1.4,0.2c-0.6,0.1-1.2,0.2-1.9,0.5c-3,0.6-6,1.3-8.7,2.7l-1.5,0.8
	c-2.6,1.4-5,2.6-6.9,4.6c-1.7,1.7-3.5,3.5-5.2,5.3c-0.9,0.9-1.8,1.7-2.6,2.6L38.1,70.8c-2.5,2.6-5.1,5.2-7.5,7.8
	c-2.6,2.7-5.3,5.5-8,8.2C19.6,89.6,17,90.3,14.9,90.1L14.9,90.1z M62.4,17c-0.6,1.2-0.6,2.3-0.7,3.5c-0.1,1-0.1,2.2-0.4,3.4
	c-0.5,1.9-0.9,4-1.7,6c-0.2,0.6-0.4,1.3-0.6,2c-0.4,1.2-0.8,2.5-1.2,3.6c-1.2,2.3-3.8,4.4-5.9,6.2c-1,0.8-1.9,1.5-2.6,2.2
	c-1.2,1.1-2.3,2.2-3.4,3.3c-1.7,1.6-3.4,3.4-5.2,4.9L25.2,66.3c-1.7,1.5-3.4,3-5,4.4c-1.3,1.1-2.6,2.2-3.8,3.2
	c-0.4,0.4-0.9,0.8-1.5,1.2c-1.8,1.5-4,3.4-4.7,5.3c-0.9,2.5,0.2,5.3,2.7,6.7c2.6,1.4,5.2,0.8,8-2c2.7-2.7,5.4-5.4,8-8.2l7.5-7.8
	l15.4-15.4l2.6-2.6c1.7-1.7,3.5-3.5,5.1-5.3c2.1-2.3,4.9-3.7,7.5-5.1c0.5-0.2,1-0.5,1.5-0.8c2.9-1.5,6.1-2.2,9.2-2.9
	c0.6-0.1,1.3-0.2,1.9-0.5c0.5-0.1,0.9-0.2,1.5-0.3c2.5-0.5,5.6-1.1,6.9-2.9c2.4-3.6,2.5-11.4,0.5-15.7c-0.2,0.5-0.6,1-0.8,1.6
	c-1.2,2.5-2.6,5.4-4.7,7c-2.2,1.8-6-0.8-8.6-2.5c-0.4-0.3-0.8-0.6-1.2-0.8l-0.9-0.3l5.8-10l0.1-0.5c-1.3,0.1-3.2,0.8-4.8,1.3
	c-2.4,0.8-4.5,2.2-6.6,3.5l-1.2,0.8l-0.3,0.2h-0.4c-1-0.1-1.7-0.5-2.3-0.9C62.7,17.1,62.6,17.1,62.4,17z"/>
<ellipse transform="matrix(9.603433e-02 -0.9954 0.9954 9.603433e-02 -66.871 89.9129)" cx="16.1" cy="81.8" rx="2.2" ry="2.2"/>
</svg>
