<?xml version="1.0" encoding="utf-8"?>
<!-- Generator: Adobe Illustrator 19.2.1, SVG Export Plug-In . SVG Version: 6.00 Build 0)  -->
<svg version="1.1" id="coas" xmlns="http://www.w3.org/2000/svg" xmlns:xlink="http://www.w3.org/1999/xlink" x="0px" y="0px"
	 viewBox="0 0 792 580.8" style="enable-background:new 0 0 792 580.8;" xml:space="preserve">
<g>
	<path d="M267.5,465.5c-0.5,0.9-1.2,1.6-2.1,2"/>
	<path d="M286,320.4c2.2,0,3.9-1.7,3.9-3.9c0-2.2-1.7-3.9-3.9-3.9c-2.1,0-3.9,1.8-3.9,3.9C282.2,318.7,283.9,320.4,286,320.4
		L286,320.4z"/>
	<path d="M465.8,156.6L465.8,156.6L326,156.5v0.1l0,0l0.1,112.9c0,10.9,4.6,20.4,11,23.4l53.8,32.1c1.2,1.3,2.9,2.2,4.9,2.2
		c1.7,0,3.2-0.7,4.4-1.7l54.6-32.6c6.4-2.9,11-12.5,11-23.4V156.6L465.8,156.6L465.8,156.6z M372.5,189.2h-12.1v-28.9h12.1V189.2
		L372.5,189.2z M363.7,199.3l1.7-1.8l-1.1-2l2.3,0.2l1.3-2.4l1.4,2.4l2.3-0.2l-1.1,2l1.7,1.8l-2.2,0.4v2.4l-2.1-1.5l-2.1,1.5v-2.4
		L363.7,199.3L363.7,199.3z M329.9,235.3v-27.4h14.7v27.4H329.9L329.9,235.3z M332.4,195.6l2.2,0.2l1.4-2.4l1.3,2.4l2.3-0.2l-1.1,2
		l1.7,1.8l-2.2,0.4v2.4l-2.1-1.5l-2.1,1.5v-2.4l-2.2-0.4l1.7-1.8L332.4,195.6L332.4,195.6z M348.9,223.5l2.3,0.2l1.4-2.4l1.3,2.4
		l2.3-0.2l-1.1,2l1.7,1.8l-2.2,0.4v2.4l-2.1-1.6l-2.1,1.6v-2.4l-2.2-0.4l1.7-1.8L348.9,223.5L348.9,223.5z M358.7,201.4
		c-0.1-0.7-1.1-0.9-1.5-0.9c-1.3,0-1.8,2.2-2.9,2.2c-0.8,0-1.4,0.1-1.4-0.9c0-0.7,1.6-1.3,2.3-1.9c-9.1,0-9.2,4.1-10.6,4.1
		c-2.4,0,2-4.4,3.2-5.6c-1.8-0.3-2.9-2.6-4.9-3.7c1-1.4,1.5-0.8,2.7,0.2c0-1,0.7-2.1,2.9-2.1c4,0,2.9,3.9,3.6,3.9s0-3.9,2.7-3.9
		c4,0,9,10.3,4.5,10.3C357.1,203.1,358.7,201.7,358.7,201.4L358.7,201.4z M348.3,171.2l1.7-1.8l-1.1-2l2.3,0.2l1.4-2.4l1.3,2.4
		l2.3-0.2l-1.1,2l1.7,1.8l-2.2,0.4v2.4l-2.1-1.5l-2.1,1.5v-2.4L348.3,171.2L348.3,171.2z M344.6,160.3v28.9h-14.7v-28.9H344.6
		L344.6,160.3z M372.5,309.5l-33.5-20c-5.6-3.8-8.3-10.5-9.1-18.6v-31.8h42.5v70.4H372.5z M360.4,235.3v-27.4h12.1v27.4H360.4
		L360.4,235.3z M415.5,311.8L400,321h-0.3c-1.1,0.9-2.5,1.4-4.1,1.4s-3-0.6-4.1-1.5l-15.4-9.2V239h39.3v72.8H415.5z M415.5,235.3
		h-39.3v-74.9h39.3V235.3L415.5,235.3z M461.8,270.9c-0.7,8.1-3.5,14.8-9.1,18.6l-33.5,20v-70.4h42.5L461.8,270.9L461.8,270.9z
		 M461.8,235.3h-42.5v-74.9h42.5V235.3L461.8,235.3z"/>
	<path d="M370.2,265c-0.2-0.5-5.3,1.7-3.9,1.6c0.1-1.5,3-4.6,4.3-5.7c-0.2-1.8-2.5-0.2-4.9,1.1c8-11.4,2.9-6.7-1.6-5.9
		c7.1-7.6,5.3-7.5,0-5.1c4.1-3.3,5-7.1,4.4-8.3c-3.9,5.1-7.4,4.3-7.4,9.1c0,3.1-1.1,8.3-2.8,10c-2.1,2.2-0.5-8.4-5.9-8.4
		c-1.7,0-5.9-0.1-7.1,2c1.1,0,2.8,2.8,2.8,4c0,1.1,1,4.2-0.8,4.2c-1.9,0-4-3.9-4-5.8c0-1.9-0.1-1.4-0.1-4.1
		c0-4.5-7.3-10.9-10.3-10.9c0,3.1,4.1,3.9,4.1,7.9c-1.8,0-4.2-3.3-4.2-1.3s2.6,2.4,2.6,4.1c0,1.8-3-0.6-3,1.3c0,1.7,1.6,1.4,2,3
		c-1.2-0.3-2.3-0.2-2.5,0.4c-0.2,0.5,0.3,1.2,1.3,1.8c-0.4,0.4-0.8,1.3-0.8,4c0,8.9,5.6,13.1,9.7,13.1c2.9,0,2.5-2,2.8-3
		c0.1,1.5,1.6-0.8,1.6,1.9c0,2.8-2.8,1.5-2.8,3.9c0,3.2,4.5-0.1,4.5,3.4c0,4.3-0.5,4.2-0.5,5.8c0,1.1,4.7-1.6,4.4-2.1
		c1.1,0.4,1.1,3.7,3.2,3.6c1.3,0,1.6-3.4,2.7-3.7c-0.6,0.2,4.2,3.2,4.2,1.7c0-4.1-1.7-2.4-1.7-5.2c0-2.6,5.8-2.1,4.8-3.5
		c-0.8-1.1-1.3-0.4-1.9-2.4c0.1,0.4-4.5-6.6,1-3C369.8,278.2,370.5,265.6,370.2,265L370.2,265z"/>
	<path d="M519.3,294.5c2.6,0,4.6-1.8,4.6-4c0-2.2-2.1-4.1-4.6-4.1s-4.6,1.8-4.6,4.1C514.7,292.7,516.8,294.5,519.3,294.5
		L519.3,294.5z"/>
	<path d="M500.7,305.5c2.5,0,4.6-1.8,4.6-4.1c0-2.2-2-4-4.6-4c-2.5,0-4.6,1.8-4.6,4C496.1,303.7,498.2,305.5,500.7,305.5
		L500.7,305.5z"/>
	<path d="M279.8,331c2.5,0,4.6-1.8,4.6-4c0-2.2-2.1-4.1-4.6-4.1s-4.6,1.8-4.6,4.1C275.2,329.2,277.2,331,279.8,331L279.8,331z"/>
	<path d="M294.1,332.2c2.5,0,4.6-1.8,4.6-4.1c0-2.2-2-4.1-4.6-4.1c-2.5,0-4.6,1.8-4.6,4.1S291.6,332.2,294.1,332.2L294.1,332.2z"/>
	<path d="M691.8,139.5c6.8,8.1,8.3,21.1,3.4,30.4c-2.7-0.2-2.2-3.7-2.7-5.6c-4.9-9.1-8.8-20.6-4.4-30.9
		C691.3,133.8,690.1,137.8,691.8,139.5L691.8,139.5z"/>
	<path d="M108.2,150.5c-1.5,5.9-1.5,14,0,19.4c-1.2,1.2-1-1.2-2.2-1c-9.5-6.9-5.1-20.4-7.6-30c0.5-0.7,1.7-1,2.4-0.5
		C105.3,141.4,107.3,145.6,108.2,150.5L108.2,150.5z"/>
	<path d="M712.8,151.3c1.4,2.7-1.2,5.4-3.2,6.6c-2.2,0.5-4.6-0.7-6.1-2.7c-0.7-2.7,0.7-5.2,2.9-6.4
		C708.9,148.6,711.3,149,712.8,151.3L712.8,151.3z"/>
	<path d="M93.4,162.1c-0.5,2.2-1.2,4.4-3.2,5.4c-1.5,0-3.7,0-4.6-1.2c-1.5-1.2-1.7-3.4-1-5.2c1-1.7,2.9-2,4.6-2.2
		C90.9,159.6,92.6,160.1,93.4,162.1L93.4,162.1z"/>
	<path d="M722.3,166.2c0.5,1.5,0.5,2.5,0,3.9c-1.7,2.2-4.1,3.2-6.6,2.2c-1.7-1-2.2-2.7-2.7-4.2c0.5-2,2.4-3.7,4.1-4.4
		C719.4,163.8,720.8,165,722.3,166.2L722.3,166.2z"/>
	<path d="M708.4,166.5c1.9,1,0.5,3.4,0.2,4.9c-1.2,1.2-2.9,3.2-5.1,2.5c-1.2-1.2-2.7-1.2-3.2-2.9c0-2.5,1-4.9,3.4-5.6
		C705.7,164.8,707,165.7,708.4,166.5L708.4,166.5z"/>
	<path d="M690.6,170.2c0,2.7,0.2,6.2-2.9,6.6c-2.9,1-4.9-1.5-5.6-3.4c-0.2-2.5,1.2-4.9,3.7-5.9C687.7,167.5,689.4,168.7,690.6,170.2
		L690.6,170.2z"/>
	<path d="M119.9,171.4c0.7,2.5-1.7,3.9-3.2,5.2c-1.7,0.5-3.9-1-4.9-2.7c-1.7-1.7,0.5-3.2,1-4.7C115.3,167,119,168.7,119.9,171.4
		L119.9,171.4z"/>
	<path d="M105.3,172.1c0,2-1,3.9-2.7,4.7c-2,0.7-3.9-0.7-4.9-2.2c-1.2-2.4,0.3-4.7,2.2-5.6C102.6,168,104.3,170.4,105.3,172.1
		L105.3,172.1z"/>
	<path d="M631.6,173.1c2.4,5.1,4.4,11.3,4.9,17.7c-1,4.7,0.7,10.8-2.7,14c-3.4-1.2-3.6-5.4-5.8-7.6c-4.4-8.6-0.5-18.7,1-27
		C630.9,169.4,630.9,171.9,631.6,173.1L631.6,173.1z"/>
	<path d="M93.8,176.1c0.7,2.9-1.4,4.4-3.2,6.1c-2.9,0.7-4.9-1.5-6.1-3.4c-0.2-2.4,1.2-4.9,3.2-5.9C90.2,172.6,92.6,173.8,93.8,176.1
		L93.8,176.1z"/>
	<path d="M670.1,183.2c3.2,7.1,3.4,15.7,1.2,23.6l-1.5,1.2c-3.4-6.6-8.3-12.8-10-19.9c0-5.2,1-9.8,2.9-14c1.7-1.2,2.7,0.2,3.4,1.7
		C666.5,178.5,667.7,181.7,670.1,183.2L670.1,183.2z"/>
	<path d="M700.9,178.8c-0.2,2.5-1.2,5.2-3.7,5.9c-2.4,0.5-4.8-0.2-5.6-2.9c-0.7-2.5,0.7-4.7,2.7-5.9
		C697,174.3,699.6,176.8,700.9,178.8L700.9,178.8z"/>
	<path d="M105.6,186.4c0,2-1.7,4.2-3.7,4.7c-1.9,1.5-3.4-1-5.1-1.7c-0.7-2-1.2-3.7,0-5.6c0.7-1.5,2.4-1.5,3.9-2
		C102.9,182.9,105.1,183.9,105.6,186.4L105.6,186.4z"/>
	<path d="M116.3,185.1c1,2.4-1.7,3.7-2.7,4.9c-2.9,1-4.4-1.2-5.6-2.9c-0.5-2.5,1-3.9,2.7-5.4C113.6,181,115.1,182.9,116.3,185.1
		L116.3,185.1z"/>
	<path d="M707.7,184.4c-0.2,3.2-5.1,6.4-5.6,9.6c-2.7,6.6-8.5,11.5-15.1,13.8c-1.4,1.2-3.4,2.9-5.6,3.2c-0.5-4.9,3.9-9.3,6.6-13.7
		C693.1,190.5,700.1,186.4,707.7,184.4L707.7,184.4z"/>
	<path d="M100.7,194.7c3.7,4.2,5.6,7.9,10,11.5c0.3,1-0.5,2.5-1.7,2.5c-12-0.7-20-13-25.9-21.6c0.7-2.7,3.9-0.5,5.6-0.7
		C92.9,189.6,97.5,190.5,100.7,194.7L100.7,194.7z"/>
	<path d="M711.1,198.1c-0.5,10.6-5.6,21.4-15.1,26.5c-2.7,1-5.6,3.7-8.3,2c5.1-10.6,12.9-19.1,21.5-28.5H711.1L711.1,198.1z"/>
	<path d="M664.3,205.3c0.7,3.7-1.2,5.9-4.2,7.1c-2.7,0.2-4.4-2-5.6-3.9c-0.2-2.4,1.2-4.7,3.4-5.4c0.7-0.7,1.9-0.7,2.9-0.7
		C662.3,202.8,663.1,204,664.3,205.3L664.3,205.3z"/>
	<path d="M87.3,207.5c4.6,3.2,8.8,7.6,13.2,11.5c-3.1,2.2-7,0.2-10.7,0.2c-8.3-2.9-13.9-10.1-22.4-12.5c0.3-2.7,3.4-1.7,5.1-2.5
		C77.8,203.8,82.2,206.2,87.3,207.5L87.3,207.5z"/>
	<path d="M348.4,134.8c-13.7-5.4-22.7,8.8-36.6,7.1c-1.7,1-1.2,2.7-2.2,3.9c-0.7,0.7-2,0.2-2.7-0.2c-0.7-5.9-2.7-11.3-3.4-17
		c-1.4-2.4-0.7-5.9-1.9-8.3c-7.8-21.4,19-5.2,24.4-17.7c4.6-10.8-9-12-13.2-19.6v-3.2c-3.9-3.9-8.1-5.2-10.5-10.3
		c1.7-6.1,2.4-12.8,0.7-18.9c-0.2-1.5-1.2-3.4-3.4-2.7c-4.6,6.4-8,11.5-12.4,17.7c-4.6-3.4-9-7.9-14.4-10.8
		c-3.7-0.5-7.1-4.2-11.2-2.7c-0.7,1.5,0,2.7,0.7,3.7c0.2,9.6,5.1,17.2,11.9,24.1l0.7,3.7c-4.4,10.1-3.2,21.6-4.4,32.4
		c-11,28-28.8,55-52.9,74.4c-13.9,15.7-30.5,30.9-32.7,52.5c-0.7,3.4,0.5,7.6-2.2,10.1c-8-3-16.1-6.9-22.7-12
		c-11.2-7.9-27.3-6.9-34.6-21.1c-3-5.6,0.7-11.3,3.4-15.5c8.3-7.9,7.1-21.9,2.7-31.4c-1-0.3-1.2,1-1.9,1.2
		c-0.7,14.5-12.2,24.5-7.8,40.5c1,4.7,3.4,7.6,4.6,12c-1.7-0.5-4.1-0.5-5.6-1.2c-5.4-0.7-10.7-3-16.3-2.2
		c-11.2,5.2-26.6-1.2-35.6,9.1c-1.5,0.3-3.4,0.5-2.9,2.7c5.4,0,10.5,1.5,15.9,1.2c8.5,1.5,14.1-5.7,20-8.8h1.5
		c2.4-2.5,6.6-1,9.8-1.5c15.4,1.7,27.3,9.1,40,16.7v1c-4.9,2.2-10.5,3.7-15.4,6.4c-5.6,4.2-11.9,9.6-13.6,16.5
		c-3.9,6.1,1.2,11.5,3.6,16.7c0.2,2.5,0.5,5.4,2.7,6.4c7.8-8.3,0.5-18.7,1.7-28.2c2-7.4,8.8-10.8,15.9-12.8
		c13.9-5.9,23.9,5.4,35.1,11.8c-0.3,11.3,1.2,22.1-1.2,33.1c-3.4,1.2-7.8,2-11.5,1.7c-19.2,1.5-34.4,12-51.7,17.9
		c-7.8,2.7-17.1,2.5-24.9,5.4c6.1,1.7,12.4-0.5,18.8-0.7c23.9-3.4,42.2-21.9,68-18.7l0.5,0.7c-2.9,6.1-6.8,11.3-11.4,16
		c-0.8-2.7-1-4.9-3.4-6.4c-1.9-1-4.1,0-5.6,2c-0.8,1.2-0.8,2.7,0,3.7c1.2,2.2,3.2,2.7,5.3,3.4c-0.5,2.2-3.2,3.2-4.6,5.2
		c-6.8,11.5-20.8,6.9-28.8,15c-1.2,1.7-5.6,2.7-3.7,5.4c9.3,1,18.3-1.5,25.1-6.4c9-10.1,18.5-19.6,27.5-29.2
		c1.5,7.9-0.7,16-5.4,22.3c-2.2-1.2-3.9-3-6.6-3.7c-2.5,0.5-4.2,3-4.4,4.9c1,1.7,1.9,3.7,3.6,4.9c-8.3,5.9-18.8,6.4-28.3,9.1
		c-17.8,2.2-35.1,3.7-53.1,3.9c-8.5-0.5-18.3,2.5-26.3,0c-9.3,1.7-19.3-1.2-26.8,3.9c-1,1.2,0.3,2.5,0.3,3.7
		c11.2,7.4,26.6,1.5,39.3,3.7h96c7.1-0.2,14.1-0.5,19.8-3.7c12.4-7.1,19.2-19.9,25.6-32.4c2.4-4.4,4.1-9.6,5.1-14.7
		c2.4-8.4,10-14.3,18.3-15c1.2,12.8-1.2,25.5-4.1,37.3c-1.5,7.9-6.6,15.5-3.4,23.8c0.7,3.9,4.9,3.9,8,4.4c29.5-0.5,59-1.7,90.2,0.5
		c5.6,1,10.5,2.7,16.6,2.5c0.5-0.7,2.2-1,1.5-2.5c-0.7-2.7-2.7-6.1-5.8-6.9c-0.5-1.5-2.7-1-3.4-2c-15.6-8.8-34.4-4.2-52.7-3.9
		c-9.5,1-19,2.7-27.1-2.7c-3.7-4.4-1-18.4-1-18.4c0-5.5,13.4-44.2,15.1-47.4c0.5-3.7,1.9-7.1,1.5-11.3c1.9-4.9,1.5-11.3,1.5-16.7
		c1-7.9,4.9-15.2,7.6-22.8c1.4-3.7,2.7-7.6,4.1-11.3c1.5-4.7,2-9.1,4.9-12.8c7.9,5.1,15.7,4.9,19.5,13.9l3.4,20.5
		c0,1.2,1,3.7,2.7,2.2c6.3-4.2,4.4-13.5,4.4-19.9c1.4-7.6-3.9-11.3-6.1-17.9c-1.7-1.2-4.5-7.1-4.5-7.1c-1-5.4-12.8-9.1-10.1-15.8
		c1.5-5.6,2.9-10.8,8.3-14c0.8,0.5,1.1,1.1,1.2,1.7l2.9-2.1l0.3-20.5c7.9,0,19.7,1,27.7,1c2.2,0.7,3.9,2.5,6.3,2.7l2-2.7l19.7-3.8
		C361.4,144.4,356.3,134.8,348.4,134.8L348.4,134.8z"/>
	<path d="M369.8,143.5c0.6-0.1,1.2-0.2,1.8-0.4L369.8,143.5L369.8,143.5z"/>
	<path d="M157.5,211.9c0.2,2.9-1.5,4.7-3.7,5.6c-1.9-0.7-3.4-1-4.6-2.9c-1-2.7,1.5-4.7,3.4-5.7C154.6,209.4,157,209.7,157.5,211.9
		L157.5,211.9z"/>
	<path d="M141.6,211.9c1.5,1.5,1.7,3.9,1,5.6c-1.7,1.5-4.4,2.7-5.9,0.7c-1.5-1.5-2.9-3.2-1.7-5.1
		C136.7,211.4,139.7,209.9,141.6,211.9L141.6,211.9z"/>
	<path d="M481,214.6c0.1,0.1,0.2,0.2,0.2,0.3"/>
	<path d="M666.7,218.8c1,2.7-1.2,4.7-3.2,5.6c-2.5-0.7-5.6-1.2-5.6-4.4c0.2-2,1.9-3.2,3.7-3.7C663.8,215.6,665.8,217.3,666.7,218.8
		L666.7,218.8z"/>
	<path d="M679.6,218.3c0.7,1.2,2.4,3.2,0.5,4.4c-1,0.7-1.7,1-2.4,2c-2.7,0.5-5.1-0.5-5.8-2.9c-0.5-2.7,1.7-3.9,3.7-5.2
		C677.2,216.1,678.4,217.3,679.6,218.3L679.6,218.3z"/>
	<path d="M80.4,221.2c-1,2.9-3.4,4.2-6.6,3.2c-0.7-0.7-1.5-2-2-3.2c0.2-1.7,0.7-3.4,2.7-4.2C77.5,217.3,79.7,218.5,80.4,221.2
		L80.4,221.2z"/>
	<path d="M162.6,225.4c-0.3,2-2.5,3.7-4.2,4.7c-2.5,0.2-4.1-1.7-5.4-3.4c0-2,1-4.4,2.9-4.9C158.7,220.7,161.6,222.7,162.6,225.4
		L162.6,225.4z"/>
	<path d="M148.2,223.7c0.7,0.7,1.5,2.7,0.7,3.9c-1.5,1.2-3.6,3.4-6.1,2c-1.5-1.2-3.2-2.2-2.7-4.7c1-1,2.2-2.5,3.7-2.9
		C145.8,221.5,146.7,222.7,148.2,223.7L148.2,223.7z"/>
	<path d="M716.9,226.6c0,2-1.9,3.9-3.2,4.7c-2,0.7-4.1,0.3-5.4-1.2c-1.4-0.5-1-2.5-1-3.7c1.2-1.7,2.9-2.7,4.6-3.2
		C714.3,223.7,715.7,225.2,716.9,226.6L716.9,226.6z"/>
	<path d="M732.6,228.8c-0.7,2.2-2.4,4.2-4.6,4.4c-1.5-0.2-4.1-0.7-3.6-3c0-1.7,1-3.4,2.2-3.9C728.9,225.2,731.8,226.4,732.6,228.8
		L732.6,228.8z"/>
	<path d="M108.2,232.3c0.5,2.9-0.5,4.9-2.9,5.9c-1.7,1-3.4-0.3-4.6-1.2c-1.2-1.2-2.2-3.2-1.2-4.9c0.5-2.2,2.7-1.7,4.1-2.7
		C105.8,229.6,107,230.6,108.2,232.3L108.2,232.3z"/>
	<path d="M120.2,234.5c0.7,2-1.5,2.7-1.9,4.2c-1.2,0.7-2.9,1.5-4.4,0.5c-1.7-1.5-3.6-3.7-1.9-5.9C113.8,229.6,119,231.6,120.2,234.5
		L120.2,234.5z"/>
	<path d="M702.6,233.3c0.2,2.4-1.9,4.2-3.4,5.6c-2.2,0.5-4.4-1-4.9-2.9c-0.2-2,1-3.4,2.7-4.7C699.1,231.1,701.3,231.3,702.6,233.3
		L702.6,233.3z"/>
	<path d="M722.6,237.2c-0.5,2.2-0.3,4.7-2.7,6.1c-2,0.5-4.4,0.2-5.9-1c-1.5-1.2-1.7-3.4-1-5.2c1.2-2,3.4-3.4,5.8-2.9
		C720.6,235.2,721.1,236.5,722.6,237.2L722.6,237.2z"/>
	<path d="M99,242.4c1,2-1.2,2.5-1.9,3.4c-1.7,1-3.4,0.3-4.9-0.5c-1.7-1-1-3.4-0.7-4.7C93.6,236.5,98,239.4,99,242.4L99,242.4z"/>
	<path d="M707.2,247c1,0.2,0.5,1.7,0.2,2.2c-5.8,3-14.6,3.7-19.7-1c-2.9-2.5-6.6-3.4-9.8-5.4c1.2-3.2,5.6-3,8.8-3.7
		C693.8,240.1,699.4,246.8,707.2,247L707.2,247z"/>
	<path d="M110.7,244.8c0.5,2-1,2.7-1.5,4.2c-1,1.5-2.9,1-4.1,0.5c-2.2-1.5-3.2-4.2-1.7-6.1C106,240.6,109.2,242.1,110.7,244.8
		L110.7,244.8z"/>
	<path d="M132.1,246.3c1,2.2-0.5,4.2-2.4,5.4c-1.7,1-3.2-0.5-4.6-0.7c-1.2-1.7-3.4-3.7-1.2-5.6C126,241.6,130.4,243.6,132.1,246.3
		L132.1,246.3z"/>
	<path d="M414,256.7c-0.5,4.9-8.6-0.7-7.4,5.8c1.2,4.7,2.1,10.3,4.9,13.7c2.3,3.3,1.1,8.4,0.9,12.4c-2.1,3.5-5.6,6.1-9.3,7.9
		c-7-0.7-17.1,3.5-20.4-5.1c-1.4-3.7-3.9-7.5-3.9-11.7c0.7-0.5,1.6-0.5,2.3-1.2c0-1.6-1.8-2.6-1.6-4.2c7.9-1.4-3.3-8.4,3.5-8.9
		c5.6,5.8,14.6,4,19.4,10.3c1.2,0.9,2.1,2.3,3.5,3c-0.9-5.8-3.7-11.7-4.6-18c-0.7-3.3,0.5-6.3,2.8-8.2
		C408.2,249.4,411.7,254.1,414,256.7L414,256.7z"/>
	<path d="M153.6,255.1c0.7,2.5-1.2,3.9-2.7,5.2c-2.2,1-3.4-1.5-4.4-2.7c-0.7-2.5,1-3.7,2.5-4.9C150.6,252.7,152.6,253.4,153.6,255.1
		L153.6,255.1z"/>
	<path d="M304,257.6c2.9,9.6,1.9,19.4-2.9,27.5c-0.2,2,0.5,5.1-2.2,4.9c-6.6-9.1-1.7-21.8,1-31.4C300.3,256.1,303.3,255.1,304,257.6
		L304,257.6z"/>
	<path d="M512.7,262.2c3.4,6.9,3.6,16,0.5,22.8l-2,2c-2.7-5.6-4.9-11.3-5.6-17.4c1.2-4.4,2.7-8.4,2.9-13
		C511.9,255.9,511.7,260.3,512.7,262.2L512.7,262.2z"/>
	<path d="M172.6,264.9c-1.5,2.9-5.6,3.7-8.3,5.6c-5.9,4.4-14.4,5.4-21.7,4.2c6.3-8.8,16.1-14,27.8-11.5
		C170.9,264.2,172.1,263.7,172.6,264.9L172.6,264.9z"/>
	<path d="M72.4,273.8c9,6.4,11.5,15.2,16.8,24.1c0.7,1,3.2,1.2,2.2,3.2c-2,1.5-3.9-1.5-6.6-1c-9.3-4.2-15.1-14.5-14.9-25.3
		C70,273.8,71.4,273.8,72.4,273.8L72.4,273.8z"/>
	<path d="M503.1,281.4c0.3,2.5-0.2,4.9-2.2,5.6c-2.7,0.7-4.9-0.7-5.6-2.9c-0.7-1.7,0.7-2.7,1.2-3.9
		C498.5,278.2,501.9,279.2,503.1,281.4L503.1,281.4z"/>
	<path d="M606,294.4c0-4.7,1.2-9.1,1.7-13.5c0.7-1.5,1.2-3.2,1-5.1c5.9-7.9,17.8-5.4,27-4.7c3.7,2,8.3,1.7,12.2,2.7
		c1.7-1.2,4.2-1.5,6.1-1.2c7.8-4.2,2.7-13.3,3.2-20.4l-2.9-7.4c-0.7-1.5-1.5-3.2-2-4.9c-1.4-1.7-2.4-4.9-3.9-6.6
		c-4.1-10.8-12.2-16.9-19-25.5c-12.4-16.2-32-25.3-51.4-31.7c-19.3-6.6-38.8,2-56.1,8.1c-5.3-1.5-8-5.6-9.5-10.3
		c-1-9.3,1-18.4,4.6-26c0.7-6.1,4.9-10.8,6.6-16.5c4.4-13.7,9-27.3,10-42.2c0.5-9.1-6.3-15.5-13.2-19.4c-4.6-1.2-10-1-13.4,2.7
		c-3.1,6.6-10,11.1-15.8,14.2c-0.5,4.2,4.6,1.5,6.3,2.9c5.4,1,11.5-0.7,15.9,2.7c0.5,9.8-5.1,17.9-10.2,25.3
		c-8.3,12.3-17.1,24.8-22.2,38.3l-1-1l1.2,60c7.8,12.9,17.5,27.7,32,32.6c7.8,6.4,17.5,14,28,8.3c5.6-1.7,6.1,6.1,8.8,9.3
		c2.9,9.1-3.6,15.5-4.1,23.8l-6.3,13.5c-7.3,14.2-13.9,29.5-25.1,41.5c-3.6,0-5.8,3.9-9.5,4.2c-2,2.7-5.9,0.7-8.3,1.7
		c-7.6,3.2-18.3,1.2-23.4,8.3c0.5,0.7,1.2,1,1.9,1.2c14.9,0.2,31.5,1.2,47.3,0.5c1.9-0.7,3.7-2.5,3.9-4.7c-2.2-4.2,0.7-7.9,2.7-11
		c1.2-5.9,5.1-9.6,6.8-15.2c5.1-10.1,11-19.9,16.6-30l7.5-12.3c1.7-4.2,4.6-9.3,7.6-13.8c1.9-2,2.9-4.2,4.4-6.6
		c0.3-2.5-1-3.4-2.4-5.2c1.7-1.7,4.4-1.2,6.6-1.7c6.1,3.7,12.4,9.6,13.6,16.2l2.2,6.4l1,2.9l-0.5,8.1l1,7.6
		c1.2,11.8-1,23.8-2.2,35.6c-4.1,14.2-20.5,12.8-32.2,16c-2.9,2-8.5,1-8.5,5.9c14.1,3,30.7,1.2,45.8,1c2.4-1,2.9-3.2,4.1-5.4
		c0.5-3.2,3.7-5.9,2.7-9.3c-2.7-3.4-0.2-8.8-1-13.5c0.5-1.2,0.5-2.9,0-4.7c1.9-7.1,1.5-15.7,2.9-22.6L606,294.4L606,294.4z"/>
	<path d="M726,284.8c-7.8,11-16.1,23.6-29.7,27.5c-1,0-1.9,0.5-2.4-0.7c8.3-8.8,12.7-22.6,25.6-25.8
		C721.3,284.8,724,283.8,726,284.8L726,284.8z"/>
	<path d="M60.5,296.9c-1.2,1-0.2,3.2-2.4,3.4c-1.9,1-4.1-0.3-5.1-2.2c-1-2.5,1.2-4.9,3.2-5.4C58,293.7,60,294.4,60.5,296.9
		L60.5,296.9z"/>
	<path d="M130.7,300.3c0.7,2.2-1.7,2.2-2.9,2.7c-10.2,3.7-20.7,0.3-28-7.1c0-1,0-2,1-2.2C110.7,296.1,122.4,294.2,130.7,300.3
		L130.7,300.3z"/>
	<path d="M73.9,297.1c0.5,1,0.7,2.7,0.5,3.7c-1.5,2.2-3.6,2.7-6.1,2.2c-1.5-0.7-2.2-1.7-3.2-3.2c0.2-2.5,2.2-3.9,4.1-4.7
		C71.2,295.4,72.6,295.9,73.9,297.1L73.9,297.1z"/>
	<path d="M302.3,298.3c0.5,2.2-1.5,3.7-2.9,4.7c-2.2,0.5-4.1-0.5-5.1-2c-0.8-1.7,0-4.2,1.7-4.7C298.1,295.9,301.5,296.1,302.3,298.3
		L302.3,298.3z"/>
	<path d="M735.2,299.3c0.7,2.4-1.4,3.7-3.2,5.1c-1.5,0.7-3.2,0-4.6-0.7c-0.3-1.2-1.7-2.2-1.2-3.9c1-2.2,3.2-3.2,5.6-3
		C733,297.8,734,298.1,735.2,299.3L735.2,299.3z"/>
	<path d="M751.3,298.3c1.5,2.2,0.2,3.9-1,5.6c-1,1.7-2.9,2.2-4.4,1.5c-1.5-1.5-3.4-2.2-3.7-4.4c0-2,2.2-3.4,3.7-4.2
		C748.4,295.9,749.4,298.3,751.3,298.3L751.3,298.3z"/>
	<path d="M50.2,305.4c0.2,1.7-1.2,2.7-1.7,4.2c-1.2,0.5-2.4,1.5-3.9,1c-1.7-0.8-2.9-2.2-3.6-3.9c0.5-2.2,2-4.2,4.4-4.9
		C47.3,302.3,49.5,303.2,50.2,305.4L50.2,305.4z"/>
	<path d="M563.6,305.4c0.5,1,0.3,2.2,0.3,3.2c-1.5,2-3.4,3.7-5.8,2.4c-1.5-1.5-3.2-2.9-2.4-5.2C557.5,303.2,561.7,302.3,563.6,305.4
		L563.6,305.4z"/>
	<path d="M89.4,309.1c-0.5,1.7-1.2,3.4-3.4,3.7c-2.2,0.3-2.9-1.7-4.1-2.7c0-2.2-0.3-4.4,1.9-5.7C86.8,303.5,89.4,305.9,89.4,309.1
		L89.4,309.1z"/>
	<path d="M66.1,309.6c0.7,2.5-1,4.2-2.4,5.4c-2.9,1-5.4-1.2-6.6-3.4c0.3-2.2,2-4.9,4.4-5.6C63.6,305.9,64.8,308.4,66.1,309.6
		L66.1,309.6z"/>
	<path d="M579.7,309.1c0.5,2.4-0.3,4.9-2.7,5.9c-2.9,1-5.4-1.5-6.6-3.4c1.2-2,1.5-4.7,4.4-5.1C577,306.4,578.5,307.4,579.7,309.1
		L579.7,309.1z"/>
	<path d="M77.5,310.1c0.7,1.7-0.7,2.5-1.2,3.7c-1.2,0-1.9,1.5-3.4,1c-1-1.2-2.9-1.7-3.2-3.4c-0.2-2.5,1.5-3.7,3.2-4.7
		C75.3,306.4,76.8,308.1,77.5,310.1L77.5,310.1z"/>
	<path d="M721.8,312.1c-0.7,2-2.2,2.9-4.2,3.9c-1.9,0.5-3.2-1.2-4.6-2c-1.2-1-0.8-3.2-0.2-4.4C715.2,305.4,721.8,307.4,721.8,312.1
		L721.8,312.1z"/>
	<path d="M740.3,313.1c-0.7,2.7-3.4,3.9-5.9,4.2c-2.2-1-4.6-2.7-2.9-5.6c1-1,1.4-2,2.9-2.2C737.4,308.4,739.6,310.6,740.3,313.1
		L740.3,313.1z"/>
	<path d="M624.6,314.8c1.2,3.2-1.7,4.2-3.7,5.6c-1.7-0.2-3.2-1-4.6-2c-0.5-2.7,0.7-5.2,3.4-6.4C621.9,312.1,623.1,313.1,624.6,314.8
		L624.6,314.8z"/>
	<path d="M557.5,317.7c1.2,0.5,0.7,2.2,0.5,2.9c-1.5,1-3.4,3.4-5.6,2c-1.7-1-3-2.5-2.5-4.7C551.2,315.3,556.3,315,557.5,317.7
		L557.5,317.7z"/>
	<path d="M571.2,319.4c0.3,2-0.2,2.9-2,3.9c-1.7,1.7-3.7-0.2-5.4-0.7c-0.5-1-1-2.5-0.3-3.7c0.7-1,2-1.7,3.2-2
		C568.5,317.5,570.4,317.5,571.2,319.4L571.2,319.4z"/>
	<path d="M157.5,319.7c1.5,1.5-0.2,3.2-0.5,4.7c-1.2,1.5-3.9,2.7-6.1,1.2c-2.4-1-2.2-4.2-1.7-6.1c1.5-0.5,1.5-2.2,3.4-2.2
		C154.8,317.5,156,318.5,157.5,319.7L157.5,319.7z"/>
	<path d="M650.6,320.7c0.5,2.5-2,3.4-3.7,3.9c-2.9,1-4.4-1.2-5.6-3.2c0-1.5,1.4-2.4,1.9-3.7C646.7,316.3,648.9,318.7,650.6,320.7
		L650.6,320.7z"/>
	<path d="M637.5,320.7c1,2.5-1.7,3.7-2.7,4.9c-1.7,0.7-3.9,0.5-5.4-1c-1.3-0.7-1.3-2.2-1.3-3.7c1.5-1.2,2.2-2.7,3.9-3.2
		C634.3,317.7,636.5,319,637.5,320.7L637.5,320.7z"/>
	<path d="M747.4,323.6c0.5,3.4-3.9,1.7-5.6,2.7c-10.2,6.1-23.4,1.5-33.2-2.2c0.7-3.2,4.4-2,6.3-3.2c10.5-6.6,21.2,1.5,31.7,2
		L747.4,323.6L747.4,323.6z"/>
	<path d="M80.2,320.7l-1,1.7c-9,5.4-20.7,9.1-31.4,5.7l-1-1.5c9-6.6,21-8.3,32.7-6.6L80.2,320.7L80.2,320.7z"/>
	<path d="M675.5,322.4c0,2-1,3.7-2.4,4.7c-2.4,0.7-5.6,0-6.3-2.7c-0.7-2,1.2-3.9,3.2-4.7C671.6,319.7,674.5,319.9,675.5,322.4
		L675.5,322.4z"/>
	<path d="M123.8,323.4c-1,2-0.5,3.9-2.9,4.9s-5.4-1.2-6.1-3.2c-0.7-2.7,1.2-3.4,2.4-4.7C120.2,319,122.4,321.2,123.8,323.4
		L123.8,323.4z"/>
	<path d="M106.5,324.6c0.7,1.7-0.7,2.7-1.2,3.9c-1.2,1.5-3.4,1.2-4.9,0.7c-1.7-1.5-3.4-3.2-2.7-5.9c1.5-1.2,2.2-2,3.9-2.7
		C103.9,321.2,106,322.1,106.5,324.6L106.5,324.6z"/>
	<path d="M692.6,330.2c-0.2,2.2-2,3.9-3.9,4.4c-1.9,0.3-3.7-1.2-4.6-2.5c-0.7-1.5-0.5-3.4,1-4.7c0.5-0.7,2.2-0.7,3.2-1.2
		C690.4,326.6,692.1,328.3,692.6,330.2L692.6,330.2z"/>
	<path d="M88.5,327.5c0.8,2-1,2.7-1.2,4.2c-0.7,4.2-3.4,6.9-5.3,10.6c-4.6,5.6-11.2,5.6-17.8,7.4l-1-2c7.1-9.1,14.6-16.2,24.6-20.6
		L88.5,327.5L88.5,327.5z"/>
	<path d="M680.4,332.9c0.5,3-2,3.5-3.7,4.7c-2.2,0-3.9-1.2-4.9-2.9c-0.7-2.7,1.7-3.7,3.2-4.9C677.4,329.3,679.6,331,680.4,332.9
		L680.4,332.9z"/>
	<path d="M116.5,332.9c-0.2,0.5,0.3,1,0.7,1.2c-0.2,2.7-2.2,3.4-3.7,4.7c-2.2,0-3.9-0.7-5.4-2.4c-1-2.2,0-4.9,2.4-5.7
		C112.9,330.5,115.8,330.7,116.5,332.9L116.5,332.9z"/>
	<path d="M725.2,340.3c2.4-0.3,2.9-3.2,5.6-3.7c2.4-0.5,4.6,1,5.8,2.7c1,3-1.2,4.4-3.2,5.7c-1.7,1.2-5.4-1.5-5.1,1.7
		c1.7,1.2,3.2,2.9,3.4,4.9c-0.5,1-2.2,0.7-2.9,0.3c-7.1-2.9-14.6-7.9-17.6-15.2c-1-2.2-5.6-3.9-2.9-5.9
		C715.5,330.2,721.3,335.9,725.2,340.3L725.2,340.3z"/>
	<path d="M748.6,332.7c1.2,1.2,0.7,3.4-0.2,4.7c-1.2,2.5-4.9,1.5-7.1,1.2c-1.2-1.2-2.4-2.5-2-4.4c1-1.5,2-2.4,3.7-3.2
		C745.2,330.5,746.9,331.5,748.6,332.7L748.6,332.7z"/>
	<path d="M660.1,346c2.2,2.7,4.4,6.9,5.4,9.8c-0.5,0.7-1.7,0.5-2.2,0.5c-8.3-4.7-19-9.8-22.2-19.6c-0.7-1-2.7-2.2-2.4-3.9
		c6.3-1.2,12.4,3.4,16.8,6.9C657.2,342,659.2,343.3,660.1,346L660.1,346z"/>
	<path d="M102.9,336.6c1,2.2-1,3.9-2.2,4.9c-2.7,0.5-4.2-0.5-5.6-2c-1.7-2.7,1.5-4.9,3.4-5.9C100.4,333.4,101.6,335.4,102.9,336.6
		L102.9,336.6z"/>
	<path d="M690.6,342.3c0.2,1.5-1.7,2.5-2.4,3.4c-2,0.2-3.9,1-5.6-0.7c-0.5-1.2-1.7-3.2-0.3-4.4C685,337.1,688.9,339.8,690.6,342.3
		L690.6,342.3z"/>
	<path d="M751.3,345.7c0.7,2.9-1.5,4.9-3.4,6.1c-2.4,0.7-4.4-1-5.8-2.2c-1.2-1.5-0.3-2.9,0-4.7c1.7-1.5,3.9-2.7,6.3-1.7
		C749.4,344,750.3,344.5,751.3,345.7L751.3,345.7z"/>
	<path d="M582.6,379.6c0,3-5.4,2.2-7.6,4.4c-7.6,3.9-16.6,3.9-25.6,3.7v-1.5C558.2,378.9,570.9,376.2,582.6,379.6L582.6,379.6z"/>
	<path d="M226.9,390.2c-0.2,2.2-1.5,3.4-3.6,4.2c-1.7,0-3.4-1-4.1-2.4c-1-3,1.5-4.2,3.2-5.4C224.5,386.7,226.5,388.4,226.9,390.2
		L226.9,390.2z"/>
	<path d="M578.5,392.9c-0.5,2.2-1.2,4.7-3.7,5.6c-2.2,0.5-3.6-0.7-5.4-1.7c-1.2-1-0.5-2.7-0.7-3.9
		C570.4,388.4,576.8,388.4,578.5,392.9L578.5,392.9z"/>
	<path d="M627,393.8c-6.1,3.9-12.9,8.6-21,8.6l-13.2-0.3l-1.2-1c8.1-9.8,22.7-9.8,35.4-8.8V393.8L627,393.8z"/>
	<path d="M160.2,399.7c0,2.2-1,3.9-3.2,4.7c-2.4,0.5-4.2-0.5-5.1-2.2c-1-2.2,0-4.4,1.9-5.6C156.5,394.8,159.2,397.8,160.2,399.7
		L160.2,399.7z"/>
	<path d="M172.4,402.2c0.7,1.2-0.5,2-1,3.2c-1.4,0.7-3.4,1.2-4.6,0c-1.7-1-2.2-2.7-1.5-4.2s2.2-1.2,2.9-2.2
		C169.9,399.7,171.6,400.5,172.4,402.2L172.4,402.2z"/>
	<path d="M79,427c-2.4,2.9-6.3-0.7-9-2.2c-8.5-4.9-8.3-14.5-16.8-20.1c1-2.9,3.2,0.2,4.9-0.2c1.5,1,3.4,2,5.1,2.7
		C71.4,411.8,73.4,419.6,79,427L79,427z"/>
	<path d="M789.6,331.7c-3.9-7.1-10.5-10.1-18.3-10.1c-6.3,0.5-11,4.7-13.6,10.1c-1.5,5.4,0.5,10.3,4.6,13.5c1.7,0.7,3.9,0.5,4.9-1.2
		c1.2-3.2-2.2-3.2-2.7-5.6c-1-3.4,0.3-6.4,2.7-8.6c2.4-2.5,6.6-1.2,9.5-1.2c2.9,2,5.8,3.7,7.3,7.1c1.5,4.2,1.5,8.8,0,13
		c-2.7,6.1-8.8,11-15.1,12.3c-20.2,2.9-242.3,2-242.3,2c-26.1,2.5-55.8-4.9-78.2,8.8c-10.2,4.9-15.4,16.2-18.1,26.3
		c-6.6,5.9-13.6,12.8-19,19.4l-0.7-0.7c1.2-5.9,3.9-11.1,5.1-17c3.7-4.9,3.7-11.5,6.3-16.9c9.3-15,18-30.2,32.4-40.8
		c6.1-8.1,16.8-6.6,26.1-6.6c10,4.7,21.7,6.1,33.9,4.9c0.5-0.5,0.7-1,0.7-1.7c-3.4-3.2-9-4.4-12.9-7.6c-9.8-4.7-19,1.5-29.3,0.7
		c-0.5-0.5-1-0.7-0.7-1.5c9.3-6.9,19.8-11.8,30.2-16.2c8.5-4.7,17.6-7.1,26.6-10.6c3.7,0,7.1-3.2,10.5-1l12.9-3.4
		c0.5,0.3,1,1,1.9,0.7c11-3.7,24.9-0.3,37.3-0.5l1.7,1.5l11.7,2.9c4.4,0.5,6.4,5.7,11,5.9c2.4-3.4-2.7-4.9-3.9-7.1
		c5.4-1.2,11.5,0.2,16.3,2.5l-2.4,2.7c-1.4,2.7,0.7,4.7,2.9,5.6c1.7,0.5,2.9-0.7,4.1-1.2c3.2-2.2-0.2-4.4,0.7-6.4
		c18.1,3.2,35.4,7.6,52,14.7c4.6,1.5,9,4.9,14.2,4.7c-5.1-4.7-12.2-7.1-18.5-9.8c-4.2-2.5-10-2.7-13.2-6.1c0.7-1.2,2.4-0.7,3.2-1.7
		c8.3-1,15.4-7.1,21.2-13.8c0.5-1.5,3.2-1,2.9-2.9c-2.2-2.5-5.8,0.7-8.8,0.5c-10.2,2-14.6,14-24.9,16.2c-12.4-3-25.1-5.9-37.5-9.1
		c-6.1-1-12.7-1.5-18.3-3.9l-13.7-1.2h-24.9c-0.2-0.5-1-0.7-0.7-1.5c8.8-2.2,16.3-7.4,25.1-9.6l65.3-30c6.8-6.1,12.9-13,18.5-20.1
		c0.2-2-1-3.9-2.7-4.7c-1.7-0.7-3.7-0.5-4.9,1c-2.9,2.2,0,4.9,0,7.6c-2.9,3.9-7.6,7.4-11.2,9.6c-1-0.2-67.3,30.2-67.3,30.2
		c-9.8,4.2-19.5,8.8-29.7,11l-14.1,2.2c-1,3-3.4,4.7-6.1,5.6c-3.9,0.7-7.1,3.2-11.2,3.2c-31.7,12.3-64.6,25.3-89.7,50.3
		c1.5-2.9,2.2-6.6,2.4-10.3c-0.5-3.7-0.2-7.9-2.7-10.8c-0.6-1.3-2.4-5.3-1.8-6.7l-3.6,2.3c-2.2,5.4-4.1,15.2-1.9,20.9
		c0.7,4.4,4.4,9.6,1,13.5c-11.7,14.2-18.3,31.4-26.1,47.6c-2.9-0.5-4.4-3.2-5.6-5.9c8.3-10.6,14.9-22.3,17.3-35.8
		c1.7-1.2,0.5-4.4,2.2-5.9c-0.5-3.9,2.2-7.9,0.3-11.1c1.6-5.3-7.1-10.3-1.6-13.7l-4.6,2.2c-10.5,13.8,5.4,34.4-6.5,47.6v1
		c-3.4,4.4-5.1,8.8-9.8,11.8c-5.9-2.4-8-9.1-11.4-14c-5.4-5.2-5.4-15.7-2.2-22.8c2.2-7.1-1.5-13.3-2.2-19.6l-2.4-1.5
		c-5.9,7.6-8,19.6-3.4,28.7c2.4,4.4,2.7,10.6,6.3,14.2c2.2,7.1,6.6,11.8,10.5,18.2c1,2.5-1.5,2.9-2.7,4.2c-2.7-1.7-2.2-5.6-4.7-7.4
		c-8-17.2-18.5-30.9-31.2-44.9c-0.5-2.2-2.7-4.2-1.5-6.6c4.6-4.4,5.6-13,3.2-18.7c-0.5-1.2-1.9-2.7-1.7-3.9l-3.6-2.9
		c0.5,8.6-5.1,16.2-2.7,25.3v0.5c-25.1-18.9-52.9-35.8-81.2-49l-2.2,6.2c7.1,1.8,26.1,13.3,26.1,13.3c8.5,3.2,16.3,8.3,24.4,13
		c33.2,18.4,55.1,48.9,70,82.8c0.3,2.7,2.7,5.6,1,8.3c-5.1-7.9-12.4-12.3-18.5-18.7c-1.7-11.5-8.5-22.6-18.5-27.3
		c-3.7-5.4-11.5-5.9-17.6-7.6l-88.7-0.5c-72.2-1-138,2.2-209.7,1c-10-1-22.2-4.4-25.1-15c-2-3.7-2-10.1,0-13.5
		c2.7-4.7,7.5-6.1,12.4-6.6c3.9,0.5,6.6,4.2,8.3,6.9c0,3.2-2.7,6.1-3.9,8.8c0.2,1,1.2,2.9,2.9,2.2c3.2-1.2,5.6-4.7,6.4-7.9
		c0.2-1.7,1-4.2-0.7-5.4c-1.5-5.2-6.8-8.8-11.5-10.1c-6.1-0.5-12.4,1.2-16.6,5.6c-5.9,4.9-5.6,13.8-3.9,20.6
		c4,11,15.4,18.3,26.4,19.8l237.2,1c23.2,1.2,49.2-2.7,72.6,2c8.5,2.7,17.6,9.1,19.8,18.7c-0.3,0.5-1,0.2-1.7,0.2
		c-19.3-12.5-44.6-17.2-69.2-14.2c-9.7-0.5-18.5,3.2-27.3,5.6c-4.6,1-9-1.2-12-3.9c-8.8-7.8-24.1-7.4-35.3-4.4
		c0,0.8-0.3,1.5,0.2,1.7c11.9-1,19,9.3,29.8,10.6c2.4,0.5,4.4-2.2,6.6-0.2c-11.2,5.4-21.9,11.8-33.9,15.2c-3.6-0.7-5.6-4.2-8.5-6.1
		c-4.6-5.1-13.1-2.9-19.5-3.4c-2.2,0.5-4.1-1-5.6,0c1.9,3.9,6.3,6.1,10.5,8.1c6.1,2.7,13.2-0.2,18.8,3.4c-1.5,1.7-3.4,2.2-5.1,3.4
		c-11.4,4.4-21,14.7-33.6,14c-13.4,1.5-27-2.5-36.1-11.8c-3.9-9.6-13.9-14.7-24.6-14.2c-0.7,0.5-1.7,0.5-1.5,1.7
		c5.4,3.2,9.5,9.6,14.9,13.3c3.4,4.2,10,0,13.2,4.7c4.6,3.2,10.5,5.9,15.8,6.9c3.9,1.7,8.3,2.5,12.7,3.5l-1.7,1
		c-22.2,7.4-47.8,8.1-72.6,7.1c-7.3-0.3-14.4-2.4-21.7-2.2c1.2,1.5,3.7,2.7,5.9,3.4c-1.9,1.2-4.2,1.7-6.6,2c-2.9,0.7-6.3,1-9.3,2.5
		c-3.9-0.2-7.3,1.2-10.5,2.4c-4.1,4.4-9,9.1-13.9,11.3c0,1-0.2,2.5,1,2.5c4.6-2,10.5-0.5,15.1-2.5c8-0.7,12.7-9.6,19-13.3
		c6.8-5.4,16.6-4.2,24.9-2.9c4.9,1.2-0.5,3.2,1,6.4c2,1.7,3.7,3.7,6.4,2.9c0.5-0.5,1-1,1.7-1.2c1.5-2,1.2-4.2,0.2-6.1
		c3.4-2.2,8.1,0.3,11.7-1.2c9.3-0.2,18.5-2.2,27.6-2.5c1.5-0.2,3.2-1.7,4.6-0.2c-0.7,2-3.2,2.2-2.2,4.9c0.5,2.2,2.9,3.2,4.9,3.7
		c2.4-1,4.6-2.7,3.7-5.9c-0.5-1.7-2.4-2-3.7-2.7c5.1-2.5,11-3.2,16.1-5.6c3.7-0.7,7.1-2,10.2-3.4c3.2-0.2,5.8-3.2,8.8-2
		c-1.2,4.2-2.9,8.1-5.1,11.8c-3.9,13-6.8,30.2,0,42.7c0.7,0.2,1-0.3,1.5-0.5c-5.1-13-2.2-28,2.2-40.3c3.4-20.9,24.9-27,40.2-34.9
		l0.7,1c-4.1,10.8-10.2,21.1-9.3,34.1c0.5,2.2-1,4.4,0,5.9c4.1-2.2,6.8-7.1,9-11.3c1.7-11-4.6-24.8,6.6-32.9
		c20-7.9,38.8-18.2,61.9-18.4c0.7,0.7,2.4-0.5,2.7,1c-4.9,5.4-11.9,10.6-14.1,17.2c-7.8,10.8-7.6,29.2-4.1,42.5
		c2.2,7.6-4.4,11.8-7.5,17.7c-1.5,2.1-2,5.7-3.3,8.1l4.8,0.5c4.1-4.4,8-9.8,8.3-16.2c0.5,2.5,2.7,4.4,4.6,4.9
		c1.7-2.7-1.5-4.7-1.7-7.4c3.9-2.2,5.6,2.7,8.8,3.7c5.1,1.2,9.5,3.4,14.9,3.4l1.7-1.7c-5.4-8.3-16.1-9.8-25.3-10.3
		c-4.9-8.1-4.9-18.2-4.4-28c1-5.2,2-10.6,4.9-15.2c1.2-3.4,4.6-6.6,6.8-9.3c4.4-4.2,10-7.1,15.4-8.3h0.7c0,0.5,0.2,0.7,0.2,0.7
		c-6.6,5.1-7.3,12.3-11.2,18.7c-4.1,6.1-6.1,14.5-2.2,21.4c1.5,3.2,0.7,8.1,4.1,10.3c3.2-4.4,3.4-10.1,5.1-15
		c-0.7-8.1-5.6-15.7-1-23.6c2.4-6.1,7.6-8.6,13.1-10.8c13.4-1.2,25.1,5.7,36.8,10.8c2.4,1.7,6.6,3.2,7.1,6.6
		c-0.3,6.6-3.9,13.3-9,16.5c-6.6,3.9-16.1,4.4-22.2-0.2c-3.7-3.7-5.1-10.1-3.9-15c2.7-2.9,6.3-5.4,10.7-3.9c2.5,1.2,4.7,3.7,7.8,2.2
		c1.2-0.7,1.7-2.7,1-3.9c-2.7-1.5-3.6-5.2-7.3-5.6c-4.6-0.7-10.2-0.5-13.4,2.7c-5.1,4.4-7.1,11.1-5.6,17.2
		c1.7,7.9,7.6,13.5,15.1,15.7c11.2,2.7,22.9-0.7,30-10.3c2.9-3.2,3.6-6.6,5.4-10.6c11.7,7.1,20.5,19.6,25.1,32.4
		c0,4.2,1.2,8.6,0.2,12.3l8.5,0.7c-0.7-2,0-4.2,0.7-5.9c3.2-16.2,13.2-29.7,25.1-40.3c4.1-2.5,3.2,3.2,4.1,4.9
		c3.6,9.3,12.2,16,21.2,18.7c10.2,1.7,20-0.7,26.3-8.6c3.2-5.9,7.1-14.5,1.7-20.6c-3.4-4.2-8-6.4-13.4-6.4c-6.4,0-10.2,4.4-13.4,9.1
		c0,2-0.3,4.2,1.5,5.2c1,0,2.9,0.2,3.7-1.2c0.5-3.7,3.6-5.4,6.6-7.4c2.7-1.5,5.6,0,7.8,1.5c2.7,2.2,3.2,5.9,3.4,9.6
		c-0.5,4.7-3.7,9.6-8,11.5c-7.1,3.7-17.3,2-23.4-2.2c-2.9-3.2-4.6-6.9-6.8-10.8c-0.5-3.9-2-7.4,0-11.3c10.7-6.4,21.9-11,34.8-12.3
		c5.1,1,9.5,4.4,12.9,8.1c11.2,11.5-2.4,28,5.4,40.8c2.9-0.5,2.9-4.4,4.1-6.9c3.7-8.8-1-18.4-3.2-27c-2.9-5.4-4.6-10.1-9.3-14.5
		c1.2-0.5,1.7-0.5,2.9-0.5c5.1,3.4,10.7,7.4,14.9,12.8c7.1,11.5,10.7,25.3,9.5,40.3c-1.9,7.4-9.7,10.8-15.8,13.5
		c-2.4,2-5.4,4.9-6.6,7.9c2.9,1.7,7.1,0,10-1.2c4.6-1.7,7.3-7.6,10.5-10.3c0.5,0.2,0.2,1,0.5,1.5c0.2,2.7-1.2,6.4,1.2,7.1
		c1.2-3.4,1.5-8.3,2.2-12.5c3.2,3.5,3.6,7.9,4.6,12.3c2.2,4.4,5.8,10.3,11.7,11c1.5-2.2-0.2-4.4-0.7-6.4c-0.7-6.1-5.9-9.3-9.3-13.8
		c-8.5-11.8-4.6-30.2-11.2-43.5c-2.4-7.1-7.6-12.3-13.2-18.2l1-1c11.9-0.2,22,3.7,32.9,5.9c13.4,6.6,32.9,5.2,39.3,22.6
		c2.7,9.8,7.1,18.9,13.9,26.5l0.7-0.5c1.5-2.4,1.5-6.6,0-9.1c-1.5-12.3-12.2-15.2-17.8-25.5l0.7-1c5.8,1.7,11.9,3.2,17.8,5.7
		c19.5,5.4,33.2,24.6,35.6,44.4c0,15.7-2.9,28.7-9,42c-0.8,2-4.1,4.2-2,5.9c2.7-2,3.2-5.2,4.6-7.4c8.1-13.5,12.2-32.2,8.1-49.4
		c-0.2-3.2-3.9-5.6-2.2-8.8c1.2,1.5,2.7,1.7,4.1,2.2c1.5-1,3.7-1,4.6-2.7c0.2-1.5,1.2-3.2,0-4.4c-1.5-2.2-4.6-2.2-7.1-1.7
		c-1.2,1.5-2.7,3.4-2.9,5.4c-2.4-4.2-4.9-9.6-8.8-13l0.5-0.7c11,3.7,21,9.1,32.2,12c2.4,1.5,5.1,2.7,8.5,2.7c9.5,3.7,20,5.2,30,7.6
		c7.3-0.7,13.4,2.7,20.7,1V446l-0.2,0.2c-2.7-3.4-8.5-0.2-11.7-2.7c-16.8-1.7-32.9-6.1-48-12c0.2-0.7,1.2-0.5,2-0.5
		c2.4-1.2,4.1-3.4,3.9-6.1c-1.2-1.7-3.2-2.7-5.6-2.7c-1.5,0.7-3.4,2.4-3.6,4.2c0.2,2,1.9,4.2,3.6,4.7c-0.5,0.5-1.5,0.3-2.2,0.3
		c-7.6-3.4-14.9-6.6-22.2-10.1c-2.7-0.5-4.9-2.7-7.6-3.2c-5.6-2.7-11.2-5.4-16.8-7.6c-15.6-8.1-32.9-12.5-49.5-18.4
		c-3.7-1-7-2-10.5-3c-6.1-1.7-12.2-3.2-18.3-4.9c-20.7-5.1-48.5-5.6-66.6,5.7c-2.9-1-4.6,3.7-6.1,0.7c5.1-13.5,20-17.9,33.4-18.4
		c97.7-1,189.4-1.7,285.7-3.2c11.2,0,22.2-3.9,28-14C792,348.4,792.8,338.4,789.6,331.7L789.6,331.7z M402,422.3
		c-1,3-2.9,5.4-2.7,8.6l-1,0.5c0.7-3.7-2.9-5.9-1.9-9.8c-2-2.9-2-6.6-3.7-9.8c-2.2-3.9,1.9-5.6,3.7-8.3c3.4,1.5,4.6,4.7,7.1,7.6
		C404.9,415.2,401.7,418.4,402,422.3L402,422.3z"/>
	<path d="M666.5,406.9c0,0.7,1.5,1,1,2.2c-8.5,7.6-20.5,9.8-32.7,10.3c-1,0.2-2,1-3.2,0.7c-0.7-0.5-1-1.2-0.5-1.7
		C639.9,408.8,653.3,403.9,666.5,406.9L666.5,406.9z"/>
	<path d="M627.2,410.8c1,3.4-1.2,5.4-3.9,6.6c-2.7-0.2-4.1-2-5.4-3.9c-0.7-2,1-2.9,1.7-4.2C621.6,407.3,626.3,407.3,627.2,410.8
		L627.2,410.8z"/>
	<path d="M163.8,411.3c0.5,1.7,0.2,3.9-1.2,5.2c-1,1.2-3.2,1.5-4.4,1.2c-1.7-0.3-2.7-2.2-3.2-3.7c0-2.2,1.2-3.4,3.2-4.7
		C160.2,409.3,162.3,409.1,163.8,411.3L163.8,411.3z"/>
	<path d="M120.2,427.2v1.7c-5.8,1.2-11.4-0.2-15.8-3.7c-3.4-4.9-7.3-9.8-12.9-12.3c0-0.7-1.5-1.7,0-2.2
		C103.6,410.8,110.9,420.6,120.2,427.2L120.2,427.2z"/>
	<path d="M703.5,411c-5.6,8.3-10.5,18.7-20.5,22.3c-1.7,0-3.2,2.5-4.7,0.8c3.9-9.3,12.2-19.4,21.7-23.3
		C701.1,410.8,702.6,410.5,703.5,411L703.5,411z"/>
	<path d="M177.9,414c0.3,2.7-1.7,3.2-3.4,4.7c-2,0.2-2.9-1.2-4.2-2.7c-1-2.5,1.2-3.4,2.5-4.7C174.8,410.8,177,412.3,177.9,414
		L177.9,414z"/>
	<path d="M734.2,415.4c-2.2,3.2-1.2,7.9-3.4,11.3c-4.9,5.6-9,12-16.8,13.3c-1.2-2.4,1.7-4.9,2.9-7.1c3.4-7.4,8.3-15.7,16.1-18.9
		L734.2,415.4L734.2,415.4z"/>
	<path d="M44.6,417.7c0.7,1.7,1.5,3.4,0,5.4c-1.4,1.2-3.6,1.7-5.6,1c-2.2-1.2-2.9-3.9-1.9-5.9C38.5,415.9,42.9,414.7,44.6,417.7
		L44.6,417.7z"/>
	<path d="M30.7,420.6c0.3,1.2,1,2.2,0.7,3.4c-0.7,1.2-1.9,2.7-3.4,3c-2.7,0.5-4.4-1-5.6-3.2c-0.3-2.2,0.5-4.2,2.4-5.2
		C27.1,417.7,29.5,418.9,30.7,420.6L30.7,420.6z"/>
	<path d="M59.5,422.1c0.5,2,1,5.4-1.9,5.9c-3.4,1.5-5.4-1-7.3-2.9c0-2.2,1.2-3.9,2.9-4.9C55.6,419.9,57.8,420.1,59.5,422.1
		L59.5,422.1z"/>
	<path d="M99.5,425.3c-0.3,1.7,0.2,4.2-1.7,4.7c-1.2,1.2-3.4,0.7-4.6,0.5c-0.5-1.5-3.2-2.7-1.7-4.4c1-1.2,2-2,3.4-2.7
		C96.3,424,98.5,423.3,99.5,425.3L99.5,425.3z"/>
	<path d="M757.7,427c-0.7,1.7-1.7,3.9-3.7,3.9c-2.2-0.2-4.4-0.5-5.6-2.7c-1-2.7,1.2-4.2,3.2-4.9C754,423.3,757.2,424.3,757.7,427
		L757.7,427z"/>
	<path d="M713.1,428.2c0.2,2-2,3.5-2.9,4.2c-3.4,1.5-6.3-1-7.6-3.7c0.5-2.2,2.2-3.7,4.1-4.4C709.9,424,711.6,425.8,713.1,428.2
		L713.1,428.2z"/>
	<path d="M743.3,427.7c0,1.7-1,3.4-2.2,4.2c-2,0.7-4.4,0.5-5.9-1c-2.2-2-0.5-3.7,1-5.2C738.4,424.5,742.5,424.8,743.3,427.7
		L743.3,427.7z"/>
	<path d="M38.3,431.9c0.5,2.7-0.5,5.1-2.9,6.1c-2.2,0-4.6-1.2-5.4-3.4c-0.2-2.2,0.5-4.4,2.4-5.2C34.8,428.7,36.8,430.2,38.3,431.9
		L38.3,431.9z"/>
	<path d="M700.9,434.6c0.7,2.7-0.7,5.2-3.4,6.4c-2,0.5-3.2-0.5-4.6-1.7c-1-1.2-2.2-3.9-0.2-5.1C694.5,430.4,699.4,431.9,700.9,434.6
		L700.9,434.6z"/>
	<path d="M169.4,437.3c1,2.7-1.9,3.2-2.7,4.7c-1,0.5-2.9,0.7-3.7-0.2c-1.2-1.5-2.7-3-1.9-5.2c1.2-1,1.7-2,3.2-2.4
		C167,433.4,168,435.8,169.4,437.3L169.4,437.3z"/>
	<path d="M753.3,439c0.5,1.7-1,2.5-1.2,3.7c-1.5,1.2-3.9,1.5-5.6,1c-2.2-1.2-2.2-3.2-2.2-5.4c1.4-1,1.7-2.2,3.4-2.7
		C749.9,435.6,752.5,436.6,753.3,439L753.3,439z"/>
	<path d="M738.2,439.8c1,2.9-1.7,4.4-3.7,5.2c-1,0.2-2.4-0.5-2.7,1c6.3,3.2,10.3,8.3,15.1,13v2c-8.8-0.2-17.8-2.4-24.1-9.3
		c-1.7-1.2-4.6-1.2-6.6-2.9c3.2-3.2,9-2,13.4-2.2c3.2-3.4-3.7-5.9,0.5-8.8c1.5-0.3,2.4-1.7,4.4-1.2
		C736.2,437,737.2,438.3,738.2,439.8L738.2,439.8z"/>
	<path d="M638.4,440c0.5,1.2-1,2.7-1.2,3.9c-1.5,1.5-3.7,1.7-5.4,1c-1.2-1.7-3.2-3.2-2.4-5.7C631.4,435.6,637.7,436.3,638.4,440
		L638.4,440z"/>
	<path d="M93.4,448.6c-0.8,2.2-1.7,3.7-4.1,3.9c-2-0.3-3.7-1-4.4-2.9c-0.2-1.7,1-2.7,1.2-3.9C88.7,443.4,93.6,444.9,93.4,448.6
		L93.4,448.6z"/>
	<path d="M113.1,445.4c0,3.4-3.7,5.4-4.9,8.8c-3.7,8.1-10.2,15.5-19.5,16.2c-1-2.2,3.2-4.9,4.1-7.1c3.9-8.3,11.7-12.8,18.8-17.9
		H113.1L113.1,445.4z"/>
	<path d="M632.6,448.8c0.2,2.7-2.2,4.7-4.2,5.7c-2.2,0.7-3.9-1-5.1-2c-2-2-0.7-3.9,0.2-5.9C626.5,443.7,630.7,446.1,632.6,448.8
		L632.6,448.8z"/>
	<path d="M647.7,450.6c-0.3,2.7-1.9,4.7-4.4,5.4c-0.5-0.8-1.7-0.3-2.4-0.5c-1.7-1-3.2-2.5-3.2-4.4c1.2-1.2,1.7-3.2,3.4-3.4
		C643.3,447.4,647,447.6,647.7,450.6L647.7,450.6z"/>
	<path d="M150.9,450.3c0.3,2.7-1.7,4.2-3.7,5.1c-2.2,0.3-3.6-1.2-4.6-2.9c-0.5-2.2,1.7-3.7,2.9-4.9
		C148.5,446.6,149.2,448.8,150.9,450.3L150.9,450.3z"/>
	<path d="M167.7,451.3c-0.7,2.2-2.2,3.7-4.6,4.2c-1.7-0.5-3.7-1-4.4-2.9c-0.2-2.5,1.7-3.7,3.4-4.9
		C164.5,447.6,167.2,448.6,167.7,451.3L167.7,451.3z"/>
	<path d="M700.1,468.5c1.2,1,3.4,2.2,2.9,3.9c-3.9,1.7-7.1-2.7-10.7-3.4c-5.9-5.9-10.3-12.3-12.7-19.6c2.2-2.2,4.6,0.5,6.6,1.2
		C691.8,455.2,697.2,461.4,700.1,468.5L700.1,468.5z"/>
	<path d="M709.1,451.3c0.7,1.7,0.5,3.7-0.5,5.4c-1.5,2.5-4.6,2-6.8,1.5c-1.2-1.5-3.4-3.4-1.9-5.6c0.7-2,2.9-2.5,4.6-3.2
		C706.2,449.1,707.4,450.6,709.1,451.3L709.1,451.3z"/>
	<path d="M190.1,457.7c0.2,2,0.7,4.9-1.7,6.1c-2.2,0.5-5.1-0.3-5.8-3c-1.2-2.9,1.4-3.4,2.9-4.9C187.5,455.5,188.7,456.5,190.1,457.7
		L190.1,457.7z"/>
	<path d="M647,473.6c3.4,4.9,5.8,11,6.3,17.4c-0.7,1.7,1.2,3.4-0.2,4.7h-1c-11-7.9-13.4-18.9-17.5-30c-1-0.5-1.2-1.5-1-2.5
		c2.4-2.2,4.1,2.2,6.6,2.9L647,473.6L647,473.6z"/>
	<path d="M221.8,465.3c-0.2,0.2,0,0.5,0.2,0.5c-9.8,6.9-23.4,11-34.6,4.4c-0.3-0.7,0.2-2,1.2-2.2c7.1-2.2,13.9-5.7,21.5-4.7
		L221.8,465.3L221.8,465.3z"/>
	<path d="M166.2,466.5c-8.3,5.1-15.8,15.2-26.1,17.7c-2,0.7-3.2,3.4-5.6,2c4.4-13.3,18.8-20.4,31.7-21.6V466.5L166.2,466.5z"/>
	<path d="M632.6,477.6c0.7,2,0,4.7-2,5.2c-1.2,1.2-3.7,1.2-4.6,0c-2.2-1-2.2-3.2-2.2-4.9c0.7-1.7,2.4-2,3.6-2.7
		C629.7,475.6,631.4,475.6,632.6,477.6L632.6,477.6z"/>
	<path d="M612.4,478.8c-1.5,3.4-5.6,5.4-8.8,6.4c-8.3,2.9-15.9-1-23.2-3c0.2-2,2.7-1.2,3.9-2.4c8-1.7,16.3-3.4,24.8-1.2
		C609.9,478.1,611.6,477.8,612.4,478.8L612.4,478.8z"/>
	<path d="M166.2,485.9c-0.7,1-1,3.2-2.9,3.9c-1.7,0.7-3.4,0-4.9-1c-0.5-1.5-2.2-2.7-1-4.4c0.5-1.7,2.4-2.2,3.9-2.7
		C163.8,482,165.8,483.5,166.2,485.9L166.2,485.9z"/>
	<path d="M180.6,488.1c-0.7,1.5-1.5,3.7-3.4,4.7c-1.9,0.5-3.4-0.5-4.9-1.7c-0.7-1.5-1.5-3.2-0.7-4.9c0.5-1.2,2.2-1.5,3.4-2.2
		C177.5,483.7,179.7,486.2,180.6,488.1L180.6,488.1z"/>
	<path d="M628,490.6c0.2,2-0.7,3.2-1.7,4.7c-1.2,1.7-3.7,2-5.4,1c-1.7-0.3-2.2-2.2-2.9-3.4c-1.5-2,1-3.2,1.7-4.9
		C622.4,485.7,626.7,486.9,628,490.6L628,490.6z"/>
	<path d="M638.7,490.1c0.2,1.2,1,2.4,0.5,3.4c-1.5,1.2-2.4,4.4-5.4,3.2c-1.4,0.5-2.2-1.5-2.9-2c-1-2.5-0.2-6.1,2.9-6.6
		C636,487.4,637.5,489.4,638.7,490.1L638.7,490.1z"/>
	<path d="M171.9,497.2c0.5,2.7-0.5,5.2-2.4,6.6c-2.7,0.5-6.1,0.5-7.1-2.7c-0.2-2.4,0-5.6,2.9-7.1
		C167.7,493.8,170.6,494.3,171.9,497.2L171.9,497.2z"/>
	<path d="M185.8,496.2c-0.5,6.9-1.9,15.2-8.8,19.1c-3.9,0.7-7.8,4.4-11.7,2v-1.2C170.4,508.7,179.7,503.1,185.8,496.2L185.8,496.2z"
		/>
	<path d="M589.7,501.9c1,1.5-0.7,2.7-1.4,3.9c-1.4,1.7-4.1,1-5.8,0.3s-2-3.2-1.2-4.9c0.5-1.5,1.9-2.2,3.2-2.7
		C586.5,498.2,588.5,500.2,589.7,501.9L589.7,501.9z"/>
	<path d="M210.1,513.2c3.4,5.7,1.5,13.3,3.4,19.4c-4.2,0.5-5.9-4.2-8.5-6.6c-5.4-7.4-4.6-17.2-7.1-25.8c0.5-0.7,1.2-0.7,1.7-0.5
		c3.6,2.4,6.3,7.1,9.3,10.3C208.4,511.7,210.4,511.7,210.1,513.2L210.1,513.2z"/>
	<path d="M601.9,503.8c0,2-2.2,2.5-3.4,3.7c-1.7-0.2-3.2-1-4.6-2.2c-0.7-2.4,1.2-3.2,2.4-4.4C598.7,499.9,601.1,501.1,601.9,503.8
		L601.9,503.8z"/>
	<path d="M630.9,525.7c0,0.7-0.2,2.2-1.5,1.7h-1c-7.1-6.4-14.1-13.5-13.2-23.3l1.5-0.2C623.3,509.5,630.7,515.6,630.9,525.7
		L630.9,525.7z"/>
	<path d="M612.6,517.8c0.2,2-1,3.4-2.2,4.7c-2.7,0.7-6.8,0.5-7.3-3.2c-0.2-2.5,2.5-3.7,3.7-4.9C609.7,513.7,611.6,515.6,612.6,517.8
		L612.6,517.8z"/>
	<path d="M596.5,523c-3.4,9.1-12.7,13.8-19,20.6c-1.2-0.7-0.7-2.7-0.5-3.7c2.4-9.3,9.8-18.4,18.8-22.1
		C599.7,518.3,595.8,521,596.5,523L596.5,523z"/>
	<path d="M614.8,530.4c0,2.2-2.2,3.2-3.4,4.4c-2-0.2-3.9-0.7-5.4-2.7c-0.2-2.5,1.7-3.2,3.2-4.4C611.6,527.2,613.8,528.4,614.8,530.4
		L614.8,530.4z"/>
	<path d="M433.4,84.6c3.3,0,6,2.7,6,6.1s-2.7,6.1-6,6.1h-72.3c-3.3,0-6-2.7-6-6.1c0-3.3,2.7-6.1,6-6.1H433.4L433.4,84.6z
		 M382.3,95.1c7.1,0,0.4-8.6-3.4-8.6h-7c-7.1,0-0.4,8.6,3.4,8.6H382.3L382.3,95.1z M411.9,95.1c7,0,0.4-8.6-3.4-8.6h-7.1
		c-7.1,0-0.4,8.6,3.4,8.6H411.9L411.9,95.1z M433.7,86.5H431c-7.1,0-1.1,8.6,2.7,8.6C438.5,95.1,438.8,86.5,433.7,86.5L433.7,86.5z"
		/>
	<path d="M427.1,167.5l13.8,5.3l13.6-5.3l-5.4,20.3l10.7-2.2l-3.7,12.3l3.7,11.8l-9.6-2.6l4.2,21.9l-13.6-5.3L427,229l5.6-21.9
		l-11,3.1l2.9-12.3l-2.9-11.8l10.5,1.7L427.1,167.5L427.1,167.5z M447.5,204.2c3.1,0,3.4-4.3,3.4-8c0-8.4-6.6,0-10-7.9
		c-2.5,6.7-9.3,0.5-9.3,7.6c0,4.9,0,8.2,4.9,8.2L447.5,204.2L447.5,204.2z M433.9,196.7c0,3.2,4.3,1.1,7.5,1.1s7.5,2.1,7.5-1.1
		c0-4.5-4.3-3-7.5-3S433.9,192.1,433.9,196.7L433.9,196.7z"/>
	<polygon points="394.7,197.4 394.7,194.9 392.4,194.4 394.2,192.5 393.1,190.5 395.5,190.7 396.9,188.2 398.3,190.7 400.7,190.5 
		399.6,192.5 401.4,194.4 399.1,194.9 399.1,197.4 396.9,195.8 	"/>
	<polygon points="384,211.2 384,208.7 381.7,208.2 383.5,206.3 382.4,204.3 384.8,204.5 386.2,202 387.6,204.5 390,204.3 
		388.9,206.3 390.7,208.2 388.4,208.7 388.4,211.2 386.2,209.6 	"/>
	<polygon points="402.2,209.5 402.2,206.9 399.9,206.5 401.7,204.6 400.6,202.5 403,202.8 404.4,200.3 405.8,202.7 408.2,202.5 
		407.1,204.6 408.9,206.5 406.6,206.9 406.6,209.5 404.4,207.9 	"/>
	<polygon points="404.4,219.8 404.4,218.3 403.1,218.1 404.1,217 403.4,215.9 404.8,216 405.6,214.6 406.4,216 407.8,215.9 
		407.1,217 408.1,218.1 406.8,218.3 406.8,219.8 405.6,218.9 	"/>
	<polygon points="387.5,231.6 387.5,227.2 383.5,226.4 386.6,223.2 384.7,219.6 388.7,220.1 391.2,215.8 393.6,220 397.7,219.6 
		395.8,223.2 398.9,226.4 395,227.2 395,231.6 391.2,228.8 	"/>
	<polygon points="396.1,0 404.6,21.1 426.4,14.7 415.3,34.6 433.9,47.8 411.5,51.5 412.9,74.3 396.1,59 379.2,74.3 380.6,51.5 
		358.2,47.8 376.8,34.6 365.7,14.7 387.5,21.1 	"/>
	<path d="M317.4,473.5c-2.6,1-3.6,1.7-3,4.4l3.1,12.9c0.6,2.4,0.7,6.2-0.9,8.5c-1.9,2.8-5.9,4.6-8.8,5.2c-2.1,0.5-6.7,1.4-10.4-0.2
		c-2.4-1-4-2.2-5.1-6.5l-3.2-13.6c-0.8-3.4-2.1-3.2-4.8-2.8l-0.2-1l16.3-3.9l0.2,1c-3.2,0.9-4.6,1.3-3.8,4.9l3.2,13.5
		c0.5,2.3,1.9,7.9,8.8,6.2c8.5-2,7.1-8.3,6.5-10.9l-2.9-12.4c-0.6-2.5-1.5-3.7-5.7-2.9l-0.3-1l10.6-2.6L317.4,473.5L317.4,473.5z"/>
	<path d="M341.6,476.2c-1.5-2.7-5.4-6.7-11.2-5.4c-2.5,0.6-4.9,2.4-4.3,5c0.5,2.2,1.6,2.9,6.1,3.7l7.8,1.4c1.8,0.3,6,1.9,7,6.3
		c0.8,3.6-1.2,9.2-10.2,11.2c-4.6,1-7.1,0.1-8.6,0.5c-1,0.2-1.1,1-1.1,1.7l-1.4,0.3l-2.2-10.1l1.4-0.3c1.9,3.9,5.7,7.9,11.9,6.5
		c5.8-1.3,5.2-5.4,5.1-5.9c-0.6-2.7-3.1-3.2-6.5-3.8l-3.5-0.6c-9-1.5-9.8-5-10.2-6.9c-0.5-2.5-0.3-8.3,9-10.4c3.9-0.9,6.5,0,7.9-0.3
		c1.1-0.2,1.2-0.9,1.3-1.7l1.5-0.3l1.9,8.8L341.6,476.2L341.6,476.2z"/>
	<path d="M373.8,492.3l-17.7,1.7l-0.1-1c3.6-0.6,4.8-0.8,4.4-4.3l-2.1-21.9c-3.4,0.5-8.5,1.2-8.9,7.9l-1.4,0.1l-0.6-8.4l29.7-2.8
		l0.9,8.3l-1.4,0.1c-1.6-6.6-6.7-6.3-10.2-6.1l2.1,21.9c0.4,3.5,1.5,3.5,5.2,3.4L373.8,492.3L373.8,492.3z"/>
	<path d="M415.1,492.3l-10.2-0.2l-10-13.3h-1.3l-0.2,8.2c-0.1,3.3,1,3.5,4.3,3.9v1l-16.8-0.3v-1c3.4-0.3,4.4-0.4,4.4-3.8l0.4-18.4
		c0.1-3.6-1.5-3.7-4.3-3.9v-1l16,0.3c3.5,0.1,14,0.6,13.9,7.6c-0.1,5.1-5.3,6.3-7.9,7l9.8,12.1c0.7,0.8,1.4,0.8,2,0.8L415.1,492.3
		L415.1,492.3z M393.6,477.5c6.5,0.1,9.1-0.8,9.2-6.2c0.1-4.2-1.9-6.1-5.9-6.1c-2.8-0.1-2.8,0.4-3.1,1.7L393.6,477.5L393.6,477.5z"
		/>
	<path d="M447.8,496.5l-16-2l0.1-1c3.1,0.2,4,0.2,4.1-1.1c0.1-1.1-1.1-4.4-1.6-5.8l-11.1-1.4c-1.8,2.8-2.8,4.4-2.8,5.1
		c-0.2,1.6,2.2,2,3.8,2.3l-0.1,1l-10-1.3l0.1-1c2.7,0,3.6-1.3,5.4-4.2l13.8-21.3l1.4,0.2l8.3,23.2c1.7,4.7,2.3,6.2,4.7,6.4
		L447.8,496.5L447.8,496.5z M433.9,484.8l-3.7-10.7l-5.9,9.5L433.9,484.8L433.9,484.8z"/>
	<path d="M476.7,502.4l-28.3-5.2l0.2-1c2.8,0.2,4.3,0.4,4.7-2.1l3.6-19.9c0.5-2.7-1.5-3.2-3.7-3.7l0.2-1l17.1,3.2l-0.2,1
		c-3.5-0.5-5-0.7-5.6,2.9l-3.5,19.4c-0.4,2,0.7,2.5,3.9,3.1c7.4,1.4,10.8-1.5,13.8-5.8l1.4,0.3L476.7,502.4L476.7,502.4z"/>
	<path d="M495.5,506.6l-17.1-3.6l0.2-1c2.7,0.3,4.6,0.6,5.1-2l4.1-19.8c0.6-2.7-1.7-3.3-3.9-3.9l0.2-1l17,3.6l-0.2,1
		c-2.3-0.4-4.7-0.8-5.2,1.9l-4.1,19.8c-0.5,2.6,1.4,3.1,4,3.9L495.5,506.6L495.5,506.6z"/>
	<path d="M530.1,511l-16-1.7l0.1-1c3.1,0.1,4,0.2,4.1-1.2c0.1-1.1-1.2-4.4-1.7-5.8l-11.1-1.1c-1.7,2.8-2.7,4.5-2.7,5.1
		c-0.2,1.6,2.2,1.9,3.9,2.2l-0.1,1l-10-1l0.1-1c2.7-0.1,3.6-1.4,5.3-4.4l13.3-21.6l1.4,0.1l8.8,23c1.8,4.7,2.4,6.2,4.8,6.3
		L530.1,511L530.1,511z M516,499.6l-4-10.6l-5.7,9.6L516,499.6L516,499.6z"/>
	<path d="M402.9,174.3c0-10-5.6-0.6-8.7-9.1c-2.3,7.2-9,1.1-9,8.9c0,3,0.8,4.7,2.2,5.6v3c0,0.8,0.6,1.4,1.4,1.4h10.6
		c0.8,0,1.4-0.6,1.4-1.4v-3.2C402,178.3,402.9,176.6,402.9,174.3L402.9,174.3z M394.2,176.2c-2.9,0-6.9,2-6.9-1.4
		c0-4.9,3.3-3.8,6.3-3.8c2.9,0,7.5-1.1,7.5,3.8C401.1,178.2,397.1,176.2,394.2,176.2L394.2,176.2z"/>
	<path d="M490.2,297.3c2.5,0,4.6-1.8,4.6-4.1c0-2.2-2.1-4.1-4.6-4.1s-4.6,1.8-4.6,4.1S487.6,297.3,490.2,297.3L490.2,297.3z"/>
	<path d="M468.5,148.8c0,0-2.2,3.6-2.2,4.3c0,1.3,1,2.4,2.2,2.4s2.2-1.1,2.2-2.4L468.5,148.8L468.5,148.8z"/>
	<path d="M321.3,148.8c0,0-2.2,3.6-2.2,4.3c0,1.3,1,2.4,2.2,2.4s2.2-1.1,2.2-2.4L321.3,148.8L321.3,148.8z"/>
	<path d="M358.1,148.8c0,0-2.2,3.6-2.2,4.3c0,1.3,1,2.4,2.2,2.4s2.2-1.1,2.2-2.4C360.3,153.1,358.1,148.8,358.1,148.8L358.1,148.8z"
		/>
	<path d="M394.9,148.8c0,0-2.1,3.6-2.1,4.3c0,1.3,1,2.4,2.2,2.4s2.2-1.1,2.2-2.4C397.1,153.1,394.9,148.8,394.9,148.8L394.9,148.8z"
		/>
	<path d="M431.7,148.8c0,0-2.2,3.6-2.2,4.3c0,1.3,1,2.4,2.2,2.4s2.2-1.1,2.2-2.4C434,153.1,431.7,148.8,431.7,148.8L431.7,148.8z"/>
	<path d="M321.4,199.4c0,0,2.2,3.6,2.2,4.3c0,1.3-1,2.4-2.2,2.4s-2.2-1.1-2.2-2.4C319.1,203.6,321.4,199.4,321.4,199.4L321.4,199.4z
		"/>
	<path d="M321.4,248.5c0,0,2.2,3.6,2.2,4.3c0,1.3-1,2.4-2.2,2.4s-2.2-1.1-2.2-2.4C319.1,252.7,321.4,248.5,321.4,248.5L321.4,248.5z
		"/>
	<path d="M327.3,287.3c0,0,2.2,3.6,2.2,4.3c0,1.3-1,2.4-2.2,2.4s-2.2-1.1-2.2-2.4C325,291.6,327.3,287.3,327.3,287.3L327.3,287.3z"
		/>
	<path d="M358.1,308c0,0,2.2,3.6,2.2,4.3c0,1.3-1,2.4-2.2,2.4s-2.2-1.1-2.2-2.4C355.9,312.2,358.1,308,358.1,308L358.1,308z"/>
	<path d="M470.4,199.4c0,0-2.1,3.6-2.1,4.3c0,1.3,1,2.4,2.2,2.4s2.2-1.1,2.2-2.4C472.6,203.6,470.4,199.4,470.4,199.4L470.4,199.4z"
		/>
	<path d="M470.4,248.5c0,0-2.1,3.6-2.1,4.3c0,1.3,1,2.4,2.2,2.4s2.2-1.1,2.2-2.4C472.6,252.7,470.4,248.5,470.4,248.5L470.4,248.5z"
		/>
	<path d="M464.5,287.3c0,0-2.2,3.6-2.2,4.3c0,1.3,1,2.4,2.2,2.4s2.2-1.1,2.2-2.4L464.5,287.3L464.5,287.3z"/>
	<path d="M433.6,308c0,0-2.1,3.6-2.1,4.3c0,1.3,1,2.4,2.2,2.4s2.2-1.1,2.2-2.4C435.9,312.2,433.6,308,433.6,308L433.6,308z"/>
	<path d="M396.1,329.9c0,0-2.2,3.6-2.2,4.3c0,1.3,1,2.4,2.2,2.4s2.2-1.1,2.2-2.4C398.3,334.1,396.1,329.9,396.1,329.9L396.1,329.9z"
		/>
	<path d="M456,256.7c0.5,0.7,1.6,0.9,3.1,0.4l1.4-4c0.1-0.3-1.6-1.9-2.6-1.6c-3.9,0.9-8.1,1.4-10.4,5.1c0,2.6,1.9,4.9,3.7,6.1
		c1.4-0.5,1.6,0.9,2.5,1.6c0.2,1.2-0.5,2.1-1.6,2.1c-2.8-2.8-7.7,0.9-9.7-2.6c0.9-3.5,2.8-7.5-0.2-10.7c0.2-0.7,1.4-1.4,0.7-2.1
		c-1.2-3.3-4.7-0.7-6.7-0.7c-3.5-0.5-6.3,1.4-8.3,4.2c0.2,1.2,0.7,2.3,1.8,3.5c0.9-0.2,1.4,0,1.6,0.9l-2.3,1.4
		c0.7,0.7,0.7,1.6,0.9,2.6c-1.6,0.7-3.2-1.6-4-2.8c0-1.9,0.2-5.1-2.3-5.6c-0.5,0-2,0.7-2,0.7c-0.5,0.7-0.9,2.2-0.9,3.9
		s0.9,4.2,0.9,4.2s7.2,5.3,8.8,8.5c-2.1,4.2-2.1,10-6.9,12.4c-1.4,0.9-1.4,2.3-1.4,3.7l1.2,0.9c3-1.6,8.8-2.1,8.3-7.2
		c1.1-2.1,2.3-4.4,4.4-6.1c2.3-0.5,4.4,0.7,5.3,2.6c-0.7,3.5-3,5.8-6.2,7c-0.4,0.5-0.2,1.2-0.2,1.9c0.9,1.6,3.5,0.9,4.9,0.7
		c3.9-2.6,5.6-7.2,9-8.6c0.5,2.3-4.6,3-1.4,5.4c2.1-0.5,4.9,0.2,6.3-2.6c-1.6-4,5.5-5.8,1.1-9.3c0-3.5,3.7-4.9,3.5-8.6
		c-1.4-3.7-5.8-3.7-6.9-7.2C452.5,255.7,454.6,256,456,256.7L456,256.7z"/>
	<path d="M286.8,299.1c2.5,0,4.6-1.8,4.6-4.1c0-2.2-2.1-4-4.6-4c-2.6,0-4.6,1.8-4.6,4C282.2,297.3,284.3,299.1,286.8,299.1
		L286.8,299.1z"/>
	<path d="M48,438.6c2.5,0,4.5-1.9,4.5-4.3c0-2.4-2-4.3-4.5-4.3s-4.5,1.9-4.5,4.3C43.5,436.6,45.5,438.6,48,438.6L48,438.6z"/>
	<path d="M200,472.4h-0.3l-0.3-0.4l0,0v0.2c0,0.1,0,0.1,0.1,0.1l0,0H199l0,0c0.1,0,0.1,0,0.1-0.1v-0.5c0-0.1,0-0.1-0.1-0.1l0,0h0.5
		c0.1,0,0.4,0,0.4,0.2c0,0.1-0.2,0.2-0.2,0.2L200,472.4L200,472.4L200,472.4L200,472.4z M199.4,472c0.2,0,0.3,0,0.3-0.2
		c0-0.1-0.1-0.2-0.2-0.2s-0.1,0-0.1,0.1L199.4,472L199.4,472z"/>
	<path d="M200.6,471.9c0-0.1-0.1-0.2-0.3-0.2c-0.1,0-0.2,0-0.2,0.1s0,0.1,0.2,0.1l0.2,0.1c0,0,0.1,0.1,0.1,0.2s-0.1,0.3-0.4,0.3
		c-0.1,0-0.2,0-0.2,0l0,0l0,0v-0.3l0,0c0,0.1,0.1,0.3,0.3,0.3c0.2,0,0.2-0.1,0.2-0.1c0-0.1-0.1-0.1-0.2-0.1h-0.1
		c-0.3-0.1-0.3-0.2-0.3-0.3c0-0.1,0-0.2,0.3-0.2c0.1,0,0.2,0,0.2,0l0,0l0,0L200.6,471.9L200.6,471.9L200.6,471.9z"/>
	<path d="M202.2,471.6c-0.1,0-0.1,0-0.1,0.1l-0.3,0.7l0,0l-0.2-0.6l0,0l-0.3,0.6l0,0l-0.3-0.7c0-0.1-0.1-0.1-0.1-0.1l0,0h0.4l0,0
		c-0.1,0-0.1,0-0.1,0.1l0,0l0.2,0.4l0,0l0.2-0.4l-0.1-0.1c0,0,0,0-0.1,0l0,0h0.5l0,0c-0.1,0-0.1,0-0.1,0v0.1l0.2,0.4l0,0l0.2-0.4
		l0,0C202.2,471.6,202.1,471.6,202.2,471.6L202.2,471.6L202.2,471.6L202.2,471.6L202.2,471.6z"/>
	<path d="M202.2,472.4c0.1,0,0.3-0.1,0.4-0.3c0,0,0,0-0.1,0c0,0,0,0-0.1,0s-0.3,0-0.3-0.3c0-0.1,0-0.3,0.3-0.3
		c0.1,0,0.3,0.1,0.3,0.4C202.8,472.2,202.6,472.4,202.2,472.4L202.2,472.4L202.2,472.4z M202.5,472.1
		C202.6,472.1,202.6,472.1,202.5,472.1c0.1,0,0.1-0.1,0.1-0.1c0-0.2,0-0.3-0.1-0.3s-0.1,0.1-0.1,0.2S202.5,472.1,202.5,472.1
		L202.5,472.1z"/>
	<path d="M203,471.9c0.1,0,0.2,0,0.3,0c0.1,0,0.2,0.1,0.2,0.2c0,0.2-0.2,0.3-0.4,0.3c-0.1,0-0.2,0-0.2-0.1c0,0,0-0.1,0.1-0.1
		s0.2,0.1,0.3,0.1s0.1,0,0.1-0.1s-0.1-0.1-0.2-0.2C203.1,472,203,472,203,471.9v-0.4h0.5l-0.1,0.2H203V471.9L203,471.9z"/>
	<path d="M480.8,143L480.8,143l-169.9-0.1v0.1h-0.1l0.2,129.8c0,13.2,5.6,24.8,13.3,28.4l65.3,41.5c1.4,1.6,3.6,2.7,6,2.7
		c2,0,3.9-0.8,5.3-2.1l66.4-42.1c7.7-3.6,13.4-15.1,13.4-28.4L480.8,143L480.8,143L480.8,143z M476,274.6c-0.9,9.8-4.2,18-11,22.6
		l-64,40.7h-0.4c-1.3,1.1-3,1.7-4.9,1.7s-3.7-0.7-5-1.8l-63.9-40.7c-6.8-4.6-10.1-12.8-11-22.6v-127h160.3v127.1H476z"/>
	<path d="M418.7,332.2l2-1C419.9,331.5,419.3,331.9,418.7,332.2L418.7,332.2z"/>
	<path d="M290.5,509.7l-16,1.9l-0.1-1c3-0.6,3.9-0.7,3.8-2.1c-0.1-1.1-2.1-4-2.9-5.3l-11.1,1.3c-1,3.1-1.6,4.9-1.6,5.6
		c0.2,1.6,2.6,1.4,4.3,1.3l0.1,1l-10,1.2l-0.1-1c2.6-0.6,3.2-2.1,4.3-5.4l8.4-24l1.4-0.2l13.5,20.5c2.7,4.2,3.7,5.5,6,5.1
		L290.5,509.7L290.5,509.7z M274.4,501.6l-6.2-9.5l-3.5,10.6L274.4,501.6L274.4,501.6z"/>
	<path d="M571.9,448.8c-2.9-7.6-9-12.8-16.6-15.2c-7.8-1.7-16.1-0.5-21.2,5.4c-8.8,7.1-2.7,18.9-2.4,28.5c0,2,0.3,3.4-1.7,4.4
		c-35.3-3.2-68.3-12-103.4-15.7c-8.1-1.4-16.2-1-23.8-2.7l-9.8-1c-30.5,1-60.9,2.7-89.5,10.1c-6.1,2-12.9,2.4-19,4.7
		c-4.4-0.7-8,2.4-12.2,1.2l-8,1.9c-0.7,0.1-1.6,0.1-2.7-0.2c-3.9-10.1,7.8-16.2,4.1-26c-3.2-5.6-9.5-11-16.8-10.1
		c-8.3-1-15.6,3.7-19.5,10.1c-5.6,12.3,1.5,25.1,3.7,37.1c-0.5,3.9,3.9,8.3,0,11.5c-7.8-5.4-18.1-8.4-27.5-5.6
		c-2.9,1.5-8.3-0.5-9.7,2.9c10.5,5.6,23.9,4.9,35.6,4.4c1.5-0.5,2.5-0.7,3.7,0.3c1,6.4-1.2,15,2.7,20.6c4.4,5.9,11.7,7.4,18.7,8.1
		c22.4-0.7,42.4-7.4,62.9-12.5c3.2-0.2,5.6-2,9-2c11-2.5,22.9-4.4,34.6-4.7c-5.1,6.6-8,14-10.2,22.1c-2.9,6.6,5.1,7.6,7.6,11.3
		c-7.6,2.2-12.9,7.4-20,10.3c-15.6-0.5-28.8,5.4-43.4,7.1c-0.2,3.2,5.1,2.2,5.6,5.4c-0.7,2.2-2.9,2.5-4.6,3.7c-0.3,1.5,0,1.7,1.5,2
		c1.5-1.7,4.6-0.5,6.1-2.2c4.9,0,9-1.5,13.6-1.7c4.1-1.7,8.8-2,12.4-4.9c5.1-1.5,8.3-4.9,13.4-6.4c7.3,0,13.9-2.5,20.7-3v1.5
		c-5.6,9.1-11.5,18.4-17.3,27c-1,1.7,0.2,3.4,1.7,3.9c3.4,1,6.8,0,9.5-1.5c5.1-8.8,9.7-17.2,13.9-26.3c1.7-8.3,7.8-12.8,13.9-18.4
		c1-0.5,2.4-2,3.4-0.5c-4.9,5.6-8,11.1-11.7,17.2c-2,6.9-2.5,15.7,3.6,21.4c2.9,2.5,7.3,1.7,11.2,2c9.5-4.9,21.7,2.9,29-6.4
		c4.4-0.7,5.1,4.4,7.6,6.9c4.1,1.2,8.5,5.4,12.7,2.4c-0.3-2.7-3.2-5.2-4.6-7.6c-2.9-5.2-6.6-9.3-9.3-14c-1.2-3.4-3.4-5.6-3.9-9.1
		c4.4,1.5,8.3,4.4,13.2,5.2c4.1,1.7,9.2,1.5,13.1,3.9c3.2,4.2,8,6.6,12.2,9.3c6.1,2.9,12.9,3.4,19.2,5.9c2.4,0.2,6.1,2.2,7.8,0
		c-1-1.2-2.2-2-3.7-2.7c-0.7-3.2,4.4-1.5,6.1-3.9c-0.6-1.2-1.7-1.7-2.8-1.9c-3.5-1.9-12.2-2.5-14.5-3.8c-2.9-0.5-5.6-1.7-8.5-2.7
		c-14.6,0-22.7-13.3-34.4-18.2c2.7-2.5,6.8-4.4,8.5-8.1c2.2-3.4,2.9-9.1,0.7-13c-2.2-7.6-11.9-6.6-17.5-10.8l0.7-0.7
		c9.5-0.5,17.8,1.7,26.3,3.4c23.4,3.2,45.1,12,69.5,12.5c13.4,0,30.2,0.7,36.8-12.3c1.2-7.6,2.7-15.2,3.9-22.8
		C565.1,473.6,573.1,462.3,571.9,448.8L571.9,448.8z M308.6,560.8l-3.4-3.2c1.7-2.2,5.4-1,8-2.5c6.3-2,13.7-4.4,20.7-2.9
		C326.7,558.1,317.1,558.8,308.6,560.8L308.6,560.8z M460.8,556.9c5.8,2.6,17.5,5.2,26,6.2c-0.8,3.3-6.7,0.2-6,4.9
		c-7.5-2.9-16.3-4.4-21.9-10.3C459.3,557.4,459.8,556.6,460.8,556.9L460.8,556.9z M232.1,452.5c0.7-4.4,1.7-9.1,5.8-12.3
		c5.9-3.2,13.9-2.4,19.3,0.8c1.7,1,2.9,2.4,3.9,4.6c1.2,4.2-0.8,8.6-3.7,11.1H255c0-3.9,0-7.9,1.5-11.1c-0.2-2.9-2.7-3.2-4.6-4.4
		c-4.1-1.2-7.8,0.7-11,2.5c-2.4,2.9-4.6,6.6-3.2,10.8c1.7,2.7,0.2,6.4,1.2,9.3l-0.7,1C235.2,461.6,231.3,458.2,232.1,452.5
		L232.1,452.5z M243.5,459.5c3.7,2.7,8.8,1.5,13.2,2.2c0.7,2.7,0.7,6.1-1.2,8.4c-4.1-1-9.5-0.5-11.7-4.4
		C244.3,464,243,461.5,243.5,459.5L243.5,459.5z M242.8,451.3c0.7-2,0-4.9,2.7-5.4c1.7-0.5,4.4-0.5,4.6,1.5c-0.2,3-0.5,5.9-1.2,8.6
		C245.5,456.2,243.8,454.2,242.8,451.3L242.8,451.3z M357.1,530.1c-1.2-8.6,2.2-16,7.8-22.1c3.4-0.7,7.3-1.5,10.5,0.5
		c-6.3,1.7-14.4,3.2-15.8,11.3c0.2,3.2-0.8,4.9,0.7,7.6c2.7,4.7,8.8,2.7,12.2,6.4c0,1.2-1,2.7-2.2,3
		C366.1,534.3,361,533.3,357.1,530.1L357.1,530.1z M348.4,547.1c5.9-2.5,12-7.6,18.5-5.4C362.3,545.3,354.7,546.8,348.4,547.1
		L348.4,547.1z M371.5,549.5c-3.4,7.8-7.3,15.5-11.9,23.1c-0.5,1.2-2.5,1.5-3.9,1.7c0-3.4,3.4-6.1,4.9-9.1
		c5.1-6.6,6.6-13.8,12.4-20.1C374.4,546.6,371.5,547.6,371.5,549.5L371.5,549.5z M377.6,535.3v1h-0.5v-1V535h1c-0.2,0-0.7,0-1,0.2
		L377.6,535.3L377.6,535.3z M375.4,528.6c-4.2-0.5-8.1-1.7-11.7-2.9c-2.4-2.5,0-5.2,0-7.9c3.4-5.4,13.2-8.1,17.8-3.2
		C380.8,520,378.8,524.7,375.4,528.6L375.4,528.6z M380.8,528.6c0.7-3.2,2.2-7.4,3.9-10.3C384.4,521.5,383,525.9,380.8,528.6
		L380.8,528.6z M383.5,508.7c-3.2-0.7-4.9-4.4-8.3-4.4c2.9-1,5.8-0.7,9.3-0.2C385.6,505.8,383.7,507.3,383.5,508.7L383.5,508.7z
		 M386.4,516.1h-0.3v-2.7h0.3V516.1L386.4,516.1z M386.6,527.4c-0.3-1,0.5-2.2,0.7-3.4c1.2-1.2,2.4,1,2.9,1.7
		C389.6,526.9,388.1,527.7,386.6,527.4L386.6,527.4z M390.3,512.2c1.2-3.4,1.4-6.4,3.6-9.1c2.4,0,4.6,0,6.6,1
		c0.5,4.9,6.6,11.5,0,15.7c-2.2,1-5.4,3.2-7.8,1C389.6,518.1,389.1,515.6,390.3,512.2L390.3,512.2z M408.1,505.3
		c-0.5-2.2,2.2-0.5,3.2-1.5l7.6,0.5C414.9,503.8,410,512.9,408.1,505.3L408.1,505.3z M420.3,508.5c-2.9,1-5.1,4.4-8.1,5.2
		C413.7,511,417.4,508.3,420.3,508.5L420.3,508.5z M410,523.7v0.7h-0.2v-0.7H410L410,523.7z M410.5,538.7c-0.2,0.5,0.3,1.2-0.5,1.7
		l-5.6-4.4C407.1,535.5,409.1,536.7,410.5,538.7L410.5,538.7z M403.9,531.1c0.5-0.5,1.7-0.5,2.2,0H403.9L403.9,531.1z M400.5,527.4
		c1-1.5,2.2-3.7,3.9-3.7c0,0.2,0.2,0.5,0.5,0.7C403.5,525.7,402.2,526.9,400.5,527.4L400.5,527.4z M394.9,526.9h-1l1.5-1.5
		C396.1,525.9,395.2,526.4,394.9,526.9L394.9,526.9z M395.7,536.2c3.2-3.4,6.1,2,7.3,4.7c3.7,5.4,13.2,10.3,9.5,17.7
		c-4.6,4.2-11.9,0.3-17.1,3.5c-2.7-0.3-7.3,0.5-8.8-2.2C389.3,552,391.7,543.1,395.7,536.2L395.7,536.2z M388.8,540.9l1.2-2
		c-1.9,5.9-4.9,12-8,17.7C380.5,550.7,386.6,546.1,388.8,540.9L388.8,540.9z M399.6,570.1c-4.6,0.3-11.7,3-16.1-1
		c0.2-2-1.9-2.9-1.7-4.9c3.9-1.5,7.3,3.2,11-0.3c5.6,0.3,11.5-0.7,17.1,0.5c2.7,0.7,6.8-4.4,7.3,0.7
		C415.1,573.3,405.4,567.7,399.6,570.1L399.6,570.1z M413.7,534.8V534h0.5v0.7L413.7,534.8L413.7,534.8z M415.1,550.2
		c0.3,2.5,2.7,3.4,1.2,5.7C415.9,554.9,414.4,552.7,415.1,550.2L415.1,550.2z M422,565l-1.2,0.5c-1.2-1-0.7-3.7-0.5-5.2
		C421.7,561.5,422.9,563.3,422,565L422,565z M434.2,570.9c-0.2,0.7-1.5,0.7-1.9,0.2c-7.3-9.3-10.7-19.1-15.4-29.5l1-0.2
		C423.7,551,428.3,561.5,434.2,570.9L434.2,570.9z M443.2,548.3c-0.5,0.2-0.5,0.7-0.5,1c-7.1,0.3-11.7-3.9-17.1-7.6l-0.3-1.2
		C432,540.9,437.3,545.1,443.2,548.3L443.2,548.3z M436.9,515.6c2.9,0.7,3.1,3.9,3.4,6.4c-0.3,5.4-3.2,10.1-8.3,12
		c-2.7,1.5-6.8,2-9.5,1c5.8-0.2,12.2-2.4,14.6-8.4L436.9,515.6L436.9,515.6z M431.5,514.6c1.2,3.4,3.4,6.6,2.2,10.8
		c-2.4,4.7-7.3,4.7-11.7,5.6c-2.2,0.3-3.9-0.5-5.6-1.7c0.2-1-0.2-1.7-1-2.4c0.7-3.2-5.6-6.4-1.2-9.1
		C418.1,514.1,427.3,505.8,431.5,514.6L431.5,514.6z M555.3,496.7c-2,2.4-0.2,6.4-2.7,8.6c0,4.4-3.7,6.6-6.8,8.3
		c-29,6.4-57.5-3.4-85.6-8.3c-39.3-8.6-85.1-11-125.1-2c-18.8,3.4-37,7.9-55.1,13c-11.2,1.5-23.4,3.2-34.1-0.2
		c-8.8-4.2-5.1-15.5-7.8-23.3c0.5-6.1-1.7-11-1.9-16.9c-0.7-2-1.2-4.4-1-6.4c3.6,0.5,7.3,3.2,11.2,4.2c20.5,3.9,38.8-2.7,57.8-6.1
		c18.3-3.9,37-7.1,56.3-8.6c21.9-0.2,44.4-1.5,65.3,2.2c6.8,0.2,12.7,2,19.2,2.4c13.7,1.7,26.3,5.4,40.2,6.4
		c2.2,0.7,4.9,0.7,7.3,1.2c21.9,3.4,46.6,9.6,67.5,0C560.2,480,556.5,488.1,555.3,496.7L555.3,496.7z M548.5,466.8
		c0.2,3.9-3.4,2.9-5.4,4.4h-5.9c-1.2-2-0.7-4.9-0.7-6.9C540.4,465,544.8,465,548.5,466.8L548.5,466.8z M545.8,460.6
		c2.7-2.7-0.7-18.2,6.8-8.1c0,2,0.3,4.9-1.7,6.4C549.7,459.9,547.8,461.9,545.8,460.6L545.8,460.6z M565.6,458.2
		c-2.2,4.4-5.6,7.6-10.5,8.4c0.2-5.9,5.6-10.1,3.7-16.7c-3.2-4.7-9.5-6.1-15.4-4.9c-2.2,1.5-1.2,3.9-1.9,6.1l-1,8.1
		c-4.9,0-5.1-4.4-6.6-7.9c0.2-5.1,2.5-10.3,7.6-12.8c3.9-2,10.2-1.7,14.1,0.5c3.2,0.7,6.8,2.2,8,5.2
		C567.3,447.6,566.3,453.7,565.6,458.2L565.6,458.2z"/>
</g>
</svg>
