<?xml version="1.0" encoding="utf-8"?>
<!-- Generator: Adobe Illustrator 19.2.1, SVG Export Plug-In . SVG Version: 6.00 Build 0)  -->
<svg version="1.1" id="coas" xmlns="http://www.w3.org/2000/svg" xmlns:xlink="http://www.w3.org/1999/xlink" x="0px" y="0px"
	 viewBox="0 0 792 580.8" style="enable-background:new 0 0 792 580.8;" xml:space="preserve">
<path d="M465.8,156.6L465.8,156.6L326,156.5v0.1l0,0l0.1,112.9c0,10.9,4.6,20.4,11,23.4l53.8,32.1c1.2,1.3,2.9,2.2,4.9,2.2
	c1.7,0,3.2-0.7,4.4-1.7l54.6-32.6c6.4-2.9,11-12.5,11-23.4V156.6L465.8,156.6L465.8,156.6z M372.5,189.2h-12.1v-28.9h12.1V189.2
	L372.5,189.2z M329.9,235.3v-27.4h14.7v27.4H329.9L329.9,235.3z M344.6,160.3v28.9h-14.7v-28.9H344.6L344.6,160.3z M372.5,309.5
	l-33.5-20c-5.6-3.8-8.3-10.5-9.1-18.6v-31.8h42.5v70.4H372.5z M360.4,235.3v-27.4h12.1v27.4H360.4L360.4,235.3z M415.5,311.8
	L400,321h-0.3c-1.1,0.9-2.5,1.4-4.1,1.4s-3-0.6-4.1-1.5l-15.4-9.2V239h39.3v72.8H415.5z M415.5,235.3h-39.3v-74.9h39.3V235.3
	L415.5,235.3z M461.8,270.9c-0.7,8.1-3.5,14.8-9.1,18.6l-33.5,20v-70.4h42.5L461.8,270.9L461.8,270.9z M461.8,235.3h-42.5v-74.9
	h42.5V235.3L461.8,235.3z"/>
<path d="M370.2,265c-0.2-0.5-5.3,1.7-3.9,1.6c0.1-1.5,3-4.6,4.3-5.7c-0.2-1.8-2.5-0.2-4.9,1.1c8-11.4,2.9-6.7-1.6-5.9
	c7.1-7.6,5.3-7.5,0-5.1c4.1-3.3,5-7.1,4.4-8.3c-3.9,5.1-7.4,4.3-7.4,9.1c0,3.1-1.1,8.3-2.8,10c-2.1,2.2-0.5-8.4-5.9-8.4
	c-1.7,0-5.9-0.1-7.1,2c1.1,0,2.8,2.8,2.8,4c0,1.1,1,4.2-0.8,4.2c-1.9,0-4-3.9-4-5.8c0-1.9-0.1-1.4-0.1-4.1c0-4.5-7.3-10.9-10.3-10.9
	c0,3.1,4.1,3.9,4.1,7.9c-1.8,0-4.2-3.3-4.2-1.3s2.6,2.4,2.6,4.1c0,1.8-3-0.6-3,1.3c0,1.7,1.6,1.4,2,3c-1.2-0.3-2.3-0.2-2.5,0.4
	c-0.2,0.5,0.3,1.2,1.3,1.8c-0.4,0.4-0.8,1.3-0.8,4c0,8.9,5.6,13.1,9.7,13.1c2.9,0,2.5-2,2.8-3c0.1,1.5,1.6-0.8,1.6,1.9
	c0,2.8-2.8,1.5-2.8,3.9c0,3.2,4.5-0.1,4.5,3.4c0,4.3-0.5,4.2-0.5,5.8c0,1.1,4.7-1.6,4.4-2.1c1.1,0.4,1.1,3.7,3.2,3.6
	c1.3,0,1.6-3.4,2.7-3.7c-0.6,0.2,4.2,3.2,4.2,1.7c0-4.1-1.7-2.4-1.7-5.2c0-2.6,5.8-2.1,4.8-3.5c-0.8-1.1-1.3-0.4-1.9-2.4
	c0.1,0.4-4.5-6.6,1-3C369.8,278.2,370.5,265.6,370.2,265L370.2,265z"/>
<path d="M686.8,144.5c6.8,8.1,8.3,21.1,3.4,30.4c-2.7-0.2-2.2-3.7-2.7-5.6c-4.9-9.1-8.8-20.6-4.4-30.9
	C686.3,138.8,685.1,142.8,686.8,144.5L686.8,144.5z"/>
<path d="M110.2,158.5c-1.5,5.9-1.5,14,0,19.4c-1.2,1.2-1-1.2-2.2-1c-9.5-6.9-5.1-20.4-7.6-30c0.5-0.7,1.7-1,2.4-0.5
	C107.3,149.4,109.3,153.6,110.2,158.5L110.2,158.5z"/>
<path d="M631.6,173.1c2.4,5.1,4.4,11.3,4.9,17.7c-1,4.7,0.7,10.8-2.7,14c-3.4-1.2-3.6-5.4-5.8-7.6c-4.4-8.6-0.5-18.7,1-27
	C630.9,169.4,630.9,171.9,631.6,173.1L631.6,173.1z"/>
<path d="M670.1,183.2c3.2,7.1,3.4,15.7,1.2,23.6l-1.5,1.2c-3.4-6.6-8.3-12.8-10-19.9c0-5.2,1-9.8,2.9-14c1.7-1.2,2.7,0.2,3.4,1.7
	C666.5,178.5,667.7,181.7,670.1,183.2L670.1,183.2z"/>
<path d="M707.7,184.4c-0.2,3.2-5.1,6.4-5.6,9.6c-2.7,6.6-8.5,11.5-15.1,13.8c-1.4,1.2-3.4,2.9-5.6,3.2c-0.5-4.9,3.9-9.3,6.6-13.7
	C693.1,190.5,700.1,186.4,707.7,184.4L707.7,184.4z"/>
<path d="M100.7,194.7c3.7,4.2,5.6,7.9,10,11.5c0.3,1-0.5,2.5-1.7,2.5c-12-0.7-20-13-25.9-21.6c0.7-2.7,3.9-0.5,5.6-0.7
	C92.9,189.6,97.5,190.5,100.7,194.7L100.7,194.7z"/>
<path d="M711.1,198.1c-0.5,10.6-5.6,21.4-15.1,26.5c-2.7,1-5.6,3.7-8.3,2c5.1-10.6,12.9-19.1,21.5-28.5H711.1L711.1,198.1z"/>
<path d="M87.3,207.5c4.6,3.2,8.8,7.6,13.2,11.5c-3.1,2.2-7,0.2-10.7,0.2c-8.3-2.9-13.9-10.1-22.4-12.5c0.3-2.7,3.4-1.7,5.1-2.5
	C77.8,203.8,82.2,206.2,87.3,207.5L87.3,207.5z"/>
<path d="M168.8,337c-8.3,5.9-18.8,6.4-28.3,9.1c-17.8,2.2-35.1,3.7-53.1,3.9c-8.5-0.5-18.3,2.5-26.3,0c-9.3,1.7-19.3-1.2-26.8,3.9
	c-1,1.2,0.3,2.5,0.3,3.7c11.2,7.4,26.6,1.5,39.3,3.7h96c7.1-0.2,14.1-0.5,19.8-3.7c12.4-7.1,19.2-19.9,25.6-32.4
	c2.4-4.4,4.1-9.6,5.1-14.7c2.4-8.4,10-14.3,18.3-15c1.2,12.8-1.2,25.5-4.1,37.3c-1.5,7.9-6.6,15.5-3.4,23.8c0.7,3.9,4.9,3.9,8,4.4
	c29.5-0.5,59-1.7,90.2,0.5c5.6,1,10.5,2.7,16.6,2.5c0.5-0.7,2.2-1,1.5-2.5c-0.7-2.7-2.7-6.1-5.8-6.9c-0.5-1.5-2.7-1-3.4-2
	c-15.6-8.8-34.4-4.2-52.7-3.9c-9.5,1-19,2.7-27.1-2.7c-3.7-4.4-1-18.4-1-18.4c0-5.5,13.4-44.2,15.1-47.4c0.5-3.7,1.9-7.1,1.5-11.3
	c1.9-4.9,1.5-11.3,1.5-16.7c1-7.9,4.9-15.2,7.6-22.8c1.4-3.7,2.7-7.6,4.1-11.3c1.5-4.7,2-9.1,4.9-12.8c7.9,5.1,15.7,4.9,19.5,13.9
	l3.4,20.5c0,1.2,1,3.7,2.7,2.2c6.3-4.2,4.4-13.5,4.4-19.9c1.4-7.6-3.9-11.3-6.1-17.9c-1.7-1.2-4.5-7.1-4.5-7.1
	c-1-5.4-12.8-9.1-10.1-15.8c1.5-5.6,2.9-10.8,8.3-14c0.8,0.5,1.1,1.1,1.2,1.7l2.9-2.1l0.3-20.5c7.9,0,19.7,1,27.7,1
	c2.2,0.7,3.9,2.5,6.3,2.7l2-2.7l19.7-3.8c-8.5,0.9-13.6-8.7-21.5-8.7l0,0c-13.7-5.4-22.7,8.8-36.6,7.1c-1.7,1-1.2,2.7-2.2,3.9
	c-0.7,0.7-2,0.2-2.7-0.2c-0.7-5.9-2.7-11.3-3.4-17c-1.4-2.4-0.7-5.9-1.9-8.3c-7.8-21.4,19-5.2,24.4-17.7c4.6-10.8-9-12-13.2-19.6
	v-3.2c-3.9-3.9-8.1-5.2-10.5-10.3c1.7-6.1,2.4-12.8,0.7-18.9c-0.2-1.5-1.2-3.4-3.4-2.7c-4.6,6.4-8,11.5-12.4,17.7
	c-4.6-3.4-9-7.9-14.4-10.8c-3.7-0.5-7.1-4.2-11.2-2.7c-0.7,1.5,0,2.7,0.7,3.7c0.2,9.6,5.1,17.2,11.9,24.1l0.7,3.7
	c-4.4,10.1-3.2,21.6-4.4,32.4c-11,28-28.8,55-52.9,74.4c-13.9,15.7-30.5,30.9-32.7,52.5c-0.7,3.4,0.5,7.6-2.2,10.1
	c-8-3-16.1-6.9-22.7-12c-11.2-7.9-27.3-6.9-34.6-21.1c-3-5.6,0.7-11.3,3.4-15.5c8.3-7.9,7.1-21.9,2.7-31.4c-1-0.3-1.2,1-1.9,1.2
	c-0.7,14.5-12.2,24.5-7.8,40.5c1,4.7,3.4,7.6,4.6,12c-1.7-0.5-4.1-0.5-5.6-1.2c-5.4-0.7-10.7-3-16.3-2.2
	c-11.2,5.2-26.6-1.2-35.6,9.1c-1.5,0.3-3.4,0.5-2.9,2.7c5.4,0,10.5,1.5,15.9,1.2c8.5,1.5,14.1-5.7,20-8.8h1.5c2.4-2.5,6.6-1,9.8-1.5
	c15.4,1.7,27.3,9.1,40,16.7v1c-4.9,2.2-10.5,3.7-15.4,6.4c-5.6,4.2-11.9,9.6-13.6,16.5c-3.9,6.1,1.2,11.5,3.6,16.7
	c0.2,2.5,0.5,5.4,2.7,6.4c7.8-8.3,0.5-18.7,1.7-28.2c2-7.4,8.8-10.8,15.9-12.8c13.9-5.9,23.9,5.4,35.1,11.8
	c-0.3,11.3,1.2,22.1-1.2,33.1c-3.4,1.2-7.8,2-11.5,1.7c-19.2,1.5-34.4,12-51.7,17.9c-7.8,2.7-17.1,2.5-24.9,5.4
	c6.1,1.7,12.4-0.5,18.8-0.7c23.9-3.4,42.2-21.9,68-18.7l0.5,0.7c-2.9,6.1-6.8,11.3-11.4,16c-0.8-2.7-3.7,2.7-3.7,2.7
	s-3.2,3.2-4.6,5.2c-6.8,11.5-20.8,6.9-28.8,15c-1.2,1.7-5.6,2.7-3.7,5.4c9.3,1,18.3-1.5,25.1-6.4c9-10.1,18.5-19.6,27.5-29.2
	C183.1,316.5,173.5,330.7,168.8,337"/>
<path d="M369.8,143.5c0.6-0.1,1.2-0.2,1.8-0.4L369.8,143.5L369.8,143.5z"/>
<path d="M481,214.6c0.1,0.1,0.2,0.2,0.2,0.3"/>
<path d="M707.2,247c1,0.2,0.5,1.7,0.2,2.2c-5.8,3-14.6,3.7-19.7-1c-2.9-2.5-6.6-3.4-9.8-5.4c1.2-3.2,5.6-3,8.8-3.7
	C693.8,240.1,699.4,246.8,707.2,247L707.2,247z"/>
<path d="M414,256.7c-0.5,4.9-8.6-0.7-7.4,5.8c1.2,4.7,2.1,10.3,4.9,13.7c2.3,3.3,1.1,8.4,0.9,12.4c-2.1,3.5-5.6,6.1-9.3,7.9
	c-7-0.7-17.1,3.5-20.4-5.1c-1.4-3.7-3.9-7.5-3.9-11.7c0.7-0.5,1.6-0.5,2.3-1.2c0-1.6-1.8-2.6-1.6-4.2c7.9-1.4-3.3-8.4,3.5-8.9
	c5.6,5.8,14.6,4,19.4,10.3c1.2,0.9,2.1,2.3,3.5,3c-0.9-5.8-3.7-11.7-4.6-18c-0.7-3.3,0.5-6.3,2.8-8.2
	C408.2,249.4,411.7,254.1,414,256.7L414,256.7z"/>
<path d="M302,271.6c2.9,9.6,1.9,19.4-2.9,27.5c-0.2,2,0.5,5.1-2.2,4.9c-6.6-9.1-1.7-21.8,1-31.4C298.3,270.1,301.3,269.1,302,271.6
	L302,271.6z"/>
<path d="M510.7,276.2c3.4,6.9,3.6,16,0.5,22.8l-2,2c-2.7-5.6-4.9-11.3-5.6-17.4c1.2-4.4,2.7-8.4,2.9-13
	C509.9,269.9,509.7,274.3,510.7,276.2L510.7,276.2z"/>
<path d="M172.6,264.9c-1.5,2.9-5.6,3.7-8.3,5.6c-5.9,4.4-14.4,5.4-21.7,4.2c6.3-8.8,16.1-14,27.8-11.5
	C170.9,264.2,172.1,263.7,172.6,264.9L172.6,264.9z"/>
<path d="M72.4,273.8c9,6.4,11.5,15.2,16.8,24.1c0.7,1,3.2,1.2,2.2,3.2c-2,1.5-3.9-1.5-6.6-1c-9.3-4.2-15.1-14.5-14.9-25.3
	C70,273.8,71.4,273.8,72.4,273.8L72.4,273.8z"/>
<path d="M606,294.4c0-4.7,1.2-9.1,1.7-13.5c0.7-1.5,1.2-3.2,1-5.1c5.9-7.9,17.8-5.4,27-4.7c3.7,2,8.3,1.7,12.2,2.7
	c1.7-1.2,4.2-1.5,6.1-1.2c7.8-4.2,2.7-13.3,3.2-20.4l-2.9-7.4c-0.7-1.5-1.5-3.2-2-4.9c-1.4-1.7-2.4-4.9-3.9-6.6
	c-4.1-10.8-12.2-16.9-19-25.5c-12.4-16.2-32-25.3-51.4-31.7c-19.3-6.6-38.8,2-56.1,8.1c-5.3-1.5-8-5.6-9.5-10.3
	c-1-9.3,1-18.4,4.6-26c0.7-6.1,4.9-10.8,6.6-16.5c4.4-13.7,9-27.3,10-42.2c0.5-9.1-6.3-15.5-13.2-19.4c-4.6-1.2-10-1-13.4,2.7
	c-3.1,6.6-10,11.1-15.8,14.2c-0.5,4.2,4.6,1.5,6.3,2.9c5.4,1,11.5-0.7,15.9,2.7c0.5,9.8-5.1,17.9-10.2,25.3
	c-8.3,12.3-17.1,24.8-22.2,38.3l-1-1l1.2,60c7.8,12.9,17.5,27.7,32,32.6c7.8,6.4,17.5,14,28,8.3c5.6-1.7,6.1,6.1,8.8,9.3
	c2.9,9.1-3.6,15.5-4.1,23.8l-6.3,13.5c-7.3,14.2-13.9,29.5-25.1,41.5c-3.6,0-5.8,3.9-9.5,4.2c-2,2.7-5.9,0.7-8.3,1.7
	c-7.6,3.2-18.3,1.2-23.4,8.3c0.5,0.7,1.2,1,1.9,1.2c14.9,0.2,31.5,1.2,47.3,0.5c1.9-0.7,3.7-2.5,3.9-4.7c-2.2-4.2,0.7-7.9,2.7-11
	c1.2-5.9,5.1-9.6,6.8-15.2c5.1-10.1,11-19.9,16.6-30l7.5-12.3c1.7-4.2,4.6-9.3,7.6-13.8c1.9-2,2.9-4.2,4.4-6.6
	c0.3-2.5-1-3.4-2.4-5.2c1.7-1.7,4.4-1.2,6.6-1.7c6.1,3.7,12.4,9.6,13.6,16.2l2.2,6.4l1,2.9l-0.5,8.1l1,7.6c1.2,11.8-1,23.8-2.2,35.6
	c-4.1,14.2-20.5,12.8-32.2,16c-2.9,2-8.5,1-8.5,5.9c14.1,3,30.7,1.2,45.8,1c2.4-1,2.9-3.2,4.1-5.4c0.5-3.2,3.7-5.9,2.7-9.3
	c-2.7-3.4-0.2-8.8-1-13.5c0.5-1.2,0.5-2.9,0-4.7c1.9-7.1,1.5-15.7,2.9-22.6L606,294.4L606,294.4z"/>
<path d="M726,284.8c-7.8,11-16.1,23.6-29.7,27.5c-1,0-1.9,0.5-2.4-0.7c8.3-8.8,12.7-22.6,25.6-25.8C721.3,284.8,724,283.8,726,284.8
	L726,284.8z"/>
<path d="M130.7,300.3c0.7,2.2-1.7,2.2-2.9,2.7c-10.2,3.7-20.7,0.3-28-7.1c0-1,0-2,1-2.2C110.7,296.1,122.4,294.2,130.7,300.3
	L130.7,300.3z"/>
<path d="M747.4,323.6c0.5,3.4-3.9,1.7-5.6,2.7c-10.2,6.1-23.4,1.5-33.2-2.2c0.7-3.2,4.4-2,6.3-3.2c10.5-6.6,21.2,1.5,31.7,2
	L747.4,323.6L747.4,323.6z"/>
<path d="M80.2,320.7l-1,1.7c-9,5.4-20.7,9.1-31.4,5.7l-1-1.5c9-6.6,21-8.3,32.7-6.6L80.2,320.7L80.2,320.7z"/>
<path d="M88.5,327.5c0.8,2-1,2.7-1.2,4.2c-0.7,4.2-3.4,6.9-5.3,10.6c-4.6,5.6-11.2,5.6-17.8,7.4l-1-2c7.1-9.1,14.6-16.2,24.6-20.6
	L88.5,327.5L88.5,327.5z"/>
<path d="M728.3,346.7c0-0.2,0-0.3,0-0.5c0,0,0,0,0-0.1c-0.8-2-1.9-4-3-5.9c0,0,0,0,0,0c-3.9-4.4-9.7-10.1-16.9-9.5
	c-2.7,2,1.9,3.7,2.9,5.9c3,7.3,10.5,12.3,17.6,15.2c0.7,0.4,2.4,0.7,2.9-0.3C731.5,349.6,730,347.9,728.3,346.7z"/>
<path d="M660.1,346c2.2,2.7,4.4,6.9,5.4,9.8c-0.5,0.7-1.7,0.5-2.2,0.5c-8.3-4.7-19-9.8-22.2-19.6c-0.7-1-2.7-2.2-2.4-3.9
	c6.3-1.2,12.4,3.4,16.8,6.9C657.2,342,659.2,343.3,660.1,346L660.1,346z"/>
<path d="M582.6,379.6c0,3-5.4,2.2-7.6,4.4c-7.6,3.9-16.6,3.9-25.6,3.7v-1.5C558.2,378.9,570.9,376.2,582.6,379.6L582.6,379.6z"/>
<path d="M627,393.8c-6.1,3.9-12.9,8.6-21,8.6l-13.2-0.3l-1.2-1c8.1-9.8,22.7-9.8,35.4-8.8V393.8L627,393.8z"/>
<path d="M79,427c-2.4,2.9-6.3-0.7-9-2.2c-8.5-4.9-8.3-14.5-16.8-20.1c1-2.9,3.2,0.2,4.9-0.2c1.5,1,3.4,2,5.1,2.7
	C71.4,411.8,73.4,419.6,79,427L79,427z"/>
<path d="M789.6,331.7c-3.9-7.1-10.5-10.1-18.3-10.1c-6.3,0.5-11,4.7-13.6,10.1c-1.5,5.4,0.5,10.3,4.6,13.5c1.7,0.7,3.9,0.5,4.9-1.2
	c1.2-3.2-2.2-3.2-2.7-5.6c-1-3.4,0.3-6.4,2.7-8.6c2.4-2.5,6.6-1.2,9.5-1.2c2.9,2,5.8,3.7,7.3,7.1c1.5,4.2,1.5,8.8,0,13
	c-2.7,6.1-8.8,11-15.1,12.3c-20.2,2.9-242.3,2-242.3,2c-26.1,2.5-55.8-4.9-78.2,8.8c-10.2,4.9-15.4,16.2-18.1,26.3
	c-6.6,5.9-13.6,12.8-19,19.4l-0.7-0.7c1.2-5.9,3.9-11.1,5.1-17c3.7-4.9,3.7-11.5,6.3-16.9c9.3-15,18-30.2,32.4-40.8
	c6.1-8.1,16.8-6.6,26.1-6.6c10,4.7,21.7,6.1,33.9,4.9c0.5-0.5,0.7-1,0.7-1.7c-3.4-3.2-9-4.4-12.9-7.6c-9.8-4.7-19,1.5-29.3,0.7
	c-0.5-0.5-1-0.7-0.7-1.5c9.3-6.9,19.8-11.8,30.2-16.2c8.5-4.7,17.6-7.1,26.6-10.6c3.7,0,7.1-3.2,10.5-1l12.9-3.4
	c0.5,0.3,1,1,1.9,0.7c11-3.7,24.9-0.3,37.3-0.5l1.7,1.5l11.7,2.9c4.4,0.5,6.4,5.7,11,5.9c2.4-3.4-2.7-4.9-3.9-7.1
	c5.2-1.2,11.1,0.1,15.9,2.3c2.2,0.1,4.4,0.4,6.4,1c17.8,3.2,34.9,7.6,51.3,14.6c4.6,1.5,9,4.9,14.2,4.7c-5.1-4.7-12.2-7.1-18.5-9.8
	c-4.2-2.5-10-2.7-13.2-6.1c0.7-1.2,2.4-0.7,3.2-1.7c8.3-1,15.4-7.1,21.2-13.8c0.5-1.5,3.2-1,2.9-2.9c-2.2-2.5-5.8,0.7-8.8,0.5
	c-10.2,2-14.6,14-24.9,16.2c-12.4-3-25.1-5.9-37.5-9.1c-6.1-1-12.7-1.5-18.3-3.9l-13.7-1.2h-24.9c-0.2-0.5-1-0.7-0.7-1.5
	c8.8-2.2,16.3-7.4,25.1-9.6l65.3-30c6.8-6.1,12.9-13,18.5-20.1c0.2-2-1-3.9-2.7-4.7c-1.7-0.7-3.7-0.5-4.9,1c-2.9,2.2,0,4.9,0,7.6
	c-2.9,3.9-7.6,7.4-11.2,9.6c-1-0.2-67.3,30.2-67.3,30.2c-9.8,4.2-19.5,8.8-29.7,11l-14.1,2.2c-1,3-3.4,4.7-6.1,5.6
	c-3.9,0.7-7.1,3.2-11.2,3.2c-31.7,12.3-64.6,25.3-89.7,50.3c1.5-2.9,2.2-6.6,2.4-10.3c-0.5-3.7-0.2-7.9-2.7-10.8
	c-0.6-1.3-2.4-5.3-1.8-6.7l-3.6,2.3c-2.2,5.4-4.1,15.2-1.9,20.9c0.7,4.4,4.4,9.6,1,13.5c-11.7,14.2-18.3,31.4-26.1,47.6
	c-2.9-0.5-4.4-3.2-5.6-5.9c8.3-10.6,14.9-22.3,17.3-35.8c1.7-1.2,0.5-4.4,2.2-5.9c-0.5-3.9,2.2-7.9,0.3-11.1
	c1.6-5.3-7.1-10.3-1.6-13.7l-4.6,2.2c-10.5,13.8,5.4,34.4-6.5,47.6v1c-3.4,4.4-5.1,8.8-9.8,11.8c-5.9-2.4-8-9.1-11.4-14
	c-5.4-5.2-5.4-15.7-2.2-22.8c2.2-7.1-1.5-13.3-2.2-19.6l-2.4-1.5c-5.9,7.6-8,19.6-3.4,28.7c2.4,4.4,2.7,10.6,6.3,14.2
	c2.2,7.1,6.6,11.8,10.5,18.2c1,2.5-1.5,2.9-2.7,4.2c-2.7-1.7-2.2-5.6-4.7-7.4c-8-17.2-18.5-30.9-31.2-44.9c-0.5-2.2-2.7-4.2-1.5-6.6
	c4.6-4.4,5.6-13,3.2-18.7c-0.5-1.2-1.9-2.7-1.7-3.9l-3.6-2.9c0.5,8.6-5.1,16.2-2.7,25.3v0.5c-25.1-18.9-52.9-35.8-81.2-49l-2.2,6.2
	c7.1,1.8,26.1,13.3,26.1,13.3c8.5,3.2,16.3,8.3,24.4,13c33.2,18.4,55.1,48.9,70,82.8c0.3,2.7,2.7,5.6,1,8.3
	c-5.1-7.9-12.4-12.3-18.5-18.7c-1.7-11.5-8.5-22.6-18.5-27.3c-3.7-5.4-11.5-5.9-17.6-7.6l-88.7-0.5c-72.2-1-138,2.2-209.7,1
	c-10-1-22.2-4.4-25.1-15c-2-3.7-2-10.1,0-13.5c2.7-4.7,7.5-6.1,12.4-6.6c3.9,0.5,6.6,4.2,8.3,6.9c0,3.2-2.7,6.1-3.9,8.8
	c0.2,1,1.2,2.9,2.9,2.2c3.2-1.2,5.6-4.7,6.4-7.9c0.2-1.7,1-4.2-0.7-5.4c-1.5-5.2-6.8-8.8-11.5-10.1c-6.1-0.5-12.4,1.2-16.6,5.6
	c-5.9,4.9-5.6,13.8-3.9,20.6c4,11,15.4,18.3,26.4,19.8l237.2,1c23.2,1.2,49.2-2.7,72.6,2c8.5,2.7,17.6,9.1,19.8,18.7
	c-0.3,0.5-1,0.2-1.7,0.2c-19.3-12.5-44.6-17.2-69.2-14.2c-9.7-0.5-18.5,3.2-27.3,5.6c-4.6,1-9-1.2-12-3.9
	c-8.8-7.8-24.1-7.4-35.3-4.4c0,0.8-0.3,1.5,0.2,1.7c11.9-1,19,9.3,29.8,10.6c2.4,0.5,4.4-2.2,6.6-0.2c-11.2,5.4-21.9,11.8-33.9,15.2
	c-3.6-0.7-5.6-4.2-8.5-6.1c-4.6-5.1-13.1-2.9-19.5-3.4c-2.2,0.5-4.1-1-5.6,0c1.9,3.9,6.3,6.1,10.5,8.1c6.1,2.7,13.2-0.2,18.8,3.4
	c-1.5,1.7-3.4,2.2-5.1,3.4c-11.4,4.4-21,14.7-33.6,14c-13.4,1.5-27-2.5-36.1-11.8c-3.9-9.6-13.9-14.7-24.6-14.2
	c-0.7,0.5-1.7,0.5-1.5,1.7c5.4,3.2,9.5,9.6,14.9,13.3c3.4,4.2,10,0,13.2,4.7c4.6,3.2,10.5,5.9,15.8,6.9c3.9,1.7,8.3,2.5,12.7,3.5
	l-1.7,1c-22.2,7.4-47.8,8.1-72.6,7.1c-7.3-0.3-14.4-2.4-21.7-2.2c1.2,1.5,3.7,2.7,5.9,3.4c-1.9,1.2-4.2,1.7-6.6,2
	c-2.9,0.7-6.3,1-9.3,2.5c-3.9-0.2-7.3,1.2-10.5,2.4c-4.1,4.4-9,9.1-13.9,11.3c0,1-0.2,2.5,1,2.5c4.6-2,10.5-0.5,15.1-2.5
	c8-0.7,12.7-9.6,19-13.3c6.8-5.4,16.6-4.2,24.9-2.9c0.8,0.2,1.3,0.4,1.7,0.7c0.1,0,0.1,0,0.2,0c0.5,0,0.8,0.2,1.1,0.4
	c0.2,0,0.5,0,0.7,0.1c0.2,0,0.4,0.1,0.5,0.1c2.1,0.1,4.2,0.1,6.2,0.1c0.1,0,0.1,0,0.2,0c3.2-1.1,7.3,0.7,10.5-0.6
	c9.3-0.2,18.5-2.2,27.6-2.5c1.5-0.2,3.2-1.7,4.6-0.2c0,0,0,0,0,0c1.1,0,2.3-0.1,3.4-0.3c4.9-2.2,10.5-3,15.4-5.3
	c3.7-0.7,7.1-2,10.2-3.4c3.2-0.2,5.8-3.2,8.8-2c-1.2,4.2-2.9,8.1-5.1,11.8c-3.9,13-6.8,30.2,0,42.7c0.7,0.2,1-0.3,1.5-0.5
	c-5.1-13-2.2-28,2.2-40.3c3.4-20.9,24.9-27,40.2-34.9l0.7,1c-4.1,10.8-10.2,21.1-9.3,34.1c0.5,2.2-1,4.4,0,5.9
	c4.1-2.2,6.8-7.1,9-11.3c1.7-11-4.6-24.8,6.6-32.9c20-7.9,38.8-18.2,61.9-18.4c0.7,0.7,2.4-0.5,2.7,1c-4.9,5.4-11.9,10.6-14.1,17.2
	c-7.8,10.8-7.6,29.2-4.1,42.5c2.2,7.6-4.4,11.8-7.5,17.7c-1.5,2.1-2,5.7-3.3,8.1l4.8,0.5c4.1-4.4,8-9.8,8.3-16.2
	c0.5,2.5,2.7,4.4,4.6,4.9c1.7-2.7-1.5-4.7-1.7-7.4c3.9-2.2,5.6,2.7,8.8,3.7c5.1,1.2,9.5,3.4,14.9,3.4l1.7-1.7
	c-5.4-8.3-16.1-9.8-25.3-10.3c-4.9-8.1-4.9-18.2-4.4-28c1-5.2,2-10.6,4.9-15.2c1.2-3.4,4.6-6.6,6.8-9.3c4.4-4.2,10-7.1,15.4-8.3h0.7
	c0,0.1,0,0.2,0,0.3c2.6,0.2,5.1,0.9,7.7,0.9c0.4,0,0.8,0.2,1,0.4c13.1-0.9,24.7,5.8,36.2,10.8c2.4,1.7,6.6,3.2,7.1,6.6
	c-0.3,6.6-3.9,13.3-9,16.5c-6.6,3.9-16.1,4.4-22.2-0.2c-3.7-3.7-5.1-10.1-3.9-15c2.7-2.9,6.3-5.4,10.7-3.9c2.5,1.2,4.7,3.7,7.8,2.2
	c1.2-0.7,1.7-2.7,1-3.9c-2.7-1.5-3.6-5.2-7.3-5.6c-4.6-0.7-10.2-0.5-13.4,2.7c-5.1,4.4-7.1,11.1-5.6,17.2
	c1.7,7.9,7.6,13.5,15.1,15.7c11.2,2.7,22.9-0.7,30-10.3c2.9-3.2,3.6-6.6,5.4-10.6c11.7,7.1,20.5,19.6,25.1,32.4
	c0,4.2,1.2,8.6,0.2,12.3l8.5,0.7c-0.7-2,0-4.2,0.7-5.9c3.2-16.2,13.2-29.7,25.1-40.3c4.1-2.5,3.2,3.2,4.1,4.9
	c3.6,9.3,12.2,16,21.2,18.7c10.2,1.7,20-0.7,26.3-8.6c3.2-5.9,7.1-14.5,1.7-20.6c-3.4-4.2-8-6.4-13.4-6.4c-6.4,0-10.2,4.4-13.4,9.1
	c0,2-0.3,4.2,1.5,5.2c1,0,2.9,0.2,3.7-1.2c0.5-3.7,3.6-5.4,6.6-7.4c2.7-1.5,5.6,0,7.8,1.5c2.7,2.2,3.2,5.9,3.4,9.6
	c-0.5,4.7-3.7,9.6-8,11.5c-7.1,3.7-17.3,2-23.4-2.2c-2.9-3.2-4.6-6.9-6.8-10.8c-0.5-3.9-2-7.4,0-11.3c10.6-6.4,21.7-10.9,34.5-12.3
	c0.2-0.1,0.4-0.1,0.7-0.1c3.4,0.4,6.9-0.3,10.3,0.3c0.7-0.2,1.2-0.2,2.1-0.2c5.1,3.4,10.7,7.4,14.9,12.8
	c7.1,11.5,10.7,25.3,9.5,40.3c-1.9,7.4-9.7,10.8-15.8,13.5c-2.4,2-5.4,4.9-6.6,7.9c2.9,1.7,7.1,0,10-1.2c4.6-1.7,7.3-7.6,10.5-10.3
	c0.5,0.2,0.2,1,0.5,1.5c0.2,2.7-1.2,6.4,1.2,7.1c1.2-3.4,1.5-8.3,2.2-12.5c3.2,3.5,3.6,7.9,4.6,12.3c2.2,4.4,5.8,10.3,11.7,11
	c1.5-2.2-0.2-4.4-0.7-6.4c-0.7-6.1-5.9-9.3-9.3-13.8c-8.5-11.8-4.6-30.2-11.2-43.5c-2.4-7.1-7.6-12.3-13.2-18.2l1-1
	c11.9-0.2,22,3.7,32.9,5.9c13.4,6.6,32.9,5.2,39.3,22.6c2.7,9.8,7.1,18.9,13.9,26.5l0.7-0.5c1.5-2.4,1.5-6.6,0-9.1
	c-1.5-12.3-12.2-15.2-17.8-25.5l0.7-1c5.8,1.7,11.9,3.2,17.8,5.7c19.5,5.4,33.2,24.6,35.6,44.4c0,15.7-2.9,28.7-9,42
	c-0.8,2-4.1,4.2-2,5.9c2.7-2,3.2-5.2,4.6-7.4c8.1-13.5,12.2-32.2,8.1-49.4c-0.2-2.8-3.1-5-2.6-7.7c-0.3-0.8-0.6-1.6-0.9-2.4
	c0,0,0,0.1,0,0.1c-2.4-4.2-4.9-9.6-8.8-13l0.5-0.7c11,3.7,21,9.1,32.2,12c2.4,1.5,5.1,2.7,8.5,2.7c9.5,3.7,20,5.2,30,7.6
	c7.3-0.7,13.4,2.7,20.7,1V446l-0.2,0.2c-2.7-3.4-8.5-0.2-11.7-2.7c-16.8-1.7-32.9-6.1-48-12c0,0,0,0,0,0c-0.2,0-0.3,0-0.4-0.1
	c-0.5,0.1-1,0-1.5,0c-7.6-3.4-14.9-6.6-22.2-10.1c-2.7-0.5-4.9-2.7-7.6-3.2c-5.6-2.7-11.2-5.4-16.8-7.6
	c-15.6-8.1-32.9-12.5-49.5-18.4c-3.7-1-7-2-10.5-3c-6.1-1.7-12.2-3.2-18.3-4.9c-20.7-5.1-48.5-5.6-66.6,5.7c-2.9-1-4.6,3.7-6.1,0.7
	c5.1-13.5,20-17.9,33.4-18.4c97.7-1,189.4-1.7,285.7-3.2c11.2,0,22.2-3.9,28-14C792,348.4,792.8,338.4,789.6,331.7z"/>
<path d="M666.5,406.9c0,0.7,1.5,1,1,2.2c-8.5,7.6-20.5,9.8-32.7,10.3c-1,0.2-2,1-3.2,0.7c-0.7-0.5-1-1.2-0.5-1.7
	C639.9,408.8,653.3,403.9,666.5,406.9L666.5,406.9z"/>
<path d="M120.2,427.2v1.7c-5.8,1.2-11.4-0.2-15.8-3.7c-3.4-4.9-7.3-9.8-12.9-12.3c0-0.7-1.5-1.7,0-2.2
	C103.6,410.8,110.9,420.6,120.2,427.2L120.2,427.2z"/>
<path d="M703.5,411c-5.6,8.3-10.5,18.7-20.5,22.3c-1.7,0-3.2,2.5-4.7,0.8c3.9-9.3,12.2-19.4,21.7-23.3
	C701.1,410.8,702.6,410.5,703.5,411L703.5,411z"/>
<path d="M734.2,415.4c-2.2,3.2-1.2,7.9-3.4,11.3c-4.9,5.6-9,12-16.8,13.3c-1.2-2.4,1.7-4.9,2.9-7.1c3.4-7.4,8.3-15.7,16.1-18.9
	L734.2,415.4L734.2,415.4z"/>
<path d="M733.1,446.7c-0.1,0-0.2,0-0.4,0H728c-0.3,0-0.5-0.1-0.7-0.1c-4-0.1-8.4-0.5-11.1,2.2c2,1.7,4.9,1.7,6.6,2.9
	c6.3,6.9,15.3,9.1,24.1,9.3v-2C742.5,454.6,738.7,449.9,733.1,446.7z"/>
<path d="M113.1,445.4c0,3.4-3.7,5.4-4.9,8.8c-3.7,8.1-10.2,15.5-19.5,16.2c-1-2.2,3.2-4.9,4.1-7.1c3.9-8.3,11.7-12.8,18.8-17.9
	H113.1L113.1,445.4z"/>
<path d="M700.1,468.5c1.2,1,3.4,2.2,2.9,3.9c-3.9,1.7-7.1-2.7-10.7-3.4c-5.9-5.9-10.3-12.3-12.7-19.6c2.2-2.2,4.6,0.5,6.6,1.2
	C691.8,455.2,697.2,461.4,700.1,468.5L700.1,468.5z"/>
<path d="M647,473.6c3.4,4.9,5.8,11,6.3,17.4c-0.7,1.7,1.2,3.4-0.2,4.7h-1c-11-7.9-13.4-18.9-17.5-30c-1-0.5-1.2-1.5-1-2.5
	c2.4-2.2,4.1,2.2,6.6,2.9L647,473.6L647,473.6z"/>
<path d="M221.8,465.3c-0.2,0.2,0,0.5,0.2,0.5c-9.8,6.9-23.4,11-34.6,4.4c-0.3-0.7,0.2-2,1.2-2.2c7.1-2.2,13.9-5.7,21.5-4.7
	L221.8,465.3L221.8,465.3z"/>
<path d="M166.2,466.5c-8.3,5.1-15.8,15.2-26.1,17.7c-2,0.7-3.2,3.4-5.6,2c4.4-13.3,18.8-20.4,31.7-21.6V466.5L166.2,466.5z"/>
<path d="M612.4,478.8c-1.5,3.4-5.6,5.4-8.8,6.4c-8.3,2.9-15.9-1-23.2-3c0.2-2,2.7-1.2,3.9-2.4c8-1.7,16.3-3.4,24.8-1.2
	C609.9,478.1,611.6,477.8,612.4,478.8L612.4,478.8z"/>
<path d="M185.8,496.2c-0.5,6.9-1.9,15.2-8.8,19.1c-3.9,0.7-7.8,4.4-11.7,2v-1.2C170.4,508.7,179.7,503.1,185.8,496.2L185.8,496.2z"
	/>
<path d="M210.1,513.2c3.4,5.7,1.5,13.3,3.4,19.4c-4.2,0.5-5.9-4.2-8.5-6.6c-5.4-7.4-4.6-17.2-7.1-25.8c0.5-0.7,1.2-0.7,1.7-0.5
	c3.6,2.4,6.3,7.1,9.3,10.3C208.4,511.7,210.4,511.7,210.1,513.2L210.1,513.2z"/>
<path d="M630.9,525.7c0,0.7-0.2,2.2-1.5,1.7h-1c-7.1-6.4-14.1-13.5-13.2-23.3l1.5-0.2C623.3,509.5,630.7,515.6,630.9,525.7
	L630.9,525.7z"/>
<path d="M596.5,523c-3.4,9.1-12.7,13.8-19,20.6c-1.2-0.7-0.7-2.7-0.5-3.7c2.4-9.3,9.8-18.4,18.8-22.1
	C599.7,518.3,595.8,521,596.5,523L596.5,523z"/>
<path d="M433.4,84.6c3.3,0,6,2.7,6,6.1s-2.7,6.1-6,6.1h-72.3c-3.3,0-6-2.7-6-6.1c0-3.3,2.7-6.1,6-6.1H433.4L433.4,84.6z M382.3,95.1
	c7.1,0,0.4-8.6-3.4-8.6h-7c-7.1,0-0.4,8.6,3.4,8.6H382.3L382.3,95.1z M411.9,95.1c7,0,0.4-8.6-3.4-8.6h-7.1c-7.1,0-0.4,8.6,3.4,8.6
	H411.9L411.9,95.1z M433.7,86.5l-2.7,0c-7.2-0.3-1.2,8.4,2.7,8.6C438.5,95.1,438.8,86.5,433.7,86.5L433.7,86.5z"/>
<path d="M427.1,167.5l13.8,5.3l13.6-5.3l-5.4,20.3l10.7-2.2l-3.7,12.3l3.7,11.8l-9.6-2.6l4.2,21.9l-13.6-5.3L427,229l5.6-21.9
	l-11,3.1l2.9-12.3l-2.9-11.8l10.5,1.7L427.1,167.5L427.1,167.5z"/>
<polygon points="394.7,197.4 394.7,194.9 392.4,194.4 394.2,192.5 393.1,190.5 395.5,190.7 396.9,188.2 398.3,190.7 400.7,190.5 
	399.6,192.5 401.4,194.4 399.1,194.9 399.1,197.4 396.9,195.8 "/>
<polygon points="384,211.2 384,208.7 381.7,208.2 383.5,206.3 382.4,204.3 384.8,204.5 386.2,202 387.6,204.5 390,204.3 
	388.9,206.3 390.7,208.2 388.4,208.7 388.4,211.2 386.2,209.6 "/>
<polygon points="402.2,209.5 402.2,206.9 399.9,206.5 401.7,204.6 400.6,202.5 403,202.8 404.4,200.3 405.8,202.7 408.2,202.5 
	407.1,204.6 408.9,206.5 406.6,206.9 406.6,209.5 404.4,207.9 "/>
<polygon points="388.5,230.6 388.5,226.2 384.5,225.4 387.6,222.2 385.7,218.6 389.7,219.1 392.2,214.8 394.6,219 398.7,218.6 
	396.8,222.2 399.9,225.4 396,226.2 396,230.6 392.2,227.8 "/>
<polygon points="396.1,0 404.6,21.1 426.4,14.7 415.3,34.6 433.9,47.8 411.5,51.5 412.9,74.3 396.1,59 379.2,74.3 380.6,51.5 
	358.2,47.8 376.8,34.6 365.7,14.7 387.5,21.1 "/>
<path d="M317.4,473.5c-2.6,1-3.6,1.7-3,4.4l3.1,12.9c0.6,2.4,0.7,6.2-0.9,8.5c-1.9,2.8-5.9,4.6-8.8,5.2c-2.1,0.5-6.7,1.4-10.4-0.2
	c-2.4-1-4-2.2-5.1-6.5l-3.2-13.6c-0.8-3.4-2.1-3.2-4.8-2.8l-0.2-1l16.3-3.9l0.2,1c-3.2,0.9-4.6,1.3-3.8,4.9l3.2,13.5
	c0.5,2.3,1.9,7.9,8.8,6.2c8.5-2,7.1-8.3,6.5-10.9l-2.9-12.4c-0.6-2.5-1.5-3.7-5.7-2.9l-0.3-1l10.6-2.6L317.4,473.5L317.4,473.5z"/>
<path d="M341.6,476.2c-1.5-2.7-5.4-6.7-11.2-5.4c-2.5,0.6-4.9,2.4-4.3,5c0.5,2.2,1.6,2.9,6.1,3.7l7.8,1.4c1.8,0.3,6,1.9,7,6.3
	c0.8,3.6-1.2,9.2-10.2,11.2c-4.6,1-7.1,0.1-8.6,0.5c-1,0.2-1.1,1-1.1,1.7l-1.4,0.3l-2.2-10.1l1.4-0.3c1.9,3.9,5.7,7.9,11.9,6.5
	c5.8-1.3,5.2-5.4,5.1-5.9c-0.6-2.7-3.1-3.2-6.5-3.8l-3.5-0.6c-9-1.5-9.8-5-10.2-6.9c-0.5-2.5-0.3-8.3,9-10.4c3.9-0.9,6.5,0,7.9-0.3
	c1.1-0.2,1.2-0.9,1.3-1.7l1.5-0.3l1.9,8.8L341.6,476.2L341.6,476.2z"/>
<path d="M373.8,492.3l-17.7,1.7l-0.1-1c3.6-0.6,4.8-0.8,4.4-4.3l-2.1-21.9c-3.4,0.5-8.5,1.2-8.9,7.9l-1.4,0.1l-0.6-8.4l29.7-2.8
	l0.9,8.3l-1.4,0.1c-1.6-6.6-6.7-6.3-10.2-6.1l2.1,21.9c0.4,3.5,1.5,3.5,5.2,3.4L373.8,492.3L373.8,492.3z"/>
<path d="M415.1,492.3l-10.2-0.2l-10-13.3h-1.3l-0.2,8.2c-0.1,3.3,1,3.5,4.3,3.9v1l-16.8-0.3v-1c3.4-0.3,4.4-0.4,4.4-3.8l0.4-18.4
	c0.1-3.6-1.5-3.7-4.3-3.9v-1l16,0.3c3.5,0.1,14,0.6,13.9,7.6c-0.1,5.1-5.3,6.3-7.9,7l9.8,12.1c0.7,0.8,1.4,0.8,2,0.8L415.1,492.3
	L415.1,492.3z M393.6,477.5c6.5,0.1,9.1-0.8,9.2-6.2c0.1-4.2-1.9-6.1-5.9-6.1c-2.8-0.1-2.8,0.4-3.1,1.7L393.6,477.5L393.6,477.5z"/>
<path d="M447.8,496.5l-16-2l0.1-1c3.1,0.2,4,0.2,4.1-1.1c0.1-1.1-1.1-4.4-1.6-5.8l-11.1-1.4c-1.8,2.8-2.8,4.4-2.8,5.1
	c-0.2,1.6,2.2,2,3.8,2.3l-0.1,1l-10-1.3l0.1-1c2.7,0,3.6-1.3,5.4-4.2l13.8-21.3l1.4,0.2l8.3,23.2c1.7,4.7,2.3,6.2,4.7,6.4
	L447.8,496.5L447.8,496.5z M433.9,484.8l-3.7-10.7l-5.9,9.5L433.9,484.8L433.9,484.8z"/>
<path d="M476.7,502.4l-28.3-5.2l0.2-1c2.8,0.2,4.3,0.4,4.7-2.1l3.6-19.9c0.5-2.7-1.5-3.2-3.7-3.7l0.2-1l17.1,3.2l-0.2,1
	c-3.5-0.5-5-0.7-5.6,2.9l-3.5,19.4c-0.4,2,0.7,2.5,3.9,3.1c7.4,1.4,10.8-1.5,13.8-5.8l1.4,0.3L476.7,502.4L476.7,502.4z"/>
<path d="M495.5,506.6l-17.1-3.6l0.2-1c2.7,0.3,4.6,0.6,5.1-2l4.1-19.8c0.6-2.7-1.7-3.3-3.9-3.9l0.2-1l17,3.6l-0.2,1
	c-2.3-0.4-4.7-0.8-5.2,1.9l-4.1,19.8c-0.5,2.6,1.4,3.1,4,3.9L495.5,506.6L495.5,506.6z"/>
<path d="M530.1,511l-16-1.7l0.1-1c3.1,0.1,4,0.2,4.1-1.2c0.1-1.1-1.2-4.4-1.7-5.8l-11.1-1.1c-1.7,2.8-2.7,4.5-2.7,5.1
	c-0.2,1.6,2.2,1.9,3.9,2.2l-0.1,1l-10-1l0.1-1c2.7-0.1,3.6-1.4,5.3-4.4l13.3-21.6l1.4,0.1l8.8,23c1.8,4.7,2.4,6.2,4.8,6.3L530.1,511
	L530.1,511z M516,499.6l-4-10.6l-5.7,9.6L516,499.6L516,499.6z"/>
<path d="M404.9,172.3c0-10-5.6-0.6-8.7-9.1c-2.3,7.2-9,1.1-9,8.9c0,3,0.8,4.7,2.2,5.6v3c0,0.8,0.6,1.4,1.4,1.4h10.6
	c0.8,0,1.4-0.6,1.4-1.4v-3.2C404,176.3,404.9,174.6,404.9,172.3L404.9,172.3z M396.2,174.2c-2.9,0-6.9,2-6.9-1.4
	c0-4.9,3.3-3.8,6.3-3.8c2.9,0,7.5-1.1,7.5,3.8C403.1,176.2,399.1,174.2,396.2,174.2L396.2,174.2z"/>
<path d="M456,256.7c0.5,0.7,1.6,0.9,3.1,0.4l1.4-4c0.1-0.3-1.6-1.9-2.6-1.6c-3.9,0.9-8.1,1.4-10.4,5.1c0,2.6,1.9,4.9,3.7,6.1
	c1.4-0.5,1.6,0.9,2.5,1.6c0.2,1.2-0.5,2.1-1.6,2.1c-2.8-2.8-7.7,0.9-9.7-2.6c0.9-3.5,2.8-7.5-0.2-10.7c0.2-0.7,1.4-1.4,0.7-2.1
	c-1.2-3.3-4.7-0.7-6.7-0.7c-3.5-0.5-6.3,1.4-8.3,4.2c0.2,1.2,0.7,2.3,1.8,3.5c0.9-0.2,1.4,0,1.6,0.9l-2.3,1.4
	c0.7,0.7,0.7,1.6,0.9,2.6c-1.6,0.7-3.2-1.6-4-2.8c0-1.9,0.2-5.1-2.3-5.6c-0.5,0-2,0.7-2,0.7c-0.5,0.7-0.9,2.2-0.9,3.9
	s0.9,4.2,0.9,4.2s7.2,5.3,8.8,8.5c-2.1,4.2-2.1,10-6.9,12.4c-1.4,0.9-1.4,2.3-1.4,3.7l1.2,0.9c3-1.6,8.8-2.1,8.3-7.2
	c1.1-2.1,2.3-4.4,4.4-6.1c2.3-0.5,4.4,0.7,5.3,2.6c-0.7,3.5-3,5.8-6.2,7c-0.4,0.5-0.2,1.2-0.2,1.9c0.9,1.6,3.5,0.9,4.9,0.7
	c3.9-2.6,5.6-7.2,9-8.6c0.5,2.3-4.6,3-1.4,5.4c2.1-0.5,4.9,0.2,6.3-2.6c-1.6-4,5.5-5.8,1.1-9.3c0-3.5,3.7-4.9,3.5-8.6
	c-1.4-3.7-5.8-3.7-6.9-7.2C452.5,255.7,454.6,256,456,256.7L456,256.7z"/>
<path d="M200,472.4h-0.3l-0.3-0.4l0,0v0.2c0,0.1,0,0.1,0.1,0.1l0,0H199l0,0c0.1,0,0.1,0,0.1-0.1v-0.5c0-0.1,0-0.1-0.1-0.1l0,0h0.5
	c0.1,0,0.4,0,0.4,0.2c0,0.1-0.2,0.2-0.2,0.2L200,472.4L200,472.4L200,472.4L200,472.4z M199.4,472c0.2,0,0.3,0,0.3-0.2
	c0-0.1-0.1-0.2-0.2-0.2s-0.1,0-0.1,0.1L199.4,472L199.4,472z"/>
<path d="M200.6,471.9c0-0.1-0.1-0.2-0.3-0.2c-0.1,0-0.2,0-0.2,0.1s0,0.1,0.2,0.1l0.2,0.1c0,0,0.1,0.1,0.1,0.2s-0.1,0.3-0.4,0.3
	c-0.1,0-0.2,0-0.2,0l0,0l0,0v-0.3l0,0c0,0.1,0.1,0.3,0.3,0.3c0.2,0,0.2-0.1,0.2-0.1c0-0.1-0.1-0.1-0.2-0.1h-0.1
	c-0.3-0.1-0.3-0.2-0.3-0.3c0-0.1,0-0.2,0.3-0.2c0.1,0,0.2,0,0.2,0l0,0l0,0L200.6,471.9L200.6,471.9L200.6,471.9z"/>
<path d="M202.2,471.6c-0.1,0-0.1,0-0.1,0.1l-0.3,0.7l0,0l-0.2-0.6l0,0l-0.3,0.6l0,0l-0.3-0.7c0-0.1-0.1-0.1-0.1-0.1l0,0h0.4l0,0
	c-0.1,0-0.1,0-0.1,0.1l0,0l0.2,0.4l0,0l0.2-0.4l-0.1-0.1c0,0,0,0-0.1,0l0,0h0.5l0,0c-0.1,0-0.1,0-0.1,0v0.1l0.2,0.4l0,0l0.2-0.4l0,0
	C202.2,471.6,202.1,471.6,202.2,471.6L202.2,471.6L202.2,471.6L202.2,471.6L202.2,471.6z"/>
<path d="M202.2,472.4c0.1,0,0.3-0.1,0.4-0.3c0,0,0,0-0.1,0c0,0,0,0-0.1,0s-0.3,0-0.3-0.3c0-0.1,0-0.3,0.3-0.3c0.1,0,0.3,0.1,0.3,0.4
	C202.8,472.2,202.6,472.4,202.2,472.4L202.2,472.4L202.2,472.4z M202.5,472.1C202.6,472.1,202.6,472.1,202.5,472.1
	c0.1,0,0.1-0.1,0.1-0.1c0-0.2,0-0.3-0.1-0.3s-0.1,0.1-0.1,0.2S202.5,472.1,202.5,472.1L202.5,472.1z"/>
<path d="M203,471.9c0.1,0,0.2,0,0.3,0c0.1,0,0.2,0.1,0.2,0.2c0,0.2-0.2,0.3-0.4,0.3c-0.1,0-0.2,0-0.2-0.1c0,0,0-0.1,0.1-0.1
	s0.2,0.1,0.3,0.1s0.1,0,0.1-0.1s-0.1-0.1-0.2-0.2C203.1,472,203,472,203,471.9v-0.4h0.5l-0.1,0.2H203V471.9L203,471.9z"/>
<path d="M480.8,143L480.8,143l-169.9-0.1v0.1h-0.1l0.2,129.8c0,13.2,5.6,24.8,13.3,28.4l65.3,41.5c1.4,1.6,3.6,2.7,6,2.7
	c2,0,3.9-0.8,5.3-2.1l66.4-42.1c7.7-3.6,13.4-15.1,13.4-28.4L480.8,143L480.8,143L480.8,143z M476,274.6c-0.9,9.8-4.2,18-11,22.6
	l-64,40.7h-0.4c-1.3,1.1-3,1.7-4.9,1.7s-3.7-0.7-5-1.8l-63.9-40.7c-6.8-4.6-10.1-12.8-11-22.6v-127h160.3v127.1H476z"/>
<path d="M418.7,332.2l2-1C419.9,331.5,419.3,331.9,418.7,332.2L418.7,332.2z"/>
<path d="M291.5,508.2l-15.8,3.3l-0.2-1c2.9-0.9,3.8-1,3.6-2.4c-0.2-1.1-2.4-3.8-3.3-5l-10.9,2.3c-0.7,3.2-1.2,5-1.1,5.7
	c0.3,1.6,2.7,1.2,4.4,0.9l0.2,1l-9.9,2.1l-0.2-1c2.5-0.8,3-2.4,3.8-5.8l6.3-24.6l1.4-0.3l15.2,19.3c3.1,4,4.2,5.2,6.4,4.6
	L291.5,508.2L291.5,508.2z M274.4,501.6l-6.2-9.5l-3.5,10.6L274.4,501.6L274.4,501.6z"/>
<path d="M571.9,448.8c-2.9-7.6-9-12.8-16.6-15.2c-7.8-1.7-16.1-0.5-21.2,5.4c-8.8,7.1-2.7,18.9-2.4,28.5c0,2,0.3,3.4-1.7,4.4
	c-35.3-3.2-68.3-12-103.4-15.7c-8.1-1.4-16.2-1-23.8-2.7l-9.8-1c-30.5,1-60.9,2.7-89.5,10.1c-6.1,2-12.9,2.4-19,4.7
	c-4.4-0.7-8,2.4-12.2,1.2l-8,1.9c-0.7,0.1-1.6,0.1-2.7-0.2c-3.9-10.1,7.8-16.2,4.1-26c-3.2-5.6-9.5-11-16.8-10.1
	c-8.3-1-15.6,3.7-19.5,10.1c-5.6,12.3,1.5,25.1,3.7,37.1c-0.5,3.9,3.9,8.3,0,11.5c-7.8-5.4-18.1-8.4-27.5-5.6
	c-2.9,1.5-8.3-0.5-9.7,2.9c10.5,5.6,23.9,4.9,35.6,4.4c1.5-0.5,2.5-0.7,3.7,0.3c1,6.4-1.2,15,2.7,20.6c4.4,5.9,11.7,7.4,18.7,8.1
	c22.4-0.7,42.4-7.4,62.9-12.5c3.2-0.2,5.6-2,9-2c11-2.5,22.9-4.4,34.6-4.7c-5.1,6.6-8,14-10.2,22.1c-2.9,6.6,5.1,7.6,7.6,11.3
	c-7.6,2.2-12.9,7.4-20,10.3c-15.6-0.5-28.8,5.4-43.4,7.1c-0.2,3.2,5.1,2.2,5.6,5.4c-0.7,2.2-2.9,2.5-4.6,3.7c-0.3,1.5,0,1.7,1.5,2
	c1.5-1.7,4.6-0.5,6.1-2.2c4.9,0,9-1.5,13.6-1.7c4.1-1.7,8.8-2,12.4-4.9c5.1-1.5,8.3-4.9,13.4-6.4c7.3,0,13.9-2.5,20.7-3v1.5
	c-5.6,9.1-11.5,18.4-17.3,27c-1,1.7,0.2,3.4,1.7,3.9c3.4,1,6.8,0,9.5-1.5c5.1-8.8,9.7-17.2,13.9-26.3c1.7-8.3,7.8-12.8,13.9-18.4
	c1-0.5,2.4-2,3.4-0.5c-4.9,5.6-8,11.1-11.7,17.2c-2,6.9-2.5,15.7,3.6,21.4c2.9,2.5,7.3,1.7,11.2,2c9.5-4.9,21.7,2.9,29-6.4
	c4.4-0.7,5.1,4.4,7.6,6.9c4.1,1.2,8.5,5.4,12.7,2.4c-0.3-2.7-3.2-5.2-4.6-7.6c-2.9-5.2-6.6-9.3-9.3-14c-1.2-3.4-3.4-5.6-3.9-9.1
	c4.4,1.5,8.3,4.4,13.2,5.2c4.1,1.7,9.2,1.5,13.1,3.9c3.2,4.2,8,6.6,12.2,9.3c6.1,2.9,12.9,3.4,19.2,5.9c2.4,0.2,6.1,2.2,7.8,0
	c-1-1.2-2.2-2-3.7-2.7c-0.7-3.2,4.4-1.5,6.1-3.9c-0.6-1.2-1.7-1.7-2.8-1.9c-3.5-1.9-12.2-2.5-14.5-3.8c-2.9-0.5-5.6-1.7-8.5-2.7
	c-14.6,0-22.7-13.3-34.4-18.2c2.7-2.5,6.8-4.4,8.5-8.1c2.2-3.4,2.9-9.1,0.7-13c-2.2-7.6-11.9-6.6-17.5-10.8l0.7-0.7
	c9.5-0.5,17.8,1.7,26.3,3.4c23.4,3.2,45.1,12,69.5,12.5c13.4,0,30.2,0.7,36.8-12.3c1.2-7.6,2.7-15.2,3.9-22.8
	C565.1,473.6,573.1,462.3,571.9,448.8L571.9,448.8z M232.1,452.5c0.7-4.4,1.7-9.1,5.8-12.3c5.9-3.2,13.9-2.4,19.3,0.8
	c1.7,1,2.9,2.4,3.9,4.6c1.2,4.2-0.8,8.6-3.7,11.1H255c0-3.9,0-7.9,1.5-11.1c-0.2-2.9-2.7-3.2-4.6-4.4c-4.1-1.2-7.8,0.7-11,2.5
	c-2.4,2.9-4.6,6.6-3.2,10.8c1.7,2.7,0.2,6.4,1.2,9.3l-0.7,1C235.2,461.6,231.3,458.2,232.1,452.5L232.1,452.5z M243.5,459.5
	c3.7,2.7,8.8,1.5,13.2,2.2c0.7,2.7,0.7,6.1-1.2,8.4c-4.1-1-9.5-0.5-11.7-4.4C244.3,464,243,461.5,243.5,459.5L243.5,459.5z
	 M242.8,451.3c0.7-2,0-4.9,2.7-5.4c1.7-0.5,4.4-0.5,4.6,1.5c-0.2,3-0.5,5.9-1.2,8.6C245.5,456.2,243.8,454.2,242.8,451.3
	L242.8,451.3z M375.4,528.6c-4.2-0.5-8.1-1.7-11.7-2.9c-2.4-2.5,0-5.2,0-7.9c3.4-5.4,13.2-8.1,17.8-3.2
	C380.8,520,378.8,524.7,375.4,528.6L375.4,528.6z M383.5,508.7c-3.2-0.7-4.9-4.4-8.3-4.4c2.9-1,5.8-0.7,9.3-0.2
	C385.6,505.8,383.7,507.3,383.5,508.7L383.5,508.7z M390.3,512.2c1.2-3.4,1.4-6.4,3.6-9.1c2.4,0,4.6,0,6.6,1
	c0.5,4.9,6.6,11.5,0,15.7c-2.2,1-5.4,3.2-7.8,1C389.6,518.1,389.1,515.6,390.3,512.2L390.3,512.2z M408.1,505.3
	c-0.5-2.2,2.2-0.5,3.2-1.5l7.6,0.5C414.9,503.8,410,512.9,408.1,505.3L408.1,505.3z M395.7,536.2c3.2-3.4,6.1,2,7.3,4.7
	c3.7,5.4,13.2,10.3,9.5,17.7c-4.6,4.2-11.9,0.3-17.1,3.5c-2.7-0.3-7.3,0.5-8.8-2.2C389.3,552,391.7,543.1,395.7,536.2L395.7,536.2z
	 M431.5,514.6c1.2,3.4,3.4,6.6,2.2,10.8c-2.4,4.7-7.3,4.7-11.7,5.6c-2.2,0.3-3.9-0.5-5.6-1.7c0.2-1-0.2-1.7-1-2.4
	c0.7-3.2-5.6-6.4-1.2-9.1C418.1,514.1,427.3,505.8,431.5,514.6L431.5,514.6z M555.3,496.7c-2,2.4-0.2,6.4-2.7,8.6
	c0,4.4-3.7,6.6-6.8,8.3c-29,6.4-57.5-3.4-85.6-8.3c-39.3-8.6-85.1-11-125.1-2c-18.8,3.4-37,7.9-55.1,13c-11.2,1.5-23.4,3.2-34.1-0.2
	c-8.8-4.2-5.1-15.5-7.8-23.3c0.5-6.1-1.7-11-1.9-16.9c-0.7-2-1.2-4.4-1-6.4c3.6,0.5,7.3,3.2,11.2,4.2c20.5,3.9,38.8-2.7,57.8-6.1
	c18.3-3.9,37-7.1,56.3-8.6c21.9-0.2,44.4-1.5,65.3,2.2c6.8,0.2,12.7,2,19.2,2.4c13.7,1.7,26.3,5.4,40.2,6.4c2.2,0.7,4.9,0.7,7.3,1.2
	c21.9,3.4,46.6,9.6,67.5,0C560.2,480,556.5,488.1,555.3,496.7L555.3,496.7z M548.5,466.8c0.2,3.9-3.4,2.9-5.4,4.4h-5.9
	c-1.2-2-0.7-4.9-0.7-6.9C540.4,465,544.8,465,548.5,466.8L548.5,466.8z M545.8,460.6c2.7-2.7-0.7-18.2,6.8-8.1c0,2,0.3,4.9-1.7,6.4
	C549.7,459.9,547.8,461.9,545.8,460.6L545.8,460.6z M565.6,458.2c-2.2,4.4-5.6,7.6-10.5,8.4c0.2-5.9,5.6-10.1,3.7-16.7
	c-3.2-4.7-9.5-6.1-15.4-4.9c-2.2,1.5-1.2,3.9-1.9,6.1l-1,8.1c-4.9,0-5.1-4.4-6.6-7.9c0.2-5.1,2.5-10.3,7.6-12.8
	c3.9-2,10.2-1.7,14.1,0.5c3.2,0.7,6.8,2.2,8,5.2C567.3,447.6,566.3,453.7,565.6,458.2L565.6,458.2z"/>
</svg>
