<?xml version="1.0" encoding="utf-8"?>
<!-- Generator: Adobe Illustrator 21.0.2, SVG Export Plug-In . SVG Version: 6.00 Build 0)  -->
<svg version="1.1" id="Layer_1" xmlns="http://www.w3.org/2000/svg" xmlns:xlink="http://www.w3.org/1999/xlink" x="0px" y="0px"
	 viewBox="0 0 200 200" style="enable-background:new 0 0 200 200;" xml:space="preserve">
<style type="text/css">
	.st0{fill:#3B6C7B;}
	.st1{fill:#FFFFFF;}
	.st2{font-family:'BelleroseLight';}
	.st3{font-size:92.1376px;}
	.st4{letter-spacing:-4;}
	.st5{font-size:107.6783px;}
	.st6{letter-spacing:-2;}
</style>
<g id="zVySZD.tif">
	<g>
		<g>
			<path class="st0" d="M100,7.2c0.5,1,1.1,1.7,1.6,2.7c5.1,9.7,10.9,18.9,18.1,27.3c5.6,6.5,12.3,12.6,19.5,17.6
				c12.3,8.9,22.9,19.1,30.4,31.7c4.3,7.3,6.9,14.7,8.5,22.7c0.8,5.1,1.1,10.4,0.8,15.5c-0.5,9.7-3.2,18.6-8,27.3
				c-7.7,14.5-19.5,25.9-35.4,33.4c-7.2,3.4-14.9,5.6-23.2,6.8c-5.6,0.7-11.5,1-17.1,0.7c-16.8-1-31.7-6-44.5-16
				c-13.6-10.4-22.4-23.5-26.9-38.9c-1.3-4.6-2.1-9.2-2.4-13.8c-1.1-17.2,4.3-32.4,14.9-46.4c5.6-7.5,12.5-14,20-19.8
				c5.3-4.1,10.9-8,16-12.6c9.6-9.2,17.3-19.6,23.4-30.9C97.4,12.1,98.4,9.9,100,7.2z"/>
		</g>
	</g>
</g>
<text transform="matrix(1 0 0 1 38.6621 94.9399)" class="st1 st2 st3 st4">gov</text>
<text transform="matrix(1 0 0 1 25.2373 175.377)" class="st1 st2 st5 st6">cms</text>
</svg>
