<?xml version="1.0" encoding="utf-8"?>
<!-- Generator: Adobe Illustrator 19.2.1, SVG Export Plug-In . SVG Version: 6.00 Build 0)  -->
<svg version="1.1" id="Layer_1" xmlns="http://www.w3.org/2000/svg" xmlns:xlink="http://www.w3.org/1999/xlink" x="0px" y="0px"
	 viewBox="0 0 80 80" style="enable-background:new 0 0 80 80;" xml:space="preserve">
<path d="M39.9,77.7c-0.5,0-1,0-1.6,0c-6.5-0.4-11.9-2.6-16.6-6.6c-5-4.3-8.3-9.6-10-15.9c-0.5-1.9-0.8-3.8-0.9-5.6
	c-0.4-6.7,1.5-13.1,5.5-19c1.9-2.7,4.3-5.3,7.3-8c0.6-0.5,1.1-0.9,1.7-1.4c1.3-1.1,2.7-2.2,4-3.5c3.3-3.5,6-7.4,8.1-11.8l0.1-0.2
	c0.4-0.5,0.7-1.1,1.1-1.7c0.2-0.3,0.4-0.6,0.6-1l1.2-2l1,2c0.2,0.3,0.3,0.6,0.5,0.9l0.1,0.2c1.9,4,3.9,7.4,6.3,10.5
	c1.8,2.3,4,4.5,6.7,6.7c5,4,8.7,8.2,11.1,12.8c1.5,2.9,2.6,6,3.1,9.3c0.3,2.1,0.4,4.3,0.3,6.4c-0.2,4-1.2,7.7-2.9,11.2
	c-2.8,5.9-7.2,10.5-13.1,13.6c-2.8,1.4-5.6,2.3-8.6,2.8C43.1,77.6,41.5,77.7,39.9,77.7z M39.5,7.1c-2.2,4.5-5,8.7-8.5,12.3
	c-1.4,1.4-2.8,2.5-4.2,3.7c-0.5,0.4-1.1,0.9-1.6,1.3c-2.9,2.5-5.1,5-6.9,7.6c-3.8,5.5-5.5,11.2-5.1,17.4c0.1,1.7,0.4,3.4,0.9,5.1
	c1.5,5.8,4.6,10.8,9.2,14.7c4.3,3.6,9.3,5.6,15.2,6c1.9,0.1,3.9,0,5.8-0.3c2.7-0.5,5.3-1.3,7.8-2.6c5.4-2.8,9.4-7,12-12.5
	c1.6-3.2,2.5-6.6,2.7-10.2c0.1-1.9,0-3.9-0.3-5.8c-0.5-3-1.4-5.8-2.9-8.5c-2.3-4.3-5.7-8.2-10.5-12c-2.8-2.3-5.2-4.7-7.1-7.1
	c-2.2-3-4.2-6.2-6-9.9C39.9,6.5,39.7,6.8,39.5,7.1z"/>
</svg>
