<?xml version="1.0" encoding="utf-8"?>
<!-- Generator: Adobe Illustrator 19.2.1, SVG Export Plug-In . SVG Version: 6.00 Build 0)  -->
<svg version="1.1" id="Layer_1" xmlns="http://www.w3.org/2000/svg" xmlns:xlink="http://www.w3.org/1999/xlink" x="0px" y="0px"
	 viewBox="0 0 1792 1792" style="enable-background:new 0 0 1792 1792;" xml:space="preserve">
<style type="text/css">
	.st0{fill:#FFFFFF;}
</style>
<g>
	<path class="st0" d="M1586.7,1180c0-14.2-1.6-28.5-4.8-43c-3.2-14.5-8.5-29-15.9-43.5s-18.4-26.2-32.8-35.3
		c-14.5-9-31.4-13.5-50.7-13.5c-21.3,0-52.5,13.4-93.7,40.1s-82.8,53.6-124.6,80.7s-74.4,40.6-97.6,40.6
		c-17.4,0.6-37.8-5.5-61.3-18.4s-48-28.7-73.4-47.3c-25.4-18.7-52.3-37.4-80.7-56c-28.3-18.7-60.5-34.5-96.6-47.3
		s-71.8-19-107.2-18.4c-74.1,0.6-137.5,25.9-190.3,75.8s-79.9,107.4-81.1,172.4c-1.3,72.1,22.5,124.9,71.5,158.4
		c18.7,12.9,38.8,22.1,60.4,27.5c21.6,5.5,54.9,8.2,100,8.2c36.7,0,79.2-10.5,127.5-31.4s91.5-43.8,129.5-68.6
		c38-24.8,76.6-47.5,115.9-68.1s69.2-30.6,89.8-29.9c16.7,0.6,37.7,10.8,62.8,30.4c25.1,19.6,48.1,41.2,69.1,64.7
		c20.9,23.5,42.8,45.2,65.7,65.2c22.9,20,40.7,30.3,53.6,30.9c22.5,1.9,41.4-2.6,56.5-13.5s33-31.2,53.6-60.9
		c18-26.4,31.7-58.9,41.1-97.6C1582.1,1243.8,1586.7,1209.6,1586.7,1180L1586.7,1180z M1637.9,1025.5c0,105.6-20,203.7-59.9,294.2
		s-93.4,166.5-160.4,228s-145.1,109.6-234.3,144.4s-182.7,52.2-280.6,52.2s-192.2-18.5-283.1-55.5c-90.8-37-170.5-87.6-239.1-151.7
		S257,1395.3,215.8,1303.8S154,1115.1,154,1012.1c0-57.3,6.3-112.9,18.8-166.6c12.6-53.8,28.3-100.6,47.3-140.6
		s41.7-78.1,68.1-114.5s51.7-66.7,75.8-90.8c24.2-24.2,49.4-46.5,75.8-67.1s47.2-35.6,62.3-44.9s28.8-17.2,41.1-23.7
		c9-5.2,25.4-13.7,49.3-25.6c23.8-11.9,41.4-21.1,52.6-27.5c11.3-6.4,26.7-16.1,46.4-29s39.1-27,58.4-42.5c23.2-18,41.9-41.4,56-70
		s23.8-69.1,29-121.2c83.1,99.8,143,162,179.7,186.4c28.3,18.7,70.2,40.6,125.6,65.7s96.9,46.4,124.6,63.8
		c13.5,8.4,26.1,16.4,37.7,24.2c11.6,7.7,31.1,22.7,58.4,44.9s51.8,44.9,73.4,68.1s45.7,53.8,72.5,91.8
		c26.7,38,48.9,77.3,66.7,117.9c17.7,40.6,32.8,88.4,45.4,143.5C1631.6,909,1637.9,966.2,1637.9,1025.5L1637.9,1025.5z"/>
	<path d="M902.7,1761.8c-99.6,0-197.1-19.1-289.7-56.8c-92.3-37.6-174.5-89.8-244.5-155.1c-70-65.4-126.8-145.8-168.7-238.9
		c-42-93.3-63.3-193.9-63.3-298.9c0-58.3,6.5-115.7,19.3-170.6c12.9-54.9,29.2-103.4,48.5-144.1c19.3-40.6,42.7-80,69.7-117.3
		c26.8-37,52.9-68.2,77.6-92.9c24.5-24.5,50.6-47.6,77.4-68.5c27.2-21.3,48.1-36.3,63.9-46c15.2-9.4,29.3-17.5,41.8-24.1
		c9.2-5.3,25.6-13.8,50-25.9c23.4-11.7,40.8-20.8,51.7-27c10.4-5.9,24.8-14.9,45.5-28.4c19.2-12.6,38.4-26.6,57-41.5l0.2-0.2
		c21-16.3,38.1-37.8,51-63.9c13.1-26.6,22.3-65.4,27.3-115.2l4.1-41.5l26.7,32.1c81.8,98.2,140.9,159.8,175.9,183
		c27.3,18,68.7,39.7,123.1,64.3c55.5,25.2,98.2,47,126.7,64.9c15.9,9.9,27.7,17.5,38.1,24.5c12.1,8.1,31.7,23.1,59.7,45.9
		c27.9,22.7,53.2,46.2,75.2,69.8c22.1,23.7,46.3,54.3,74,93.6c27.2,38.7,50.2,79.4,68.4,121c18,41.3,33.6,90.6,46.4,146.6
		c12.9,55.4,19.4,114.3,19.4,175h0c0,107.5-20.7,208.9-61.4,301.3c-40.7,92.3-96,170.9-164.6,233.8
		c-68.2,62.6-148.9,112.4-239.8,147.8C1098.8,1743.8,1002.3,1761.8,902.7,1761.8z M760.7,253c-19.5,15.6-39.5,30.2-59.7,43.4
		c-21.3,14-36.4,23.4-47.4,29.6c-11.4,6.5-29.4,15.9-53.4,27.9c-24,11.9-39.8,20.2-48.4,25.1l-0.6,0.3
		c-11.9,6.3-25.4,14.1-40.1,23.1c-14.4,8.9-34.9,23.6-60.7,43.8c-25.7,20.1-50.7,42.2-74.2,65.7c-23.4,23.4-48.3,53.2-74,88.7
		c-25.7,35.5-48.1,73.1-66.5,111.7c-18.3,38.5-33.8,84.6-46.1,137.1c-12.2,52.3-18.3,107-18.3,162.6c0,100,20.3,195.7,60.3,284.5
		c40,88.8,94.1,165.4,160.7,227.7c66.8,62.4,145.4,112.3,233.8,148.3c88.4,36,181.4,54.2,276.5,54.2c95.2,0,187.5-17.2,274.2-51
		c86.8-33.9,163.8-81.3,228.8-141c23.4-21.4,45.1-44.8,65.2-70.1c-14.8,6.2-31.6,8.5-50.3,6.9c-17.2-0.9-37.5-12.1-63.9-35.2
		c-23.5-20.5-46.1-43-67.3-66.8c-20.4-22.8-42.8-43.8-66.8-62.5c-27.5-21.5-43.8-26.4-52.7-26.7c-11.9-0.4-35.6,4.1-81,27.9
		c-38.5,20.2-77,42.8-114.5,67.3c-38.7,25.3-83.2,48.8-132.1,70c-50.4,21.8-95.6,32.8-134.4,32.8c-47.1,0-81.2-2.9-104.3-8.7
		c-23.3-5.8-45.6-16-66-30.1c-53.8-36.8-80.5-95.1-79.1-173.1c1.3-69.5,30.4-131.7,86.6-184.8c55.9-52.8,123.9-79.9,202.1-80.6
		c37.1-0.6,75.2,5.9,113.3,19.4c37.2,13.2,70.9,29.7,100.4,49.2c28.1,18.4,55.5,37.4,81.4,56.5c24.7,18.1,48.8,33.6,71.4,46.1
		c20.5,11.3,38.1,16.7,52.3,16.3l0.6,0c13.6,0,39.9-6.6,88.1-37.8c22.7-14.7,45.4-29.4,68-44c18.9-12.3,37.8-24.5,56.6-36.7
		c44.6-28.9,78.3-42.9,103.2-42.9c22.5,0,42.7,5.4,59.9,16.1l0.1,0.1c17.2,10.9,30.3,25,39,42.1c8,15.8,13.9,31.8,17.4,47.7
		c3.5,15.7,5.2,31.4,5.2,46.8c0,0.6,0,1.3,0,1.9c10.8-50.2,16.2-102.5,16.2-156.4c0-58-6.2-114.2-18.5-167.1
		c-12.3-53.9-27.3-101.2-44.4-140.5c-17.3-39.4-39.2-78.1-65-114.8c-26.4-37.4-50.3-67.7-71-89.9c-20.8-22.4-44.9-44.7-71.6-66.4
		c-26.8-21.8-46-36.6-57-43.9l-0.1-0.1c-10.1-6.8-21.5-14.1-37.2-23.9c-27.2-17.1-68.5-38.2-122.6-62.7c-56.1-25.4-99.2-48-128-67
		c-34.4-22.9-86.2-75.1-157.9-159.3c-5.9,35.5-14.4,64.8-25.5,87.3C806.4,207.9,785.9,233.5,760.7,253z M752,1036.2
		c-1.4,0-2.9,0-4.3,0l-0.2,0c-34.7,0.3-67.3,6.4-96.8,18.2c-29.5,11.8-56.9,29.5-81.6,52.8c-24.7,23.3-43.6,48.7-56.1,75.3
		c-12.4,26.4-19,54.9-19.5,84.7c-1.2,66.4,19.7,113.4,63.9,143.6c17,11.7,35.4,20.1,54.8,25c20,5.1,52.2,7.7,95.8,7.7
		c34,0,74.6-10.1,120.5-30c47.1-20.4,89.8-43,126.9-67.2c38.4-25.1,77.9-48.3,117.3-68.9c42.5-22.3,74.7-32.7,98.5-31.9
		c20.7,0.7,44.5,11.9,73,34.1c25.6,20,49.6,42.5,71.4,66.8c20.2,22.7,41.8,44.1,64.2,63.7c26.9,23.5,38.9,26.4,42.9,26.6l0.7,0
		c18.4,1.6,33.1-1.8,44.8-10.3c13.5-9.7,30.1-28.8,49.4-56.6c16.7-24.5,29.7-55.4,38.5-91.8c8.8-36.9,13.2-70,13.2-98.1
		c0-12.8-1.5-26-4.4-39.2c-2.9-13-7.7-26.2-14.4-39.3c-5.9-11.6-14.6-20.9-26.5-28.4c-11.8-7.3-25.3-10.8-41.4-10.8
		c-12.2,0-36.6,6.5-84.2,37.3c-18.8,12.2-37.7,24.4-56.6,36.7c-22.6,14.6-45.2,29.3-68,44c-44.9,29.1-79.8,43.3-106.8,43.4
		c-20.7,0.7-43.7-6.1-70-20.6c-24-13.2-49.3-29.5-75.3-48.5c-25.5-18.8-52.4-37.4-79.9-55.5c-27.2-17.9-58.4-33.2-92.9-45.4
		C816.1,1042,783.6,1036.2,752,1036.2z"/>
</g>
<path d="M1242.8,1451.5c-12.2-30.3-24.8-49.9-37.7-58.9c-14.8-9.7-39.3-14.5-73.4-14.5c-30.3,0-53.1,3.2-68.6,9.7
	c-18.7,7.7-43.8,25.8-75.4,54.1c-16.7,15.5-20.6,29.6-11.6,42.5c5.8,5.2,11.4,6.6,16.9,4.3s15.6-9.8,30.4-22.7
	c1.9-1.3,5.3-4,10.1-8.2c4.8-4.2,8.2-6.9,10.1-8.2c1.9-1.3,5.2-3.5,9.7-6.8s8.2-5.5,11.1-6.8s6.9-2.9,12.1-4.8s10-3.4,14.5-4.3
	s9.8-1.8,15.9-2.4s12.7-1,19.8-1c17.4,0,31.7,2.4,43,7.2c11.3,4.8,18.7,9.5,22.2,14s7.9,11.6,13,21.3c6.4,10.9,10.5,17.4,12.1,19.3
	s5.6,1.6,12.1-1C1244.1,1476.6,1248.6,1465.6,1242.8,1451.5L1242.8,1451.5z M1280.5,1562.6c-3.2-12.2-10.9-13.8-23.2-4.8
	c-19.3,14.2-47.3,26.7-84,37.7c-36.7,10.9-78.9,16.4-126.6,16.4c-83.1,0-145.2-15.8-186.4-47.3c-3.2-2.6-7.4-3.9-12.6-3.9
	c-7.1,0-15.5,3.9-25.1,11.6c-4.5,3.9-6.9,9-7.2,15.5c-0.3,6.4,2.1,12.9,7.2,19.3c21.9,20.6,50.1,35.4,84.5,44.4s67.5,13,99,12.1
	c31.6-1,63.4-2.4,95.6-4.3c26.4-2.6,53.6-9.2,81.6-19.8c28-10.6,48.9-20.3,62.8-29c13.8-8.7,23-15.3,27.5-19.8
	C1281.5,1582.9,1283.7,1573.5,1280.5,1562.6L1280.5,1562.6z"/>
</svg>
