<svg xmlns="http://www.w3.org/2000/svg" viewBox="0 0 32 32" enable-background="new 0 0 32 32"><style type="text/css">.st0{fill:#FFFFFF;stroke:#FFFFFF;stroke-miterlimit:10;} .st1{fill:none;stroke:#000000;stroke-width:0.8;stroke-miterlimit:10;}</style><path class="st0" d="M12.5 20h7.5v10h-7.5z"/><path d="M30.9 11.5l-3-4-.3-.3-.2-.2v-5c0-.8-.6-1.4-1.4-1.4h-20c-.8 0-1.4.6-1.4 1.4v5l-.2.3-.3.3-3 4c-.3.4-.5.9-.5 1.4v1c0 1.3 1.1 2.4 2.4 2.4h.6v13.6c0 .8.6 1.4 1.4 1.4h22c.8 0 1.4-.6 1.4-1.4v-13.7h.6c1.3 0 2.4-1.1 2.4-2.4v-1c0-.5-.2-1-.5-1.4zm-25.5-10.1h21.2v5.2h-21.2v-5.2zm15.2 6l4.8 8.2h-2.7l-2.2-8.2h.1zm-1.1 8.2h-2.4l-.1-8.2h.5l2 8.2zm-5-8.2l-.2 8.2h-2.4l2-8.2h.6zm-11.5 8.2c-.9 0-1.6-.7-1.6-1.6v-1c0-.4.1-.7.3-1l3-4c.3-.4.8-.6 1.3-.6h1.6l-4.6 8.2zm7.8-8.2l-2.1 8.2h-2.2l4.3-8.2zm16.8 23.2h-23.2v-14.2h23.2v14.2zm3-16.6c0 .9-.7 1.6-1.6 1.6l-4.9-8.2h1.9c.5 0 1 .2 1.3.6l3 4c.2.3.3.7.3 1v1z"/><path class="st1" d="M20.6 31h-9.1v-11c0-.5.4-.9.9-.9h7.3c.5 0 .9.4.9.9v11z"/></svg>