<svg xmlns:sketch="http://www.bohemiancoding.com/sketch/ns" xmlns="http://www.w3.org/2000/svg" viewBox="0 0 32 32" enable-background="new 0 0 32 32"><title>icon 129 cloud download</title><desc>Created with Sketch.</desc><path sketch:type="MSShapeGroup" d="M15.4 27l-3.7-3.7-.9.9 5.2 5.2 5.2-5.2-.9-.9-3.7 3.7v-12.9h-1.1v12.9h-.1zm-1.1-6h-8c-2.5 0-4.6-2.1-4.6-4.6 0-2.2 1.5-4 3.6-4.5-.1-.4-.1-.8-.1-1.3 0-3.8 3.1-6.9 6.9-6.9 3 0 5.6 1.9 6.5 4.6.9-.7 2-1.2 3.3-1.2 2.7 0 4.9 2.1 5.1 4.7 2 .5 3.5 2.3 3.5 4.4 0 2.5-2.1 4.6-4.6 4.6h-8v1.1h8c3.2 0 5.7-2.6 5.7-5.7 0-2.4-1.5-4.5-3.6-5.3-.6-2.9-3.1-5-6.2-5-1 0-1.9.2-2.8.6-1.4-2.4-4-4.1-7-4.1-4.4 0-8 3.6-8 8v.5c-2 .9-3.5 2.9-3.5 5.3 0 3.2 2.6 5.7 5.7 5.7h8v-.9h.1z"/></svg>