<svg id="Layer_1" xmlns="http://www.w3.org/2000/svg" viewBox="0 0 200 200"><style>.st0{enable-background:new}.st1{fill:#666}.st2{font-family:&apos;BelleroseLight&apos;}.st3{font-size:67.5984px}.st4{letter-spacing:-1}.st5{letter-spacing:-2}.st6{fill:#033}.st7{fill:none;stroke:#666;stroke-width:4;stroke-miterlimit:10}.st8{fill:#fff}.st9{font-size:38.2482px}.st10{font-size:107.5697px}</style><text transform="translate(9.07 61.659)" class="st0"><tspan x="0" y="0" class="st1 st2 st3 st4">g</tspan><tspan x="32.9" y="0" class="st1 st2 st3 st5">ov</tspan></text><text transform="translate(95.649 61.659)" class="st6 st2 st3">cms</text><path class="st7" d="M3.3 18.1h192.5v69.5H3.3z"/><path class="st8" d="M193.2 68.6h5.6v17h-5.6z"/><text transform="rotate(-90 102.451 72.346)" class="st1 st2 st9">gov</text><path class="st7" d="M3.3 113.5h172.5c11 0 20 9 20 20V183H23.3c-11 0-20-9-20-20v-49.5z"/><path class="st8" d="M193.2 164h5.6v17h-5.6z"/><text transform="matrix(1.0506 0 0 1 37 171.034)" class="st6 st2 st10 st4">cms</text><path transform="rotate(-54.535 194.53 178.976)" class="st8" d="M191.7 170.5h5.6v17h-5.6z"/><path transform="rotate(-54.535 195.603 84.57)" class="st8" d="M192.8 76.1h5.6v17h-5.6z"/><path transform="rotate(-42.674 198.804 67.69)" class="st8" d="M190.3 64.9h17v5.6h-17z"/><path transform="rotate(-42.674 196.602 165.189)" class="st8" d="M188.1 162.4h17v5.6h-17z"/></svg>