<svg id="Layer_1" xmlns="http://www.w3.org/2000/svg" viewBox="0 0 800 800"><style>.st0{fill:#fff;stroke:url(#SVGID_1_);stroke-width:22;stroke-miterlimit:10}.st1{fill:url(#SVGID_2_)}</style><linearGradient id="SVGID_1_" gradientUnits="userSpaceOnUse" x1="12.958" y1="400" x2="787.042" y2="400"><stop offset="0" stop-color="#5bbc6b"/><stop offset="1" stop-color="#398bcb"/></linearGradient><path class="st0" d="M226.6 780C114.6 780 24 689 24 577.3V20h549.8C685.4 20 776 111 776 222.7V780H226.6z"/><linearGradient id="SVGID_2_" gradientUnits="userSpaceOnUse" x1="147.929" y1="662.797" x2="691.032" y2="119.694"><stop offset="0" stop-color="#5bbc6b"/><stop offset="1" stop-color="#398bcb"/></linearGradient><path class="st1" d="M212.1 674c-7.9 0-14.7-.1-20.3-.5-5.6-.3-10.7-.9-15.3-1.8-4.6-.9-8.8-2.2-12.8-3.9-4-1.7-8.2-3.9-12.7-6.6-15.3-8.8-27.1-20.8-35.5-35.8-8.4-15.1-12.6-31.6-12.6-49.5 0-17.6 4.1-33.9 12.4-48.6 8.2-14.8 19.8-26.5 34.8-35.4 4.5-2.7 8.8-5 12.9-6.8 4.1-1.8 8.5-3.2 13.2-4.1 4.7-.9 9.9-1.6 15.5-2.1s12.1-.7 19.4-.7H228v54.3h-14c-14.3 0-25.3 2.1-32.9 6.3-7 3.9-12.4 9.1-16.2 15.6-3.8 6.6-5.7 13.7-5.7 21.5 0 7.8 2 15.1 5.9 21.9 4 6.9 9.3 12.1 16 15.6 4.3 2.4 8.8 4 13.7 4.9 4.9.9 11.1 1.3 18.7 1.3h14.6V674h-16zm268.5 0V561.3c0-6.1-.3-10.7-.9-13.9-.6-3.2-1.7-6.3-3.2-9.4-2.4-4.3-5.7-7.7-10-10.3-4.2-2.6-8.8-3.9-13.6-3.9-10.3 0-18.1 4.4-23.5 13.2-1.2 1.8-2.2 3.4-2.9 4.6-.8 1.2-1.3 2.7-1.6 4.3-.3 1.7-.4 3.7-.4 6.2V674h-56.1V561.7c0-4-.1-7.1-.2-9.6-.2-2.4-.3-4.5-.5-6.2-.2-1.7-.5-3.1-1.1-4.3-.6-1.2-1.4-2.6-2.3-4.1-2.4-4-5.8-7.1-10-9.4-4.3-2.3-8.7-3.4-13.2-3.4-4.9 0-9.4 1.2-13.7 3.7-4.3 2.4-7.6 5.6-10 9.6-.9 1.5-1.7 2.9-2.3 4.1-.6 1.2-1 2.7-1.1 4.3-.2 1.7-.3 3.7-.5 6.2-.2 2.4-.2 5.6-.2 9.6V674h-56.1V570.8c0-8.2.2-15.4.7-21.5.5-6.1 1.1-11.5 2.1-16.2.9-4.7 2.3-9 4.1-12.8 1.8-3.8 4.1-7.8 6.8-12.1 7.3-11.3 16.8-20 28.5-26.2 11.7-6.2 24.4-9.4 38.1-9.4 11.6 0 22 2.1 31.3 6.2s18.2 10.4 26.7 18.9c10.6-9.1 20.3-15.5 29-19.2 8.7-3.7 18.5-5.5 29.4-5.5 13.7 0 26.4 3.1 38.1 9.4 11.7 6.2 21.5 15 29.4 26.2 3 4.3 5.5 8.5 7.5 12.8 2 4.3 3.6 8.8 4.8 13.5 1.2 4.7 2.1 10 2.5 16 .5 5.9.7 12.7.7 20.3V674h-56.3zm204-140.1c-7.9-4.3-15.3-7.4-22.1-9.4-6.8-2-13.9-3-21.2-3-15.5 0-23.3 4.1-23.3 12.3 0 3.4 1.5 6.1 4.4 8.2 2.9 2.1 8.5 4.4 16.9 6.8 10.8 3.4 18.9 6.2 24.2 8.7 5.4 2.4 10.2 5.6 14.6 9.6 6.2 5.8 10.9 12.8 14.3 21 3.4 8.2 5.1 16.9 5.1 26 0 9.7-1.8 18.6-5.5 26.5-3.7 7.9-8.8 14.8-15.3 20.5-6.5 5.8-14.5 10.2-23.7 13.2-9.3 3-19.6 4.6-30.8 4.6-10.7 0-20.5-1.1-29.7-3.2-9.1-2.1-18.4-5.3-27.8-9.6V611c11.9 6.7 21.5 11.3 28.8 13.7 7.3 2.4 15.1 3.7 23.3 3.7 7.9 0 14-1.2 18.3-3.7 4.3-2.4 6.4-5.8 6.4-10 0-4.3-1.5-7.5-4.6-9.6-3-2.1-10.2-4.6-21.5-7.3-9.7-2.4-17.3-4.9-22.6-7.5-5.3-2.6-10.1-6-14.4-10.3-11-11-16.4-24.9-16.4-42 0-9.4 1.9-18.2 5.6-26.2 3.7-8.1 8.9-15.1 15.5-21s14.5-10.5 23.6-13.7c9.1-3.2 19.2-4.8 30.2-4.8 7.6 0 14.8.8 21.5 2.3 6.7 1.5 15.5 4.4 26.5 8.7v50.6zm-523.5-198c2.7 12.8 7.8 22.5 15.3 29.4 7.6 6.8 17 10.2 28.3 10.2 13 0 23.1-4.7 30-14.2 7-9.5 10.5-23.1 10.5-40.9v-16.9c-5.3 3.3-10.1 5.9-14.2 8-4.2 2.1-8.1 3.7-11.8 4.9-3.7 1.2-7.3 2-10.9 2.4-3.6.4-7.4.7-11.6.7-13.1 0-25.3-2.6-36.7-7.8-11.4-5.2-21.4-12.2-30-20.9-8.6-8.7-15.4-19.1-20.5-30.9-5-11.9-7.6-24.5-7.6-37.8 0-13.6 2.6-26.4 7.8-38.3 5.2-11.9 12.3-22.2 21.2-31.1 8.9-8.9 19.4-15.9 31.4-21.1 12-5.2 25-7.8 39-7.8 16.1 0 31.1 3.6 45 10.7s25.6 17.2 34.8 30.3c6.8 9.2 11.7 18.8 14.5 28.7 2.8 9.9 4.2 21.9 4.2 35.8v84.1c0 9.8-.3 18.4-.9 25.8-.6 7.4-1.6 14-3.1 19.8-1.5 5.8-3.5 11.1-6.1 16-2.5 4.9-5.8 9.7-9.6 14.5-9.3 11.6-20.5 20.6-33.8 27.1-13.3 6.5-27.4 9.8-42.6 9.8-18.7 0-35.9-4.7-51.6-14.2-15.7-9.5-27.4-22.1-35.1-37.8-2.4-5-4.3-10.3-5.8-15.8s-3-13-4.4-22.5h54.3zm22.4-155.8c-5.5 2.4-10.2 5.5-14.2 9.5s-7.1 8.7-9.3 14.3c-2.2 5.6-3.3 11.5-3.3 17.6 0 6.2 1.1 12 3.3 17.6 2.2 5.6 5.3 10.4 9.3 14.3 4 4 8.7 7.1 14 9.5 5.3 2.4 11.1 3.5 17.4 3.5 12.5 0 22.9-4.3 31.4-12.8s12.7-18.9 12.7-31.3c0-13.2-4.2-24.2-12.5-32.8-8.3-8.7-18.7-13-31.1-13-6.3.1-12.2 1.3-17.7 3.6zM459.2 129c12.2 5.3 22.8 12.7 32 22s16.4 20.2 21.6 32.7c5.2 12.5 7.8 25.8 7.8 40 0 13.6-2.7 26.5-8 38.5s-12.6 22.5-21.8 31.6c-9.2 9.1-20 16.2-32.3 21.6-12.3 5.3-25.3 8-38.9 8-13.9 0-27.1-2.7-39.4-8-12.3-5.3-23.1-12.5-32.3-21.6-9.2-9-16.5-19.7-21.8-32-5.3-12.3-8-25.4-8-39.4 0-13.9 2.7-27.1 8-39.4 5.3-12.3 12.6-23.1 21.8-32.3 9.2-9.2 19.9-16.5 32.3-21.8 12.3-5.3 25.6-8 39.8-8 14 .1 27 2.7 39.2 8.1zm-57.9 48.7c-5.7 2.4-10.6 6-14.9 10.3-4.3 4.3-7.6 9.5-10 15.4-2.4 6-3.6 12.2-3.6 18.8 0 6.9 1.2 13.2 3.6 19 2.4 5.8 5.7 10.9 10 15.2 4.3 4.3 9.3 7.7 14.9 10.3 5.6 2.5 11.7 3.8 18.2 3.8 6.2 0 12.2-1.3 17.8-3.8 5.6-2.5 10.6-6 14.9-10.3 4.3-4.3 7.6-9.4 10-15.2 2.4-5.8 3.6-12 3.6-18.6 0-6.5-1.2-12.8-3.6-18.8-2.4-6-5.7-11.2-10-15.6-4.3-4.5 0 0 0 0l-41.9-44.1s16.8 22.7-9 33.6zm249.6 99c-2.7 8-4.7 13.7-6 17.1-1.3 3.4-3.2 6.7-5.6 10-3.6 5-8.1 9.1-13.6 12-5.5 3-11.6 4.4-18.5 4.4-11.3 0-20-3.2-26.2-9.6-6.2-6.4-12-17.7-17.4-34l-48.1-149.9h59.6L606 243.3l33.4-116.6h58.7l-47.2 150z"/></svg>