<svg id="Layer_1" xmlns="http://www.w3.org/2000/svg" viewBox="0 0 200 200"><style>.st0{fill:#3b6c7b}.st1{fill:#fff}.st2{font-family:&apos;BelleroseLight&apos;}.st3{font-size:92.1376px}.st4{letter-spacing:-4}.st5{font-size:107.6783px}.st6{letter-spacing:-2}</style><path class="st0" d="M100 7.2c.5 1 1.1 1.7 1.6 2.7 5.1 9.7 10.9 18.9 18.1 27.3 5.6 6.5 12.3 12.6 19.5 17.6 12.3 8.9 22.9 19.1 30.4 31.7 4.3 7.3 6.9 14.7 8.5 22.7.8 5.1 1.1 10.4.8 15.5-.5 9.7-3.2 18.6-8 27.3-7.7 14.5-19.5 25.9-35.4 33.4-7.2 3.4-14.9 5.6-23.2 6.8-5.6.7-11.5 1-17.1.7-16.8-1-31.7-6-44.5-16-13.6-10.4-22.4-23.5-26.9-38.9-1.3-4.6-2.1-9.2-2.4-13.8-1.1-17.2 4.3-32.4 14.9-46.4 5.6-7.5 12.5-14 20-19.8 5.3-4.1 10.9-8 16-12.6 9.6-9.2 17.3-19.6 23.4-30.9 1.7-2.4 2.7-4.6 4.3-7.3z" id="zVySZD.tif"/><text transform="translate(38.662 94.94)" class="st1 st2 st3 st4">gov</text><text transform="translate(25.237 175.377)" class="st1 st2 st5 st6">cms</text></svg>